<?xml version="1.0" encoding="UTF-8" standalone="no"?>
<!-- Created with Inkscape (http://www.inkscape.org/) -->

<svg
   xmlns:dc="http://purl.org/dc/elements/1.1/"
   xmlns:cc="http://creativecommons.org/ns#"
   xmlns:rdf="http://www.w3.org/1999/02/22-rdf-syntax-ns#"
   xmlns:svg="http://www.w3.org/2000/svg"
   xmlns="http://www.w3.org/2000/svg"
   xmlns:sodipodi="http://sodipodi.sourceforge.net/DTD/sodipodi-0.dtd"
   xmlns:inkscape="http://www.inkscape.org/namespaces/inkscape"
   width="152.64485mm"
   height="68.981972mm"
   viewBox="0 0 540.86759 244.42431"
   id="svg2"
   version="1.1"
   inkscape:version="0.91 r13725"
   sodipodi:docname="Logo-finished.svg">
  <defs
     id="defs4" />
  <sodipodi:namedview
     id="base"
     pagecolor="#000000"
     bordercolor="#666666"
     borderopacity="1.0"
     inkscape:pageopacity="0"
     inkscape:pageshadow="2"
     inkscape:zoom="0.98994949"
     inkscape:cx="229.10697"
     inkscape:cy="-55.26108"
     inkscape:document-units="px"
     inkscape:current-layer="layer1"
     showgrid="false"
     inkscape:window-width="1394"
     inkscape:window-height="855"
     inkscape:window-x="46"
     inkscape:window-y="1"
     inkscape:window-maximized="1"
     fit-margin-top="0"
     fit-margin-left="0"
     fit-margin-right="0"
     fit-margin-bottom="0" />
  <metadata
     id="metadata7">
    <rdf:RDF>
      <cc:Work
         rdf:about="">
        <dc:format>image/svg+xml</dc:format>
        <dc:type
           rdf:resource="http://purl.org/dc/dcmitype/StillImage" />
        <dc:title />
      </cc:Work>
    </rdf:RDF>
  </metadata>
  <g
     inkscape:label="Layer 1"
     inkscape:groupmode="layer"
     id="layer1"
     transform="translate(-124.45694,86.57522)">
    <g
       id="g4261"
       transform="matrix(1.086107,0,0,1.086107,-15.415521,-38.552251)" />
    <g
       id="g4973"
       transform="translate(-1073.4147,-399.45903)">
      <path
         style="opacity:1;fill:#00ff00;fill-opacity:0.47058824;stroke:none;stroke-width:0.99999994;stroke-linecap:butt;stroke-linejoin:miter;stroke-miterlimit:3.0999999;stroke-dasharray:none;stroke-dashoffset:0;stroke-opacity:1"
         d="m 1566.7953,338.59689 -116.3535,147.24609 17.998,0 107.1524,-136.11328 -8.7969,-11.13281 z m 11.9863,15.16797 -103.9804,132.07812 18.2285,0 94.8809,-120.52344 -9.129,-11.55468 z m 12.3164,15.58789 -91.707,116.49023 18.2285,0 82.6094,-104.93555 -9.1309,-11.55468 z m 12.3184,15.58789 -79.4355,100.90234 18.2285,0 70.3379,-89.34766 -9.1309,-11.55468 z m 12.3184,15.58789 -67.1641,85.31445 18.2285,0 58.0664,-73.75781 -9.1308,-11.55664 z m 12.3164,15.58984 -54.8906,69.72461 18.2265,0 45.7949,-58.17187 -9.1308,-11.55274 z m 12.3183,15.58789 -42.6191,54.13672 18.2266,0 33.5234,-42.58203 -9.1309,-11.55469 z m 12.3184,15.58789 -30.3477,38.54883 18.2266,0 21.252,-26.99414 -9.1309,-11.55469 z m 12.3184,15.58789 -18.0762,22.96094 18.2265,0 8.9786,-11.40625 -9.1289,-11.55469 z m 12.3164,15.58985 -5.8028,7.37109 11.6289,0 -5.8261,-7.37109 z"
         id="path4739"
         inkscape:connector-curvature="0" />
      <path
         style="opacity:1;fill:#0000ff;fill-opacity:0.47058824;stroke:none;stroke-width:0.99999994;stroke-linecap:butt;stroke-linejoin:miter;stroke-miterlimit:3.0999999;stroke-dasharray:none;stroke-dashoffset:0;stroke-opacity:1"
         d="m 1371.8358,338.59689 116.3535,147.24609 -17.998,0 -107.1524,-136.11328 8.7969,-11.13281 z m -11.9863,15.16797 103.9804,132.07812 -18.2285,0 -94.8809,-120.52344 9.129,-11.55468 z m -12.3164,15.58789 91.707,116.49023 -18.2285,0 -82.6094,-104.93555 9.1309,-11.55468 z m -12.3184,15.58789 79.4355,100.90234 -18.2285,0 -70.3379,-89.34766 9.1309,-11.55468 z m -12.3184,15.58789 67.1641,85.31445 -18.2285,0 -58.0664,-73.75781 9.1308,-11.55664 z m -12.3164,15.58984 54.8906,69.72461 -18.2265,0 -45.7949,-58.17187 9.1308,-11.55274 z m -12.3183,15.58789 42.6191,54.13672 -18.2266,0 -33.5234,-42.58203 9.1309,-11.55469 z m -12.3184,15.58789 30.3477,38.54883 -18.2266,0 -21.252,-26.99414 9.1309,-11.55469 z m -12.3184,15.58789 18.0762,22.96094 -18.2265,0 -8.9786,-11.40625 9.1289,-11.55469 z m -12.3164,15.58985 5.8028,7.37109 -11.6289,0 5.8261,-7.37109 z"
         id="path4735"
         inkscape:connector-curvature="0" />
      <path
         inkscape:connector-curvature="0"
         id="path4165"
         d="m 1469.3145,312.88381 -9.7851,16.46679 0,156.49219 19.5722,0 0,-156.49023 -9.7871,-16.46875 z m -14.7851,24.88086 -19.5742,32.93945 0,115.13867 19.5742,0 0,-148.07812 z m 29.5722,0.002 0,148.07617 19.5743,0 0,-115.13672 -19.5743,-32.93945 z m -54.1464,41.35156 -19.5743,32.9375 0,73.78711 19.5743,0 0,-106.72461 z m 78.7207,0.002 0,106.72266 19.5742,0 0,-73.78516 -19.5742,-32.9375 z m -103.295,41.34961 -19.5722,32.9375 0,32.43555 19.5722,0 0,-65.37305 z m 127.8692,0.002 0,65.37109 19.5742,0 0,-32.43164 -19.5742,-32.93945 z m -152.4414,41.34961 -14.2754,24.02148 14.2754,0 0,-24.02148 z m 177.0156,0.002 0,24.01953 14.2734,0 -14.2734,-24.01953 z"
         style="opacity:1;fill:#ff0000;fill-opacity:0.47058824;stroke:none;stroke-width:0.99999994;stroke-linecap:butt;stroke-linejoin:miter;stroke-miterlimit:3.0999999;stroke-dasharray:none;stroke-dashoffset:0;stroke-opacity:1" />
    </g>
    <g
       id="g5012"
       transform="matrix(0.79455825,0,0,0.79455825,82.137194,21.154289)">
      <g
         transform="translate(69.122231,-327.2163)"
         id="g4978">
        <g
           id="text6249"
           style="font-style:normal;font-variant:normal;font-weight:normal;font-stretch:normal;font-size:46.72145462px;line-height:125%;font-family:'.Damascus PUA';-inkscape-font-specification:'.Damascus PUA';letter-spacing:0px;word-spacing:0px;fill:#ffffff;fill-opacity:1;stroke:none;stroke-width:1px;stroke-linecap:butt;stroke-linejoin:miter;stroke-opacity:1"
           transform="matrix(0.94707401,0,0,0.94707401,31.255606,22.698904)">
          <path
             inkscape:connector-curvature="0"
             id="path4156"
             style="font-style:normal;font-variant:normal;font-weight:200;font-stretch:normal;font-size:46.72145462px;line-height:125%;font-family:'.HeitiUI K';-inkscape-font-specification:'.HeitiUI K, Ultra-Light';text-align:start;writing-mode:lr-tb;text-anchor:start"
             d="m 236.72017,471.8728 0,-33.45256 6.58772,0 q 7.05494,0 10.51233,1.07459 3.55083,1.16804 5.79346,3.2705 2.38279,2.24263 3.64427,5.51314 1.3082,3.22378 1.3082,7.70904 0,2.1959 -0.56065,4.25165 -0.51394,2.00902 -1.44837,3.97132 -1.07459,1.9623 -2.42951,3.41067 -1.3082,1.40164 -3.0369,2.33607 -3.41066,1.91558 -9.95167,1.91558 l -10.41888,0 z m 2.05574,-2.24263 4.67215,0 q 3.17706,0 5.46641,-0.14016 2.28935,-0.14017 3.69099,-0.46722 1.44837,-0.32705 2.75657,-0.93443 1.3082,-0.6541 2.38279,-1.58853 4.53198,-4.01804 4.53198,-10.97954 0,-3.59755 -1.3082,-6.541 -1.3082,-2.99017 -3.78444,-4.95248 -1.21475,-0.98115 -2.70984,-1.63525 -1.44836,-0.6541 -3.08362,-0.98115 -3.2705,-0.6541 -9.53117,-0.6541 l -3.08362,0 0,28.87386 z" />
          <path
             inkscape:connector-curvature="0"
             id="path4158"
             style="font-style:normal;font-variant:normal;font-weight:200;font-stretch:normal;font-size:46.72145462px;line-height:125%;font-family:'.HeitiUI K';-inkscape-font-specification:'.HeitiUI K, Ultra-Light';text-align:start;writing-mode:lr-tb;text-anchor:start"
             d="m 294.05396,465.70557 q -2.00902,3.45739 -4.90575,5.2328 -2.85001,1.77542 -6.63444,1.77542 -2.80329,0 -5.04592,-0.88771 -2.24263,-0.93443 -4.11149,-2.89673 -3.59755,-3.87788 -3.59755,-9.29757 0,-5.46641 3.59755,-9.34429 3.73772,-3.78444 8.97052,-3.78444 5.37297,0 8.9238,3.55083 1.72869,1.68197 2.66312,4.06477 0.98115,2.38279 1.16804,5.2328 l -23.17385,0 q 0.14017,5.46641 3.0369,8.40986 2.94345,2.94345 7.28855,2.94345 3.31722,0 5.84018,-1.40164 2.52296,-1.44836 4.25165,-4.53198 l 1.72869,0.93443 z m -1.3082,-8.12953 q -0.37377,-2.33608 -1.3082,-3.97133 -0.93443,-1.68197 -2.42951,-2.80328 -1.44837,-1.12132 -3.08362,-1.63526 -1.63525,-0.51393 -3.55083,-0.51393 -7.75576,0 -10.32544,8.9238 l 20.6976,0 z" />
          <path
             inkscape:connector-curvature="0"
             id="path4160"
             style="font-style:normal;font-variant:normal;font-weight:200;font-stretch:normal;font-size:46.72145462px;line-height:125%;font-family:'.HeitiUI K';-inkscape-font-specification:'.HeitiUI K, Ultra-Light';text-align:start;writing-mode:lr-tb;text-anchor:start"
             d="m 311.6862,450.84815 q -1.3082,-1.21476 -2.56968,-1.7287 -1.26148,-0.56065 -2.6164,-0.56065 -0.98115,-0.0467 -1.82214,0.28032 -0.84099,0.32705 -1.44836,0.93443 -0.60738,0.60738 -0.93443,1.40165 -0.32705,0.74754 -0.32705,1.58853 0,0.79426 0.32705,1.58853 0.37377,0.74754 1.12131,1.40164 0.51394,0.46721 1.58853,1.16804 1.07459,0.6541 2.6164,1.44836 1.35492,0.6541 2.3828,1.49509 1.02787,0.84098 1.82213,1.68197 0.6541,0.84099 1.02788,1.82214 0.37377,0.98115 0.37377,2.1959 0,2.99018 -2.14919,5.09264 -2.05574,2.05575 -4.9992,2.05575 -1.9623,0 -3.73771,-0.79427 -1.7287,-0.79426 -3.08362,-2.33607 l 1.26148,-1.44837 q 1.21476,1.26148 2.56968,1.86886 1.40164,0.60738 2.80329,0.60738 1.21476,0.0467 2.19591,-0.37377 1.02787,-0.46721 1.72869,-1.16804 0.70082,-0.74754 1.07459,-1.68197 0.4205,-0.93443 0.4205,-1.86886 0,-0.79426 -0.4205,-1.63525 -0.37377,-0.84098 -1.02787,-1.44836 -0.6541,-0.56066 -1.77541,-1.21476 -1.12132,-0.70082 -2.47624,-1.44837 -1.21476,-0.6541 -2.33607,-1.44836 -1.0746,-0.79427 -1.77542,-1.58853 l 0.0467,0.0467 q -0.56065,-0.79426 -0.98115,-1.86886 -0.37377,-1.07459 -0.37377,-2.33607 0,-1.26148 0.46722,-2.33607 0.51393,-1.0746 1.40164,-2.00902 1.77541,-1.7287 4.85903,-1.7287 2.94345,0 6.07379,2.94345 l -1.3082,1.40165 z" />
          <path
             inkscape:connector-curvature="0"
             id="path4162"
             style="font-style:normal;font-variant:normal;font-weight:200;font-stretch:normal;font-size:46.72145462px;line-height:125%;font-family:'.HeitiUI K';-inkscape-font-specification:'.HeitiUI K, Ultra-Light';text-align:start;writing-mode:lr-tb;text-anchor:start"
             d="m 318.16515,439.44811 q 0,-0.93443 0.60738,-1.58853 0.60738,-0.6541 1.49509,-0.6541 0.93443,0 1.54181,0.6541 0.60737,0.6541 0.60737,1.58853 0,0.93443 -0.60737,1.58853 -0.60738,0.60738 -1.54181,0.60738 -0.88771,0 -1.49509,-0.6541 -0.60738,-0.70082 -0.60738,-1.54181 z m 1.0746,7.70904 2.10246,0 0,24.71565 -2.10246,0 0,-24.71565 z" />
          <path
             inkscape:connector-curvature="0"
             id="path4164"
             style="font-style:normal;font-variant:normal;font-weight:200;font-stretch:normal;font-size:46.72145462px;line-height:125%;font-family:'.HeitiUI K';-inkscape-font-specification:'.HeitiUI K, Ultra-Light';text-align:start;writing-mode:lr-tb;text-anchor:start"
             d="m 351.48558,447.15715 2.10247,0 0,19.34268 q 0,2.61641 -0.28033,4.53198 -0.23361,1.86886 -0.60738,3.08362 -0.37377,0.93443 -1.12131,2.00902 -0.70082,1.12132 -1.35492,1.82214 -1.68198,1.40164 -4.15821,2.33607 -2.47624,0.98115 -5.09264,0.98115 -4.48526,0 -7.66232,-1.86885 -3.17706,-1.82214 -4.81231,-5.09264 l 2.38279,0 q 1.49509,2.52296 3.92461,3.73771 2.47623,1.26148 6.02706,1.26148 3.36395,0 5.88691,-1.35492 2.56968,-1.3082 3.64427,-3.36394 1.12131,-2.14919 1.12131,-6.40084 l 0,-2.80329 q -2.52295,3.08361 -5.37296,4.5787 -2.80329,1.49509 -5.70002,1.49509 -5.37297,0 -8.9238,-3.691 -3.55083,-3.69099 -3.55083,-8.69019 0,-5.2328 3.83116,-8.87707 3.691,-3.691 9.15741,-3.691 5.32624,0 10.55904,6.26068 l 0,-5.60658 z m 0.14017,11.91397 q 0,-4.43854 -2.99017,-7.42871 -2.99018,-2.99017 -7.56888,-2.99017 -4.81231,0 -7.94265,3.2705 -3.08361,3.22378 -3.08361,7.33527 0,4.20493 2.99017,7.1951 3.08362,2.94345 7.8492,2.94345 4.67215,0 7.70904,-2.89673 3.0369,-2.89673 3.0369,-7.42871 z" />
          <path
             inkscape:connector-curvature="0"
             id="path4166"
             style="font-style:normal;font-variant:normal;font-weight:200;font-stretch:normal;font-size:46.72145462px;line-height:125%;font-family:'.HeitiUI K';-inkscape-font-specification:'.HeitiUI K, Ultra-Light';text-align:start;writing-mode:lr-tb;text-anchor:start"
             d="m 360.35682,447.15715 2.10247,0 0,5.93363 q 2.38279,-3.36395 4.95247,-4.95248 2.6164,-1.63525 5.27952,-1.63525 2.75657,0 4.90576,1.49509 2.14918,1.44836 3.03689,3.87788 0.46722,1.21476 0.70082,2.99017 0.28033,1.77542 0.28033,4.25165 l 0,12.75496 -2.05574,0 0,-11.72708 q 0,-2.28936 -0.14017,-3.87788 -0.0934,-1.58853 -0.32705,-2.3828 l 0,0.0467 q -0.18688,-0.74754 -0.60738,-1.54181 -0.42049,-0.84098 -0.79426,-1.40164 -1.82214,-2.47624 -5.79346,-2.47624 -2.00902,0 -3.9246,0.98115 -1.91558,0.93443 -3.22378,2.66313 -0.70083,0.93443 -1.16804,1.82213 -0.46721,0.88771 -0.70082,1.82214 -0.23361,0.93443 -0.32705,2.66312 -0.0934,1.7287 -0.0934,4.48526 l 0,8.9238 -2.10247,0 0,-24.71565 z" />
        </g>
        <g
           id="text6253"
           style="font-style:normal;font-variant:normal;font-weight:normal;font-stretch:normal;font-size:46.72145462px;line-height:125%;font-family:'.Damascus PUA';-inkscape-font-specification:'.Damascus PUA';letter-spacing:0px;word-spacing:0px;fill:#ffffff;fill-opacity:1;stroke:none;stroke-width:1px;stroke-linecap:butt;stroke-linejoin:miter;stroke-opacity:1"
           transform="matrix(0.94707401,0,0,0.94707401,22.684178,22.698904)">
          <path
             inkscape:connector-curvature="0"
             id="path4169"
             style="font-style:normal;font-variant:normal;font-weight:200;font-stretch:normal;font-size:46.72145462px;line-height:125%;font-family:'.HeitiUI K';-inkscape-font-specification:'.HeitiUI K, Ultra-Light';text-align:start;writing-mode:lr-tb;text-anchor:start"
             d="m 419.0527,471.8728 0,-33.45256 6.58773,0 q 7.05494,0 10.51232,1.07459 3.55084,1.16804 5.79347,3.2705 2.38279,2.24263 3.64427,5.51314 1.3082,3.22378 1.3082,7.70904 0,2.1959 -0.56066,4.25165 -0.51393,2.00902 -1.44836,3.97132 -1.0746,1.9623 -2.42952,3.41067 -1.3082,1.40164 -3.03689,2.33607 -3.41067,1.91558 -9.95167,1.91558 l -10.41889,0 z m 2.05575,-2.24263 4.67214,0 q 3.17706,0 5.46641,-0.14016 2.28935,-0.14017 3.691,-0.46722 1.44836,-0.32705 2.75656,-0.93443 1.3082,-0.6541 2.3828,-1.58853 4.53198,-4.01804 4.53198,-10.97954 0,-3.59755 -1.3082,-6.541 -1.3082,-2.99017 -3.78444,-4.95248 -1.21476,-0.98115 -2.70984,-1.63525 -1.44837,-0.6541 -3.08362,-0.98115 -3.2705,-0.6541 -9.53118,-0.6541 l -3.08361,0 0,28.87386 z" />
          <path
             inkscape:connector-curvature="0"
             id="path4171"
             style="font-style:normal;font-variant:normal;font-weight:200;font-stretch:normal;font-size:46.72145462px;line-height:125%;font-family:'.HeitiUI K';-inkscape-font-specification:'.HeitiUI K, Ultra-Light';text-align:start;writing-mode:lr-tb;text-anchor:start"
             d="m 476.3865,465.70557 q -2.00902,3.45739 -4.90575,5.2328 -2.85001,1.77542 -6.63445,1.77542 -2.80329,0 -5.04592,-0.88771 -2.24263,-0.93443 -4.11149,-2.89673 -3.59755,-3.87788 -3.59755,-9.29757 0,-5.46641 3.59755,-9.34429 3.73772,-3.78444 8.97052,-3.78444 5.37297,0 8.9238,3.55083 1.7287,1.68197 2.66312,4.06477 0.98116,2.38279 1.16804,5.2328 l -23.17384,0 q 0.14016,5.46641 3.03689,8.40986 2.94346,2.94345 7.28855,2.94345 3.31722,0 5.84018,-1.40164 2.52296,-1.44836 4.25166,-4.53198 l 1.72869,0.93443 z m -1.3082,-8.12953 q -0.37377,-2.33608 -1.3082,-3.97133 -0.93443,-1.68197 -2.42952,-2.80328 -1.44836,-1.12132 -3.08361,-1.63526 -1.63525,-0.51393 -3.55083,-0.51393 -7.75577,0 -10.32545,8.9238 l 20.69761,0 z" />
          <path
             inkscape:connector-curvature="0"
             id="path4173"
             style="font-style:normal;font-variant:normal;font-weight:200;font-stretch:normal;font-size:46.72145462px;line-height:125%;font-family:'.HeitiUI K';-inkscape-font-specification:'.HeitiUI K, Ultra-Light';text-align:start;writing-mode:lr-tb;text-anchor:start"
             d="m 492.8507,472.38674 -0.23361,0.51393 0.23361,-0.14016 0.2336,0.14016 -0.2336,-0.51393 z m 0,0 -11.25987,-25.22959 2.19591,0 9.01724,20.60416 q 0.18688,-0.46721 0.56065,-1.3082 0.37378,-0.84098 0.56066,-1.35492 l 7.89593,-17.94104 2.28935,0 -11.25987,25.22959 z" />
          <path
             inkscape:connector-curvature="0"
             id="path4175"
             style="font-style:normal;font-variant:normal;font-weight:200;font-stretch:normal;font-size:46.72145462px;line-height:125%;font-family:'.HeitiUI K';-inkscape-font-specification:'.HeitiUI K, Ultra-Light';text-align:start;writing-mode:lr-tb;text-anchor:start"
             d="m 532.6895,465.70557 q -2.00902,3.45739 -4.90575,5.2328 -2.85001,1.77542 -6.63445,1.77542 -2.80329,0 -5.04592,-0.88771 -2.24263,-0.93443 -4.11148,-2.89673 -3.59756,-3.87788 -3.59756,-9.29757 0,-5.46641 3.59756,-9.34429 3.73771,-3.78444 8.97052,-3.78444 5.37296,0 8.92379,3.55083 1.7287,1.68197 2.66313,4.06477 0.98115,2.38279 1.16803,5.2328 l -23.17384,0 q 0.14017,5.46641 3.0369,8.40986 2.94345,2.94345 7.28854,2.94345 3.31723,0 5.84018,-1.40164 2.52296,-1.44836 4.25166,-4.53198 l 1.72869,0.93443 z m -1.3082,-8.12953 q -0.37377,-2.33608 -1.3082,-3.97133 -0.93443,-1.68197 -2.42952,-2.80328 -1.44836,-1.12132 -3.08361,-1.63526 -1.63525,-0.51393 -3.55083,-0.51393 -7.75576,0 -10.32544,8.9238 l 20.6976,0 z" />
          <path
             inkscape:connector-curvature="0"
             id="path4177"
             style="font-style:normal;font-variant:normal;font-weight:200;font-stretch:normal;font-size:46.72145462px;line-height:125%;font-family:'.HeitiUI K';-inkscape-font-specification:'.HeitiUI K, Ultra-Light';text-align:start;writing-mode:lr-tb;text-anchor:start"
             d="m 539.71597,437.20548 2.00903,0 0,34.66732 -2.00903,0 0,-34.66732 z" />
          <path
             inkscape:connector-curvature="0"
             id="path4179"
             style="font-style:normal;font-variant:normal;font-weight:200;font-stretch:normal;font-size:46.72145462px;line-height:125%;font-family:'.HeitiUI K';-inkscape-font-specification:'.HeitiUI K, Ultra-Light';text-align:start;writing-mode:lr-tb;text-anchor:start"
             d="m 548.08933,459.6785 q 0,-5.51313 3.78444,-9.39101 3.78443,-3.78444 8.97052,-3.78444 5.32624,0 9.01724,3.83116 3.78443,3.78444 3.78443,9.29757 0,5.41969 -3.73771,9.29757 -1.86886,1.9623 -4.11149,2.89673 -2.19591,0.88771 -4.90575,0.88771 -2.66313,0 -4.95248,-0.88771 -2.24263,-0.93443 -4.06476,-2.89673 -3.78444,-3.83116 -3.78444,-9.25085 z m 23.45417,0.0467 q 0,-4.43854 -3.13034,-7.70904 -3.08361,-3.31722 -7.56887,-3.31722 -4.3451,0 -7.52216,3.31722 -3.08361,3.31723 -3.08361,7.75576 0,4.53199 2.99017,7.66232 3.03689,3.17706 7.56887,3.17706 4.62543,0 7.66232,-3.17706 1.63525,-1.63525 2.33608,-3.55083 0.74754,-1.91558 0.74754,-4.15821 z" />
          <path
             inkscape:connector-curvature="0"
             id="path4181"
             style="font-style:normal;font-variant:normal;font-weight:200;font-stretch:normal;font-size:46.72145462px;line-height:125%;font-family:'.HeitiUI K';-inkscape-font-specification:'.HeitiUI K, Ultra-Light';text-align:start;writing-mode:lr-tb;text-anchor:start"
             d="m 579.96505,447.15715 2.05575,0 0,6.02707 q 4.81231,-6.68117 10.88609,-6.68117 4.9992,0 8.87708,3.83116 3.78444,3.78444 3.78444,9.25085 0,5.41969 -3.73772,9.29757 -3.64427,3.83116 -8.83035,3.83116 -5.55986,0 -10.97954,-6.44756 l 0,14.99758 -2.05575,0 0,-34.10666 z m 23.54761,12.47463 q 0,-2.24263 -0.84098,-4.15821 -0.79427,-1.91558 -2.28935,-3.55083 -3.13034,-3.2705 -7.75576,-3.2705 -4.71887,0 -7.80249,3.22378 -3.03689,3.17706 -3.03689,7.80248 0,2.3828 0.79426,4.3451 0.84099,1.9623 2.33608,3.55083 3.13033,3.13033 7.70904,3.13033 4.53198,0 7.70904,-3.22378 3.17705,-3.31722 3.17705,-7.8492 z" />
        </g>
        <g
           style="font-style:normal;font-variant:normal;font-weight:200;font-stretch:normal;font-size:44.44389343px;line-height:125%;font-family:'.HeitiUI K';-inkscape-font-specification:'.HeitiUI K, Ultra-Light';text-align:start;letter-spacing:0px;word-spacing:0px;writing-mode:lr-tb;text-anchor:start;fill:#ffffff;fill-opacity:1;stroke:none;stroke-width:1px;stroke-linecap:butt;stroke-linejoin:miter;stroke-opacity:1"
           id="text4181">
          <path
             inkscape:connector-curvature="0"
             d="m 55.334709,469.74222 0,-31.82183 6.266589,0 q 6.711028,0 9.999876,1.02221 3.377736,1.1111 5.511043,3.11107 2.266638,2.13331 3.466623,5.24438 1.244429,3.06663 1.244429,7.33325 0,2.08886 -0.533326,4.04439 -0.488883,1.91109 -1.377761,3.77773 -1.02221,1.86665 -2.311083,3.24441 -1.244429,1.33331 -2.888853,2.22219 -3.244404,1.8222 -9.466549,1.8222 l -9.910988,0 z m 1.955531,-2.13331 4.444389,0 q 3.022185,0 5.199936,-0.13333 2.177751,-0.13333 3.511068,-0.44444 1.37776,-0.3111 2.622189,-0.88888 1.244429,-0.62221 2.266639,-1.51109 4.311057,-3.82217 4.311057,-10.44431 0,-3.42218 -1.244429,-6.22215 -1.244429,-2.84441 -3.599955,-4.71105 -1.155541,-0.93332 -2.577746,-1.55554 -1.37776,-0.62221 -2.933297,-0.93332 -3.111072,-0.62221 -9.066554,-0.62221 l -2.933297,0 0,27.46632 z"
             id="path4186" />
          <path
             inkscape:connector-curvature="0"
             d="m 86.629459,438.89816 q 0,-0.88888 0.577771,-1.51109 0.57777,-0.62222 1.422204,-0.62222 0.888878,0 1.466649,0.62222 0.57777,0.62221 0.57777,1.51109 0,0.88888 -0.57777,1.51109 -0.577771,0.57777 -1.466649,0.57777 -0.844434,0 -1.422204,-0.62221 -0.577771,-0.66666 -0.577771,-1.46665 z m 1.02221,7.33324 1.999975,0 0,23.51082 -1.999975,0 0,-23.51082 z"
             id="path4188" />
          <path
             inkscape:connector-curvature="0"
             d="m 106.68129,449.74247 q -1.24443,-1.15554 -2.44441,-1.64443 -1.19999,-0.53332 -2.48886,-0.53332 -0.93332,-0.0445 -1.73331,0.26666 -0.799991,0.31111 -1.377762,0.88888 -0.57777,0.57777 -0.888877,1.33332 -0.311108,0.7111 -0.311108,1.51109 0,0.75554 0.311108,1.51109 0.355551,0.7111 1.066653,1.33332 0.488883,0.44444 1.511096,1.11109 1.02221,0.62222 2.48885,1.37777 1.28888,0.62221 2.26664,1.4222 0.97777,0.79999 1.73331,1.59998 0.62222,0.79999 0.97777,1.73331 0.35555,0.93332 0.35555,2.08886 0,2.84441 -2.04442,4.84439 -1.95553,1.95553 -4.75549,1.95553 -1.866648,0 -3.555516,-0.75555 -1.644424,-0.75554 -2.933297,-2.22219 l 1.199986,-1.37776 q 1.155541,1.19998 2.444414,1.77775 1.333317,0.57778 2.666633,0.57778 1.15554,0.0444 2.08886,-0.35556 0.97777,-0.44443 1.64443,-1.11109 0.66666,-0.71111 1.02221,-1.59998 0.39999,-0.88888 0.39999,-1.77776 0,-0.75555 -0.39999,-1.55554 -0.35555,-0.79999 -0.97777,-1.37776 -0.62221,-0.53332 -1.68887,-1.15554 -1.06665,-0.66666 -2.35552,-1.37776 -1.155544,-0.62221 -2.222198,-1.37776 -1.022209,-0.75554 -1.688868,-1.51109 l 0.04444,0.0444 q -0.533326,-0.75554 -0.933322,-1.77775 -0.355551,-1.02221 -0.355551,-2.2222 0,-1.19998 0.444439,-2.22219 0.488883,-1.02221 1.333317,-1.91109 1.688868,-1.64442 4.622173,-1.64442 2.79996,0 5.7777,2.79996 l -1.24443,1.33332 z"
             id="path4190" />
          <path
             inkscape:connector-curvature="0"
             d="m 135.15525,451.60911 q -1.68887,-2.08886 -3.91106,-3.02218 -2.17776,-0.97777 -5.11105,-0.97777 -4.7555,0 -7.86657,2.97774 -3.15552,3.06663 -3.15552,7.33324 0,4.48884 3.06663,7.59991 3.11107,3.11107 7.95546,3.11107 2.79996,0 4.97771,-0.93332 2.2222,-0.97776 4.0444,-3.11107 0.39999,0.31111 0.57777,0.44444 0.22222,0.13333 0.57777,0.35555 l 0.39999,0.26666 q -1.86664,2.35553 -4.71105,3.6444 -2.84441,1.24443 -6.1777,1.24443 -2.66663,0 -4.93327,-0.84443 -2.26664,-0.88888 -4.08884,-2.75552 -3.68884,-3.59996 -3.68884,-8.75545 0,-2.62219 0.93332,-4.79994 0.93332,-2.2222 2.79996,-4.08884 3.68885,-3.68884 9.42211,-3.68884 3.37774,0 6.13326,1.28887 2.75552,1.28887 4.31105,3.73329 l -1.55553,0.97776 z"
             id="path4192" />
          <path
             inkscape:connector-curvature="0"
             d="m 141.71003,458.14236 q 0,-5.24438 3.59995,-8.93322 3.59996,-3.59995 8.53323,-3.59995 5.06661,0 8.57767,3.6444 3.59996,3.59995 3.59996,8.84433 0,5.15549 -3.55551,8.84434 -1.77776,1.86664 -3.91106,2.75552 -2.08887,0.84443 -4.66661,0.84443 -2.53331,0 -4.71106,-0.84443 -2.1333,-0.88888 -3.86662,-2.75552 -3.59995,-3.6444 -3.59995,-8.7999 z m 22.31083,0.0444 q 0,-4.22217 -2.97774,-7.33324 -2.93329,-3.15552 -7.19991,-3.15552 -4.13328,0 -7.15546,3.15552 -2.9333,3.15551 -2.9333,7.37768 0,4.31106 2.84441,7.2888 2.88885,3.02219 7.19991,3.02219 4.39994,0 7.2888,-3.02219 1.55553,-1.55554 2.22219,-3.37774 0.7111,-1.8222 0.7111,-3.9555 z"
             id="path4194" />
          <path
             inkscape:connector-curvature="0"
             d="m 180.74288,470.2311 -0.22222,0.48889 0.22222,-0.13334 0.22222,0.13334 -0.22222,-0.48889 z m 0,0 -10.71098,-23.9997 2.08886,0 8.57768,19.59976 q 0.17777,-0.44444 0.53332,-1.24443 0.35555,-0.79999 0.53333,-1.28887 l 7.51102,-17.06646 2.17775,0 -10.71098,23.9997 z"
             id="path4196" />
          <path
             inkscape:connector-curvature="0"
             d="m 218.63963,463.87563 q -1.91109,3.28884 -4.66661,4.97771 -2.71108,1.68887 -6.31104,1.68887 -2.66663,0 -4.79994,-0.84443 -2.1333,-0.88888 -3.91106,-2.75552 -3.42218,-3.68885 -3.42218,-8.84434 0,-5.19994 3.42218,-8.88878 3.55551,-3.59995 8.53323,-3.59995 5.11105,0 8.48878,3.37773 1.64443,1.59998 2.5333,3.86662 0.93333,2.26664 1.1111,4.97772 l -22.04417,0 q 0.13333,5.19993 2.88885,7.9999 2.79997,2.79996 6.93325,2.79996 3.15552,0 5.55549,-1.33331 2.39997,-1.37776 4.04439,-4.31106 l 1.64443,0.88888 z m -1.24443,-7.73324 q -0.35555,-2.2222 -1.24443,-3.77773 -0.88888,-1.59998 -2.31108,-2.66664 -1.37777,-1.06665 -2.9333,-1.55553 -1.55554,-0.48888 -3.37774,-0.48888 -7.37768,0 -9.8221,8.48878 l 19.68865,0 z"
             id="path4198" />
          <path
             inkscape:connector-curvature="0"
             d="m 224.47914,446.2314 2.04442,0 0,4.08884 0.62222,0.0889 q 1.4222,-2.75552 2.71108,-3.77773 1.28887,-1.02221 2.62218,-1.02221 1.15555,0 2.17776,0.48888 -0.31111,0.39999 -0.48889,0.66666 -0.13333,0.26666 -0.35555,0.66666 l -0.26666,0.44443 q -0.53333,-0.17777 -1.19999,-0.17777 -0.79999,0 -1.59998,0.44444 -0.75554,0.39999 -1.46665,1.15554 -0.66665,0.75555 -1.24442,1.8222 -0.53333,1.02221 -0.84444,2.26664 l 0,-0.0444 q -0.31111,1.15554 -0.48888,3.28885 -0.17778,2.13331 -0.17778,5.28883 l 0,7.82212 -2.04442,0 0,-23.51082 z"
             id="path4200" />
        </g>
      </g>
      <g
         id="g5008">
        <path
           style="opacity:1;fill:#00ff00;fill-opacity:0.47058824;stroke:#ffffff;stroke-width:2;stroke-linecap:butt;stroke-linejoin:miter;stroke-miterlimit:3.0999999;stroke-dasharray:none;stroke-dashoffset:0;stroke-opacity:1"
           d="m 124.45694,98.260233 539.16891,0"
           id="path5004"
           inkscape:connector-curvature="0"
           sodipodi:nodetypes="cc" />
        <path
           inkscape:connector-curvature="0"
           id="path5006"
           d="m 124.45694,156.84908 539.16891,0"
           style="opacity:1;fill:#00ff00;fill-opacity:0.47058824;stroke:#ffffff;stroke-width:2;stroke-linecap:butt;stroke-linejoin:miter;stroke-miterlimit:3.0999999;stroke-dasharray:none;stroke-dashoffset:0;stroke-opacity:1"
           sodipodi:nodetypes="cc" />
      </g>
    </g>
  </g>
</svg>
