<?xml version="1.0" encoding="UTF-8" standalone="no"?>
<!-- Created with Inkscape (http://www.inkscape.org/) -->

<svg
   xmlns:dc="http://purl.org/dc/elements/1.1/"
   xmlns:cc="http://creativecommons.org/ns#"
   xmlns:rdf="http://www.w3.org/1999/02/22-rdf-syntax-ns#"
   xmlns:svg="http://www.w3.org/2000/svg"
   xmlns="http://www.w3.org/2000/svg"
   xmlns:sodipodi="http://sodipodi.sourceforge.net/DTD/sodipodi-0.dtd"
   xmlns:inkscape="http://www.inkscape.org/namespaces/inkscape"
   sodipodi:docname="map.svg"
   inkscape:version="0.91 r13725"
   version="1.1"
   id="svg2"
   viewBox="0 0 383.98174 313.59841"
   height="88.50444mm"
   width="108.36818mm">
  <sodipodi:namedview
     inkscape:window-maximized="1"
     inkscape:window-y="1"
     inkscape:window-x="46"
     inkscape:window-height="855"
     inkscape:window-width="1394"
     showgrid="false"
     inkscape:current-layer="layer1"
     inkscape:document-units="px"
     inkscape:cy="-968.68161"
     inkscape:cx="942.27946"
     inkscape:zoom="0.175"
     inkscape:pageshadow="2"
     inkscape:pageopacity="0"
     borderopacity="1"
     bordercolor="#000000"
     pagecolor="#646464"
     id="base"
     fit-margin-top="0"
     fit-margin-left="0"
     fit-margin-right="0"
     fit-margin-bottom="0" />
  <defs
     id="defs4" />
  <metadata
     id="metadata7">
    <rdf:RDF>
      <cc:Work
         rdf:about="">
        <dc:format>image/svg+xml</dc:format>
        <dc:type
           rdf:resource="http://purl.org/dc/dcmitype/StillImage" />
        <dc:title></dc:title>
      </cc:Work>
    </rdf:RDF>
  </metadata>
  <g
     inkscape:label="Layer 1"
     inkscape:groupmode="layer"
     id="layer1"
     transform="translate(135.07866,351.11627)">
    <g
       id="g5303"
       transform="translate(-499.99999,-818.57142)">
      <path
         style="opacity:1;fill:#ffffff;fill-opacity:0.50196078;stroke:none;stroke-width:2;stroke-linecap:butt;stroke-linejoin:miter;stroke-miterlimit:1;stroke-dasharray:none;stroke-dashoffset:0;stroke-opacity:1"
         d="m 373.49276,467.47274 366.83892,23.20148 c 4.74857,0.30033 8.57138,4.36497 8.57138,9.11354 l 0,254.28574 c 0,4.74857 -3.81965,7.78396 -8.57138,8.02931 l -366.83892,18.94138 c -4.75174,0.24535 -8.57143,-4.36498 -8.57143,-9.11355 l 0,-296.4286 c 0,-4.74857 3.82285,-8.32963 8.57143,-8.0293 z"
         id="rect4181"
         inkscape:connector-curvature="0"
         sodipodi:nodetypes="sssssssss" />
      <g
         transform="matrix(1.0817015,0,0,1.0817015,-88.832011,-208.39886)"
         id="g5299">
        <path
           style="color:#000000;font-style:normal;font-variant:normal;font-weight:normal;font-stretch:normal;font-size:medium;line-height:normal;font-family:sans-serif;text-indent:0;text-align:start;text-decoration:none;text-decoration-line:none;text-decoration-style:solid;text-decoration-color:#000000;letter-spacing:normal;word-spacing:normal;text-transform:none;direction:ltr;block-progression:tb;writing-mode:lr-tb;baseline-shift:baseline;text-anchor:start;white-space:normal;clip-rule:nonzero;display:inline;overflow:visible;visibility:visible;opacity:1;isolation:auto;mix-blend-mode:normal;color-interpolation:sRGB;color-interpolation-filters:linearRGB;solid-color:#000000;solid-opacity:1;fill:#555555;fill-opacity:0.75294118;fill-rule:nonzero;stroke:none;stroke-width:4;stroke-linecap:butt;stroke-linejoin:miter;stroke-miterlimit:4;stroke-dasharray:12, 12;stroke-dashoffset:0;stroke-opacity:1;color-rendering:auto;image-rendering:auto;shape-rendering:auto;text-rendering:auto;enable-background:accumulate"
           d="m 468.75927,656.27893 c -6.42484,-0.4396 -11.67053,4.0538 -11.67053,10.0414 0,0 0,206.6486 0,206.6486 0,6.022 5.26185,10.6276 11.70635,10.2893 0,0 259.49905,-13.622 259.49905,-13.622 4.7555,-0.2496 8.57803,-4.609 8.55868,-9.7381 0,0 -0.66447,-176.0832 -0.66447,-176.0832 -0.0193,-5.1041 -3.86474,-9.5027 -8.60983,-9.8274 0,0 -258.81925,-17.7086 -258.81925,-17.7086 0,0 0,0 0,0"
           id="path5205"
           inkscape:connector-curvature="0" />
        <path
           inkscape:connector-curvature="0"
           d="m 686.97493,813.64825 c 0,0 -0.032,5.5e-4 -0.032,5.5e-4 0,0 -0.032,0.003 -0.032,0.003 0,0 -0.90549,0.0885 -0.90549,0.0885 0,0 -0.0307,0.003 -0.0307,0.003 0,0 -0.032,0.005 -0.032,0.005 0,0 -0.89283,0.1352 -0.89283,0.1352 0,0 -0.0308,0.006 -0.0308,0.006 0,0 -0.0321,0.006 -0.0321,0.006 0,0 -0.87892,0.18192 -0.87892,0.18192 0,0 -0.0308,0.006 -0.0308,0.006 0,0 -0.0308,0.008 -0.0308,0.008 0,0 -0.86496,0.22611 -0.86496,0.22611 0,0 -0.0308,0.007 -0.0308,0.007 0,0 -0.0296,0.01 -0.0296,0.01 0,0 -0.84848,0.26902 -0.84848,0.26902 0,0 -0.0309,0.01 -0.0309,0.01 0,0 -0.0297,0.0109 -0.0297,0.0109 0,0 -0.83195,0.31199 -0.83195,0.31199 0,0 -0.0297,0.0109 -0.0297,0.0109 0,0 -0.0284,0.0122 -0.0284,0.0122 0,0 -0.81414,0.35369 -0.81414,0.35369 0,0 -0.0285,0.0123 -0.0285,0.0123 0,0 -0.0285,0.0135 -0.0285,0.0135 0,0 -0.79378,0.3928 -0.79378,0.3928 0,0 -0.0285,0.0149 -0.0285,0.0149 0,0 -0.0273,0.0149 -0.0273,0.0149 0,0 -0.3457,0.19298 -0.3457,0.19298 0,0 1.16575,2.35334 1.16575,2.35334 0,0 0.33039,-0.18393 0.33039,-0.18393 0,0 0.0136,-0.008 0.0136,-0.008 0,0 0.70623,-0.34899 0.70623,-0.34899 0,0 0.76258,-0.33158 0.76258,-0.33158 0,0 0.7731,-0.29114 0.7731,-0.29114 0,0 0.77253,-0.24664 0.77253,-0.24664 0,0 0.78056,-0.20627 0.78056,-0.20627 0,0 0.0136,-0.003 0.0136,-0.003 0,0 0.8292,-0.17322 0.8292,-0.17322 0,0 0.83836,-0.12777 0.83836,-0.12777 0,0 0.82658,-0.082 0.82658,-0.082 0,0 0.0811,-0.004 0.0811,-0.004 0,0 -0.071,-2.65762 -0.071,-2.65762 0,0 -0.10336,0.005 -0.10336,0.005 m 7.05009,3.73381 c 0,0 0.33084,0.13178 0.33084,0.13178 0,0 0.68827,0.31455 0.68827,0.31455 0,0 0.0134,0.007 0.0134,0.007 0,0 0.72318,0.37686 0.72318,0.37686 0,0 0.69349,0.40941 0.69349,0.40941 0,0 0.66141,0.43554 0.66141,0.43554 0,0 0.65131,0.47797 0.65131,0.47797 0,0 0.011,0.007 0.011,0.007 0,0 0.58894,0.47892 0.58894,0.47892 0,0 0.57773,0.5175 0.57773,0.5175 0,0 0.011,0.0114 0.011,0.0114 0,0 0.57994,0.5725 0.57994,0.5725 0,0 0.19085,0.20713 0.19085,0.20713 0,0 1.7869,-1.85861 1.7869,-1.85861 0,0 -0.21107,-0.23113 -0.21107,-0.23113 0,0 -0.0206,-0.0215 -0.0206,-0.0215 0,0 -0.0219,-0.0214 -0.0219,-0.0214 0,0 -0.61028,-0.60538 -0.61028,-0.60538 0,0 -0.0206,-0.0215 -0.0206,-0.0215 0,0 -0.0231,-0.0201 -0.0231,-0.0201 0,0 -0.63728,-0.57309 -0.63728,-0.57309 0,0 -0.0231,-0.0201 -0.0231,-0.0201 0,0 -0.0231,-0.0189 -0.0231,-0.0189 0,0 -0.66436,-0.54081 -0.66436,-0.54081 0,0 -0.0231,-0.0189 -0.0231,-0.0189 0,0 -0.0243,-0.0175 -0.0243,-0.0175 0,0 -0.69028,-0.50726 -0.69028,-0.50726 0,0 -0.0243,-0.0176 -0.0243,-0.0176 0,0 -0.0255,-0.0163 -0.0255,-0.0163 0,0 -0.71384,-0.47243 -0.71384,-0.47243 0,0 -0.0255,-0.0163 -0.0255,-0.0163 0,0 -0.0268,-0.0163 -0.0268,-0.0163 0,0 -0.73745,-0.43629 -0.73745,-0.43629 0,0 -0.0268,-0.015 -0.0268,-0.015 0,0 -0.0268,-0.0137 -0.0268,-0.0137 0,0 -0.75993,-0.39885 -0.75993,-0.39885 0,0 -0.0268,-0.0137 -0.0268,-0.0137 0,0 -0.028,-0.0137 -0.028,-0.0137 0,0 -0.78246,-0.36008 -0.78246,-0.36008 0,0 -0.0268,-0.0124 -0.0268,-0.0124 0,0 -0.0293,-0.0111 -0.0293,-0.0111 0,0 -0.34754,-0.13963 -0.34754,-0.13963 0,0 -0.90731,2.48083 -0.90731,2.48083 m -21.46491,4.62388 c 0,0 -0.0187,0.0253 -0.0187,0.0253 0,0 -0.0174,0.0266 -0.0174,0.0266 0,0 -0.5036,0.75554 -0.5036,0.75554 0,0 -0.0174,0.0266 -0.0174,0.0266 0,0 -0.0174,0.0266 -0.0174,0.0266 0,0 -0.46877,0.78144 -0.46877,0.78144 0,0 -0.0175,0.0279 -0.0175,0.0279 0,0 -0.0149,0.0279 -0.0149,0.0279 0,0 -0.43514,0.80604 -0.43514,0.80604 0,0 -0.0149,0.0279 -0.0149,0.0279 0,0 -0.0137,0.0292 -0.0137,0.0292 0,0 -0.39895,0.82924 -0.39895,0.82924 0,0 -0.0149,0.0292 -0.0149,0.0292 0,0 -0.0124,0.0304 -0.0124,0.0304 0,0 -0.36145,0.84974 -0.36145,0.84974 0,0 -0.0124,0.0305 -0.0124,0.0305 0,0 -0.0112,0.0304 -0.0112,0.0304 0,0 -0.3239,0.8715 -0.3239,0.8715 0,0 -0.0112,0.0318 -0.0112,0.0318 0,0 -0.01,0.0304 -0.01,0.0304 0,0 -0.28379,0.89053 -0.28379,0.89053 0,0 -0.01,0.0318 -0.01,0.0318 0,0 -0.009,0.033 -0.009,0.033 0,0 -0.24238,0.90815 -0.24238,0.90815 0,0 -0.009,0.033 -0.009,0.033 0,0 -0.007,0.0317 -0.007,0.0317 0,0 0,0.003 0,0.003 0,0 1.29279,0.27788 1.29279,0.27788 0,0 1.19697,0.32193 1.19697,0.32193 0,0 0.23173,-0.86867 0.23173,-0.86867 0,0 0.26308,-0.82597 0.26308,-0.82597 0,0 0.30555,-0.82546 0.30555,-0.82546 0,0 0.31566,-0.74812 0.31566,-0.74812 0,0 0.007,-0.0146 0.007,-0.0146 0,0 0.36054,-0.75416 0.36054,-0.75416 0,0 0.006,-0.0106 0.006,-0.0106 0,0 0.4066,-0.75755 0.4066,-0.75755 0,0 0.42279,-0.70649 0.42279,-0.70649 0,0 0.009,-0.0133 0.009,-0.0133 0,0 0.48492,-0.7285 0.48492,-0.7285 0,0 0.009,-0.0133 0.009,-0.0133 0,0 0.35557,-0.48181 0.35557,-0.48181 0,0 -2.01629,-1.61173 -2.01629,-1.61173 0,0 -0.39414,0.53514 -0.39414,0.53514 m 30.82357,5.41371 c 0,0 0.22784,0.70775 0.22784,0.70775 0,0 0.22334,0.82214 0.22334,0.82214 0,0 0.18234,0.82819 0.18234,0.82819 0,0 0.14625,0.8586 0.14625,0.8586 0,0 0.003,0.0128 0.003,0.0128 0,0 0.0978,0.79686 0.0978,0.79686 0,0 10e-4,0.0115 10e-4,0.0115 0,0 0.0681,0.91335 0.0681,0.91335 0,0 0.0234,0.87605 0.0234,0.87605 0,0 -0.0176,0.87471 -0.0176,0.87471 0,0 -0.062,0.91596 -0.062,0.91596 0,0 -0.0937,0.81806 -0.0937,0.81806 0,0 -0.002,0.0129 -0.002,0.0129 0,0 -0.14171,0.87111 -0.14171,0.87111 0,0 -0.17084,0.81565 -0.17084,0.81565 0,0 -0.004,0.013 -0.004,0.013 0,0 -0.21903,0.84313 -0.21903,0.84313 0,0 -0.25177,0.81231 -0.25177,0.81231 0,0 -0.28572,0.78927 -0.28572,0.78927 0,0 -0.1664,0.40326 -0.1664,0.40326 0,0 2.25236,1.00706 2.25236,1.00706 0,0 0.1743,-0.4211 0.1743,-0.4211 0,0 0.0131,-0.03 0.0131,-0.03 0,0 0.0107,-0.0312 0.0107,-0.0312 0,0 0.30873,-0.85468 0.30873,-0.85468 0,0 0.0107,-0.0312 0.0107,-0.0312 0,0 0.01,-0.0312 0.01,-0.0312 0,0 0.27126,-0.87363 0.27126,-0.87363 0,0 0.01,-0.0312 0.01,-0.0312 0,0 0.008,-0.0311 0.008,-0.0311 0,0 0.23144,-0.88998 0.23144,-0.88998 0,0 0.008,-0.0324 0.008,-0.0324 0,0 0.007,-0.0323 0.007,-0.0323 0,0 0.19166,-0.90511 0.19166,-0.90511 0,0 0.007,-0.0323 0.007,-0.0323 0,0 0.005,-0.0335 0.005,-0.0335 0,0 0.1495,-0.92022 0.1495,-0.92022 0,0 0.006,-0.0323 0.006,-0.0323 0,0 0.004,-0.0335 0.004,-0.0335 0,0 0.10738,-0.93283 0.10738,-0.93283 0,0 0.005,-0.0335 0.005,-0.0335 0,0 0.002,-0.0335 0.002,-0.0335 0,0 0.0629,-0.94546 0.0629,-0.94546 0,0 0.002,-0.0334 0.002,-0.0334 0,0 0.001,-0.0334 0.001,-0.0334 0,0 0.0196,-0.95689 0.0196,-0.95689 0,0 -1.22959,0.003 -1.22959,0.003 0,0 1.22937,-0.0697 1.22937,-0.0697 0,0 -0.026,-0.95552 -0.026,-0.95552 0,0 -0.001,-0.0334 -0.001,-0.0334 0,0 -0.003,-0.0333 -0.003,-0.0333 0,0 -0.0692,-0.94147 -0.0692,-0.94147 0,0 -0.003,-0.0333 -0.003,-0.0333 0,0 -0.005,-0.0332 -0.005,-0.0332 0,0 -0.11364,-0.92746 -0.11364,-0.92746 0,0 -0.004,-0.032 -0.004,-0.032 0,0 -0.006,-0.0332 -0.006,-0.0332 0,0 -0.15565,-0.91102 -0.15565,-0.91102 0,0 -0.005,-0.0319 -0.005,-0.0319 0,0 -0.007,-0.0319 -0.007,-0.0319 0,0 -0.19769,-0.89466 -0.19769,-0.89466 0,0 -0.007,-0.0306 -0.007,-0.0306 0,0 -0.009,-0.0318 -0.009,-0.0318 0,0 -0.23733,-0.87586 -0.23733,-0.87586 0,0 -0.009,-0.0319 -0.009,-0.0319 0,0 -0.01,-0.0306 -0.01,-0.0306 0,0 -0.23571,-0.73103 -0.23571,-0.73103 0,0 -2.3332,0.90325 -2.3332,0.90325 m -34.37175,10.36021 c 0,0 0.10096,0.57728 0.10096,0.57728 0,0 0.007,0.0339 0.007,0.0339 0,0 0.008,0.0326 0.008,0.0326 0,0 0.20497,0.91264 0.20497,0.91264 0,0 0.008,0.0326 0.008,0.0326 0,0 0.009,0.0325 0.009,0.0325 0,0 0.24757,0.89395 0.24757,0.89395 0,0 0.009,0.0312 0.009,0.0312 0,0 0.0101,0.0312 0.0101,0.0312 0,0 0.2889,0.87391 0.2889,0.87391 0,0 0.0101,0.0312 0.0101,0.0312 0,0 0.0114,0.0311 0.0114,0.0311 0,0 0.32891,0.85124 0.32891,0.85124 0,0 0.0114,0.0311 0.0114,0.0311 0,0 0.0126,0.0297 0.0126,0.0297 0,0 0.36637,0.8286 0.36637,0.8286 0,0 0.0126,0.0297 0.0126,0.0297 0,0 0.0151,0.0284 0.0151,0.0284 0,0 0.40375,0.8046 0.40375,0.8046 0,0 0.0139,0.0297 0.0139,0.0297 0,0 0.0151,0.027 0.0151,0.027 0,0 0.43984,0.78061 0.43984,0.78061 0,0 0.0151,0.027 0.0151,0.027 0,0 0.0177,0.0269 0.0177,0.0269 0,0 0.47335,0.75274 0.47335,0.75274 0,0 0.0176,0.0269 0.0176,0.0269 0,0 0.0176,0.0256 0.0176,0.0256 0,0 0.0302,0.0435 0.0302,0.0435 0,0 1.92375,-1.50545 1.92375,-1.50545 0,0 0.16337,-0.11581 0.16337,-0.11581 0,0 -0.005,-0.008 -0.005,-0.008 0,0 0.001,-10e-4 0.001,-10e-4 0,0 -0.02,-0.0281 -0.02,-0.0281 0,0 -0.01,-0.0153 -0.01,-0.0153 0,0 -0.4345,-0.69456 -0.4345,-0.69456 0,0 -0.004,-0.007 -0.004,-0.007 0,0 -0.39975,-0.71317 -0.39975,-0.71317 0,0 -0.006,-0.0116 -0.006,-0.0116 0,0 -0.36496,-0.73434 -0.36496,-0.73434 0,0 -0.008,-0.0142 -0.008,-0.0142 0,0 -0.32128,-0.72826 -0.32128,-0.72826 0,0 -0.29771,-0.77126 -0.29771,-0.77126 0,0 -0.005,-0.0143 -0.005,-0.0143 0,0 -0.2742,-0.8326 -0.2742,-0.8326 0,0 -0.22663,-0.81997 -0.22663,-0.81997 0,0 -0.19295,-0.85795 -0.19295,-0.85795 0,0 -0.0943,-0.5373 -0.0943,-0.5373 0,0 -2.52866,0.55232 -2.52866,0.55232 m 29.49122,9.02017 c 0,0 -0.0145,0.0122 -0.0145,0.0122 0,0 -0.62708,0.55043 -0.62708,0.55043 0,0 -0.63259,0.50326 -0.63259,0.50326 0,0 -0.65872,0.47493 -0.65872,0.47493 0,0 -0.691,0.45069 -0.691,0.45069 0,0 -0.70024,0.40873 -0.70024,0.40873 0,0 -0.74117,0.38478 -0.74117,0.38478 0,0 -0.74687,0.34132 -0.74687,0.34132 0,0 -0.74769,0.2976 -0.74769,0.2976 0,0 -0.0378,0.0132 -0.0378,0.0132 0,0 0.69202,2.5231 0.69202,2.5231 0,0 0.0646,-0.0221 0.0646,-0.0221 0,0 0.0293,-0.009 0.0293,-0.009 0,0 0.0293,-0.0129 0.0293,-0.0129 0,0 0.8201,-0.32749 0.8201,-0.32749 0,0 0.0292,-0.0115 0.0292,-0.0115 0,0 0.0292,-0.0141 0.0292,-0.0141 0,0 0.79959,-0.36772 0.79959,-0.36772 0,0 0.0292,-0.0128 0.0292,-0.0128 0,0 0.0268,-0.014 0.0268,-0.014 0,0 0.78037,-0.40795 0.78037,-0.40795 0,0 0.0279,-0.014 0.0279,-0.014 0,0 0.0267,-0.0153 0.0267,-0.0153 0,0 0.75757,-0.44411 0.75757,-0.44411 0,0 0.0267,-0.0153 0.0267,-0.0153 0,0 0.0267,-0.0179 0.0267,-0.0179 0,0 0.73484,-0.47894 0.73484,-0.47894 0,0 0.0267,-0.0179 0.0267,-0.0179 0,0 0.0254,-0.0178 0.0254,-0.0178 0,0 0.71095,-0.51499 0.71095,-0.51499 0,0 0.0254,-0.0178 0.0254,-0.0178 0,0 0.0242,-0.019 0.0242,-0.019 0,0 0.68714,-0.54843 0.68714,-0.54843 0,0 0.0242,-0.019 0.0242,-0.019 0,0 0.023,-0.0203 0.023,-0.0203 0,0 0.66097,-0.58047 0.66097,-0.58047 0,0 0.0229,-0.0202 0.0229,-0.0202 0,0 0.0229,-0.0215 0.0229,-0.0215 0,0 0.43456,-0.41913 0.43456,-0.41913 0,0 -1.63135,-1.93441 -1.63135,-1.93441 0,0 -0.38966,0.37583 -0.38966,0.37583 m -20.51392,4.47914 c 0,0 0.0822,0.0516 0.0822,0.0516 0,0 0.0262,0.016 0.0262,0.016 0,0 0.0262,0.0159 0.0262,0.0159 0,0 0.7547,0.4244 0.7547,0.4244 0,0 0.0274,0.0159 0.0274,0.0159 0,0 0.0274,0.0133 0.0274,0.0133 0,0 0.77746,0.38649 0.77746,0.38649 0,0 0.0274,0.0133 0.0274,0.0133 0,0 0.0274,0.0119 0.0274,0.0119 0,0 0.79765,0.34611 0.79765,0.34611 0,0 0.0285,0.0132 0.0285,0.0132 0,0 0.0285,0.0106 0.0285,0.0106 0,0 0.81653,0.30451 0.81653,0.30451 0,0 0.0285,0.0119 0.0285,0.0119 0,0 0.0298,0.009 0.0298,0.009 0,0 0.83412,0.26173 0.83412,0.26173 0,0 0.0297,0.0105 0.0297,0.0105 0,0 0.0309,0.007 0.0309,0.007 0,0 0.85042,0.22035 0.85042,0.22035 0,0 0.0297,0.008 0.0297,0.008 0,0 0.0309,0.005 0.0309,0.005 0,0 0.86665,0.17513 0.86665,0.17513 0,0 0.0309,0.007 0.0309,0.007 0,0 0.0309,0.004 0.0309,0.004 0,0 0.88035,0.13008 0.88035,0.13008 0,0 0.0321,0.004 0.0321,0.004 0,0 0.0308,0.003 0.0308,0.003 0,0 0.47239,0.0441 0.47239,0.0441 0,0 0.30978,-2.65591 0.30978,-2.65591 0,0 -0.4463,-0.0407 -0.4463,-0.0407 0,0 -0.80581,-0.12138 -0.80581,-0.12138 0,0 -0.79684,-0.16094 -0.79684,-0.16094 0,0 -0.79649,-0.20675 -0.79649,-0.20675 0,0 -0.77508,-0.24431 -0.77508,-0.24431 0,0 -0.73255,-0.27362 -0.73255,-0.27362 0,0 -0.0112,-0.005 -0.0112,-0.005 0,0 -0.76312,-0.33271 -0.76312,-0.33271 0,0 -0.72668,-0.36316 -0.72668,-0.36316 0,0 -0.0149,-0.007 -0.0149,-0.007 0,0 -0.68019,-0.3862 -0.68019,-0.3862 0,0 -0.0485,-0.0308 -0.0485,-0.0308 0,0 -1.36785,2.30533 -1.36785,2.30533 m -43.94871,-76.22188 c 0.007,2.93712 -1.12814,5.75157 -3.15961,7.82794 -2.03642,2.08143 -4.81013,3.25433 -7.7147,3.25673 -2.91439,0.002 -5.72126,-1.17365 -7.79919,-3.27331 -2.0828,-2.10459 -3.25855,-4.9604 -3.26478,-7.93517 -0.013,-6.19385 4.9356,-11.15414 11.01399,-11.08052 6.0358,0.0731 10.90968,5.08883 10.92429,11.20433 0,0 0,0 0,0 m -79.37689,-39.53338 c 0.008,6.39316 -5.30734,11.46488 -11.91683,11.32608 -6.6583,-0.13983 -12.09734,-5.50691 -12.10378,-11.98575 -0.003,-3.11085 1.27527,-6.05455 3.5493,-8.17945 2.26819,-2.11945 5.33717,-3.2468 8.52751,-3.13857 3.1791,0.10785 6.219,1.43393 8.45545,3.68255 2.23102,2.24318 3.4843,5.22543 3.48835,8.29514 0,0 0,0 0,0 m 103.50031,-24.09567 c 0,0 1.13355,0.0492 1.13355,0.0492 0,0 1.76179,7.33523 1.76179,7.33523 0,0 1.71266,-7.18436 1.71266,-7.18436 0,0 1.25437,0.0545 1.25437,0.0545 0,0 1.75246,7.3145 1.75246,7.3145 0,0 1.70256,-7.16447 1.70256,-7.16447 0,0 1.12656,0.0489 1.12656,0.0489 0,0 -2.03769,8.47099 -2.03769,8.47099 0,0 -1.39963,-0.0536 -1.39963,-0.0536 0,0 -1.75977,-7.51161 -1.75977,-7.51161 0,0 -1.73845,7.37753 -1.73845,7.37753 0,0 -1.40782,-0.0539 -1.40782,-0.0539 0,0 -2.10059,-8.68283 -2.10059,-8.68283 0,0 0,0 0,0 m 60.29395,2.61816 c 0,0 4.86601,0.2113 4.86601,0.2113 0,0 0.003,0.94172 0.003,0.94172 0,0 -3.82235,-0.16376 -3.82235,-0.16376 0,0 0.009,2.45435 0.009,2.45435 0,0 3.66312,0.15141 3.66312,0.15141 0,0 0.003,0.9419 0.003,0.9419 0,0 -3.66316,-0.14928 -3.66316,-0.14928 0,0 0.0107,3.00437 0.0107,3.00437 0,0 3.91514,0.15233 3.91514,0.15233 0,0 0.003,0.94186 0.003,0.94186 0,0 -4.95898,-0.19006 -4.95898,-0.19006 0,0 -0.0293,-8.29614 -0.0293,-8.29614 0,0 0,0 0,0 m -24.053,29.91007 c 0,0 0.004,1.11172 0.004,1.11172 -0.40914,-0.21678 -0.79521,-0.38041 -1.15818,-0.49085 -0.36313,-0.11048 -0.71379,-0.16986 -1.05198,-0.17811 -0.58771,-0.0143 -1.04175,0.0952 -1.36191,0.32872 -0.31672,0.23368 -0.47442,0.57307 -0.47302,1.0181 10e-4,0.37338 0.10734,0.65869 0.31844,0.85587 0.2146,0.19345 0.61799,0.35535 1.20987,0.48566 0,0 0.65205,0.15607 0.65205,0.15607 0.80453,0.18012 1.39727,0.4795 1.7787,0.89815 0.3848,0.41478 0.57823,0.9644 0.58043,1.64901 0.003,0.81627 -0.25453,1.42982 -0.77171,1.84082 -0.51395,0.41133 -1.27083,0.60727 -2.27128,0.58762 -0.37771,-0.007 -0.7807,-0.0606 -1.209,-0.15952 -0.42495,-0.0989 -0.86632,-0.24161 -1.32415,-0.42809 0,0 -0.004,-1.17763 -0.004,-1.17763 0.44022,0.26945 0.87109,0.47445 1.29261,0.61505 0.42131,0.14052 0.83507,0.21486 1.24129,0.22307 0.61607,0.0124 1.09076,-0.106 1.4243,-0.35526 0.33341,-0.24917 0.49931,-0.61086 0.49779,-1.08515 -10e-4,-0.41406 -0.1232,-0.74038 -0.3657,-0.97901 -0.239,-0.23863 -0.63266,-0.42234 -1.1812,-0.55116 0,0 -0.65763,-0.15015 -0.65763,-0.15015 -0.80628,-0.18749 -1.39052,-0.46637 -1.75226,-0.83664 -0.36189,-0.37042 -0.5439,-0.87837 -0.54592,-1.52373 -0.002,-0.74724 0.24411,-1.32994 0.73914,-1.74791 0.49829,-0.41762 1.18413,-0.61544 2.05706,-0.59367 0.37383,0.009 0.75472,0.0546 1.14266,0.13579 0.38777,0.0812 0.78434,0.19824 1.18972,0.35123 0,0 0,0 0,0 m -5.61781,-60.93367 c 0,0 1.45607,0.0894 1.45607,0.0894 0,0 3.55567,7.2561 3.55567,7.2561 0,0 -0.0225,-7.03929 -0.0225,-7.03929 0,0 1.04318,0.064 1.04318,0.064 0,0 0.027,8.40931 0.027,8.40931 0,0 -1.44817,-0.0815 -1.44817,-0.0815 0,0 -3.55744,-7.25526 -3.55744,-7.25526 0,0 0.0222,7.05632 0.0222,7.05632 0,0 -1.04959,-0.0591 -1.04959,-0.0591 0,0 -0.0264,-8.43999 -0.0264,-8.43999 0,0 0,0 0,0 m 3.59179,11.76901 c 0.025,10e-4 -3.39427,19.01484 -3.37646,18.99693 0.0178,-0.0179 -18.40713,2.71608 -18.40707,2.68925 5e-5,-0.0268 18.41269,4.40473 18.39495,4.38518 -0.0177,-0.0196 3.33838,19.32377 3.31332,19.32296 -0.0251,-8.1e-4 3.38108,-19.04752 3.36341,-19.02961 -0.0177,0.0179 17.86178,-2.72667 17.86174,-2.70052 -3e-5,0.0262 -17.86805,-4.36498 -17.85044,-4.34544 0.0176,0.0196 -3.32449,-19.32025 -3.29945,-19.31875 0,0 0,0 0,0 m -0.0564,3.3664 c -0.035,-0.002 -0.008,15.53492 -0.008,15.53492 0.0177,-0.0311 -2.6677,-0.12232 -2.65041,-0.0893 0.0173,0.033 2.65834,-15.44564 2.65834,-15.44564 0,0 0,1e-5 0,1e-5 m 3.52693,16.65104 c -0.0302,0.017 14.55047,3.35384 14.55047,3.35384 6e-5,-0.0366 -14.50258,-0.55923 -14.50258,-0.55923 0.0302,0.0198 -0.0177,-2.81159 -0.0479,-2.7946 0,0 0,-10e-6 0,-10e-6 m -6.93629,2.54285 c -0.0304,-0.0199 0.0176,2.82367 0.048,2.8065 0.0304,-0.0172 -14.93588,-3.38044 -14.93588,-3.38044 -9e-5,0.0374 14.88789,0.57392 14.88789,0.57392 0,0 0,2e-5 0,2e-5 m 6.09903,3.90804 c -0.0172,-0.0328 -2.64999,15.46989 -2.64999,15.46989 0.035,10e-4 0.008,-15.54563 0.008,-15.54563 -0.0177,0.0312 2.65925,0.10877 2.64206,0.0757 0,0 0,2e-5 0,2e-5 m -2.72594,-21.12114 c -0.0131,-6.7e-4 -0.0259,0 -0.039,-6.7e-4 -0.002,0.2888 -0.002,0.88228 -0.003,1.32053 0.0155,7.3e-4 0.0308,2.3e-4 0.0463,10e-4 8.1494,0.41029 14.73725,7.53441 15.049,16.05754 0.40416,0.0926 0.9682,0.22148 1.23142,0.28176 -0.20343,-9.32698 -7.39408,-17.20546 -16.28462,-17.66017 0,0 0,0 0,0 m -0.366,-0.01 c -8.93025,-0.24866 -16.1714,7.14298 -16.14322,16.67887 8e-5,0.028 0.003,0.0556 0.003,0.0835 0.27245,0.0124 0.85603,0.0347 1.27353,0.0517 -2.3e-4,-0.028 -0.003,-0.0555 -0.003,-0.0835 -0.0259,-8.7261 6.50318,-15.49248 14.64445,-15.41459 0.0747,-0.43719 0.17606,-1.02797 0.22525,-1.31606 0,0 0,0 0,0 m 15.43428,17.95258 c 2e-5,0.003 3e-5,0.007 4e-5,0.0102 0.0291,8.61953 -6.38828,15.41967 -14.50844,15.42077 -0.0745,0.4379 -0.17606,1.0314 -0.2251,1.31993 8.89713,0.14121 15.99133,-7.28997 15.95938,-16.69085 -10e-6,-0.003 -2e-5,-0.007 -3e-5,-0.0102 -0.26179,-0.012 -0.82369,-0.0334 -1.22585,-0.0498 0,0 0,0 0,0 m -31.5663,-0.851 c 0.24236,9.44552 7.58519,17.26927 16.50702,17.59597 0.002,-0.28904 0.002,-0.88334 0.003,-1.32191 -8.16714,-0.30547 -14.87546,-7.37277 -15.2297,-15.98532 -0.42,-0.0945 -1.00639,-0.22712 -1.28044,-0.28874 0,0 1e-5,0 1e-5,0 m 16.52254,-13.59677 c -2.9e-4,0.30002 -10e-4,0.34567 -0.002,0.6603 3.25041,0.16072 6.48248,1.7352 8.7722,4.26682 2.04663,2.26281 3.32516,5.28225 3.58041,8.34561 0.30197,0.0693 0.34309,0.0791 0.63117,0.14514 -0.23189,-3.27973 -1.58427,-6.5102 -3.77628,-8.93497 -2.40831,-2.66405 -5.78621,-4.31137 -9.20594,-4.48291 0,0 9e-5,10e-6 9e-5,10e-6 m -0.91283,-0.007 c -3.1281,0.082 -6.16887,1.38026 -8.39782,3.6277 -2.44977,2.47008 -3.86795,6.03041 -3.85696,9.68926 10e-5,0.0334 0.003,0.0669 0.003,0.10026 0.28668,0.011 0.33549,0.0143 0.63691,0.0259 -3.5e-4,-0.0334 -0.005,-0.0669 -0.005,-0.10033 -0.0105,-3.47484 1.34451,-6.87815 3.67043,-9.22471 2.07808,-2.09653 4.91709,-3.32578 7.83481,-3.44612 0.0549,-0.32069 0.0628,-0.3662 0.1151,-0.67193 0,0 6e-5,10e-6 6e-5,10e-6 m 13.31919,14.36578 c 0.009,3.42008 -1.30633,6.7815 -3.57453,9.12255 -2.03728,2.10272 -4.83696,3.36495 -7.73509,3.53314 -0.0549,0.32212 -0.0625,0.3661 -0.11485,0.67356 3.10745,-0.13601 6.105,-1.47191 8.28839,-3.72672 2.38616,-2.46418 3.76099,-5.9789 3.75121,-9.57752 -0.28037,-0.0108 -0.32134,-0.0137 -0.61513,-0.025 0,0 0,0 0,0 m -25.52618,0.008 c 0.25553,3.30181 1.64118,6.53771 3.86931,8.95124 2.45623,2.66061 5.87819,4.26635 9.31417,4.38044 3e-4,-0.30109 10e-4,-0.34541 0.002,-0.66085 -3.26512,-0.10871 -6.53743,-1.64527 -8.87058,-4.17386 -2.07642,-2.25033 -3.3886,-5.27074 -3.6673,-8.35015 -0.30689,-0.0691 -0.35521,-0.0811 -0.64716,-0.14682 0,0 -9e-5,0 -9e-5,0 m 16.74412,106.45152 c 0,0 -6.15527,8.98248 -6.15527,8.98248 0,0 6.53297,9.09422 6.53297,9.09422 0,0 -3.30652,0.11587 -3.30652,0.11587 0,0 -5.01464,-6.96645 -5.01464,-6.96645 0,0 -5.00039,7.31742 -5.00039,7.31742 0,0 -3.36019,0.11775 -3.36019,0.11775 0,0 6.69281,-9.75585 6.69281,-9.75585 0,0 -6.17389,-8.52533 -6.17389,-8.52533 0,0 3.35717,-0.0808 3.35717,-0.0808 0,0 4.59314,6.36337 4.59314,6.36337 0,0 4.52769,-6.58301 4.52769,-6.58301 0,0 3.30712,-0.0796 3.30712,-0.0796 0,0 0,0 0,0 M 492.38693,681.88911 c 0,0 -0.32032,-0.006 -0.32032,-0.006 0,0 0.11943,2.96405 0.11943,2.96405 0,0 0.31569,0.007 0.31569,0.007 0,0 0.005,2.5e-4 0.005,2.5e-4 0,0 2.88837,0.16301 2.88837,0.16301 0,0 2.99821,0.29407 2.99821,0.29407 0,0 0.0122,0.002 0.0122,0.002 0,0 1.55629,0.20609 1.55629,0.20609 0,0 1.35032,0.21208 1.35032,0.21208 0,0 0.33512,-2.91 0.33512,-2.91 0,0 -1.38929,-0.22066 -1.38929,-0.22066 0,0 -0.0198,-0.003 -0.0198,-0.003 0,0 -0.0198,-0.003 -0.0198,-0.003 0,0 -1.56949,-0.2107 -1.56949,-0.2107 0,0 -0.0274,-0.004 -0.0274,-0.004 0,0 -0.0274,-0.002 -0.0274,-0.002 0,0 -3.08449,-0.30794 -3.08449,-0.30794 0,0 -0.0351,-0.003 -0.0351,-0.003 0,0 -0.0336,-0.003 -0.0336,-0.003 0,0 -2.98923,-0.17322 -2.98923,-0.17322 0,0 -0.0322,-0.002 -0.0322,-0.002 0,0 -0.0322,-1.2e-4 -0.0322,-1.2e-4 m -10.65083,0.28129 c 0,0 -0.0217,0.002 -0.0217,0.002 0,0 -0.0217,0.002 -0.0217,0.002 0,0 -2.12445,0.21641 -2.12445,0.21641 0,0 -0.0202,0.003 -0.0202,0.003 0,0 -0.0202,0.002 -0.0202,0.002 0,0 -1.87093,0.23686 -1.87093,0.23686 0,0 -0.0187,0.002 -0.0187,0.002 0,0 -0.0187,0.003 -0.0187,0.003 0,0 -1.58933,0.23831 -1.58933,0.23831 0,0 -0.0249,0.003 -0.0249,0.003 0,0 -0.0218,0.005 -0.0218,0.005 0,0 -2.23286,0.39958 -2.23286,0.39958 0,0 -0.0266,0.005 -0.0266,0.005 0,0 -0.0266,0.006 -0.0266,0.006 0,0 -0.78985,0.16899 -0.78985,0.16899 0,0 0.88122,2.92221 0.88122,2.92221 0,0 0.76883,-0.16539 0.76883,-0.16539 0,0 0.0219,-0.005 0.0219,-0.005 0,0 2.13123,-0.38488 2.13123,-0.38488 0,0 0.0249,-0.003 0.0249,-0.003 0,0 0.0218,-0.005 0.0218,-0.005 0,0 1.50726,-0.22757 1.50726,-0.22757 0,0 0.002,8e-5 0.002,8e-5 0,0 0.0342,-0.006 0.0342,-0.006 0,0 1.834,-0.23439 1.834,-0.23439 0,0 2.07521,-0.21503 2.07521,-0.21503 0,0 0.008,-10e-4 0.008,-10e-4 0,0 0.70155,-0.0526 0.70155,-0.0526 0,0 -0.43769,-2.97168 -0.43769,-2.97168 0,0 -0.74532,0.0559 -0.74532,0.0559 m 28.38144,5.74561 c 0,0 0.71545,0.24094 0.71545,0.24094 0,0 0.018,0.007 0.018,0.007 0,0 1.53425,0.57403 1.53425,0.57403 0,0 0.009,0.003 0.009,0.003 0,0 1.47633,0.6102 1.47633,0.6102 0,0 0.012,0.005 0.012,0.005 0,0 1.54428,0.70422 1.54428,0.70422 0,0 0.0135,0.007 0.0135,0.007 0,0 1.47307,0.73945 1.47307,0.73945 0,0 1.41712,0.77973 1.41712,0.77973 0,0 1.4092,-2.51312 1.4092,-2.51312 0,0 -1.44471,-0.79827 -1.44471,-0.79827 0,0 -0.0283,-0.0157 -0.0283,-0.0157 0,0 -0.0283,-0.0143 -0.0283,-0.0143 0,0 -1.55151,-0.78088 -1.55151,-0.78088 0,0 -0.0284,-0.0129 -0.0284,-0.0129 0,0 -0.0269,-0.0128 -0.0269,-0.0128 0,0 -1.56911,-0.71735 -1.56911,-0.71735 0,0 -0.027,-0.0128 -0.027,-0.0128 0,0 -0.0269,-0.0115 -0.0269,-0.0115 0,0 -1.58231,-0.6563 -1.58231,-0.6563 0,0 -0.027,-0.0115 -0.027,-0.0115 0,0 -0.027,-0.01 -0.027,-0.01 0,0 -1.59257,-0.5978 -1.59257,-0.5978 0,0 -0.0255,-0.01 -0.0255,-0.01 0,0 -0.0255,-0.009 -0.0255,-0.009 0,0 -0.73275,-0.24858 -0.73275,-0.24858 0,0 -0.87837,2.76219 -0.87837,2.76219 m 15.31171,8.82666 c 0,0 1.26579,1.20066 1.26579,1.20066 0,0 1.23319,1.27841 1.23319,1.27841 0,0 0.0133,0.0148 0.0133,0.0148 0,0 1.23461,1.40581 1.23461,1.40581 0,0 1.18011,1.4752 1.18011,1.4752 0,0 0.87135,1.20053 0.87135,1.20053 0,0 2.4339,-1.58739 2.4339,-1.58739 0,0 -0.88372,-1.22011 -0.88372,-1.22011 0,0 -0.022,-0.0293 -0.022,-0.0293 0,0 -0.022,-0.0279 -0.022,-0.0279 0,0 -1.22556,-1.53601 -1.22556,-1.53601 0,0 -0.0221,-0.0279 -0.0221,-0.0279 0,0 -0.025,-0.0281 -0.025,-0.0281 0,0 -1.2698,-1.44951 -1.2698,-1.44951 0,0 -0.0235,-0.028 -0.0235,-0.028 0,0 -0.0265,-0.0254 -0.0265,-0.0254 0,0 -1.31275,-1.36711 -1.31275,-1.36711 0,0 -0.0251,-0.0267 -0.0251,-0.0267 0,0 -0.0266,-0.0239 -0.0266,-0.0239 0,0 -1.28061,-1.21709 -1.28061,-1.21709 0,0 -2.06707,2.01908 -2.06707,2.01908 m 10.08758,14.0805 c 0,0 0.0395,0.0821 0.0395,0.0821 0,0 0.006,0.013 0.006,0.013 0,0 0.85427,2.00743 0.85427,2.00743 0,0 0.82306,2.1823 0.82306,2.1823 0,0 0.002,0.003 0.002,0.003 0,0 0.72757,2.19809 0.72757,2.19809 0,0 0.006,0.02 0.006,0.02 0,0 0.44499,1.55001 0.44499,1.55001 0,0 2.86957,-0.67154 2.86957,-0.67154 0,0 -0.44948,-1.56764 -0.44948,-1.56764 0,0 -0.007,-0.027 -0.007,-0.027 0,0 -0.009,-0.0285 -0.009,-0.0285 0,0 -0.76331,-2.30908 -0.76331,-2.30908 0,0 -0.009,-0.0285 -0.009,-0.0285 0,0 -0.0102,-0.0286 -0.0102,-0.0286 0,0 -0.8308,-2.20225 -0.8308,-2.20225 0,0 -0.0103,-0.03 -0.0103,-0.03 0,0 -0.0132,-0.0287 -0.0132,-0.0287 0,0 -0.89411,-2.101 -0.89411,-2.101 0,0 -0.0132,-0.0302 -0.0132,-0.0302 0,0 -0.0132,-0.0288 -0.0132,-0.0288 0,0 -0.0453,-0.095 -0.0453,-0.095 0,0 -2.70451,1.121 -2.70451,1.121 m 4.69909,16.43864 c 0,0 0.0337,0.19701 0.0337,0.19701 0,0 0.003,0.0212 0.003,0.0212 0,0 0.38001,2.85622 0.38001,2.85622 0,0 0.28979,2.90905 0.28979,2.90905 0,0 10e-6,0.003 10e-6,0.003 0,0 0.17006,2.51475 0.17006,2.51475 0,0 2.96679,-0.10525 2.96679,-0.10525 0,0 -0.16962,-2.51343 -0.16962,-2.51343 0,0 -10e-4,-0.0211 -10e-4,-0.0211 0,0 -0.003,-0.0226 -0.003,-0.0226 0,0 -0.29777,-2.99601 -0.29777,-2.99601 0,0 -0.002,-0.0225 -0.002,-0.0225 0,0 -0.003,-0.024 -0.003,-0.024 0,0 -0.38327,-2.87283 -0.38327,-2.87283 0,0 -0.003,-0.0254 -0.003,-0.0254 0,0 -0.004,-0.0241 -0.004,-0.0241 0,0 -0.0409,-0.24478 -0.0409,-0.24478 0,0 -2.93529,0.37084 -2.93529,0.37084 m 1.26577,17.1612 c 0,0 0.10642,1.55824 0.10642,1.55824 0,0 0.002,0.0226 0.002,0.0226 0,0 0.002,0.0225 0.002,0.0225 0,0 0.3013,2.97696 0.3013,2.97696 0,0 0.003,0.024 0.003,0.024 0,0 0.003,0.024 0.003,0.024 0,0 0.38677,2.84531 0.38677,2.84531 0,0 0.003,0.0254 0.003,0.0254 0,0 0.004,0.024 0.004,0.024 0,0 0.2149,1.2409 0.2149,1.2409 0,0 2.92778,-0.42425 2.92778,-0.42425 0,0 -0.20551,-1.18671 -0.20551,-1.18671 0,0 0,-10e-4 0,-10e-4 0,0 -0.37976,-2.79135 -0.37976,-2.79135 0,0 -10e-4,-0.0197 -10e-4,-0.0197 0,0 -0.29896,-2.95237 -0.29896,-2.95237 0,0 -0.10319,-1.5092 -0.10319,-1.5092 0,0 -2.96476,0.12099 -2.96476,0.12099 m 3.06476,17.38393 c 0,0 0.1222,0.41398 0.1222,0.41398 0,0 0.009,0.0297 0.009,0.0297 0,0 0.0102,0.0297 0.0102,0.0297 0,0 0.76723,2.22278 0.76723,2.22278 0,0 0.0102,0.0297 0.0102,0.0297 0,0 0.0116,0.0297 0.0116,0.0297 0,0 0.83445,2.10632 0.83445,2.10632 0,0 0.0116,0.0311 0.0116,0.0311 0,0 0.0145,0.0297 0.0145,0.0297 0,0 0.89714,1.99253 0.89714,1.99253 0,0 0.0131,0.0311 0.0131,0.0311 0,0 0.0159,0.0311 0.0159,0.0311 0,0 0.67026,1.31708 0.67026,1.31708 0,0 2.64359,-1.25686 2.64359,-1.25686 0,0 -0.65966,-1.29864 -0.65966,-1.29864 0,0 -0.009,-0.0169 -0.009,-0.0169 0,0 -0.85261,-1.89978 -0.85261,-1.89978 0,0 -0.80736,-2.04423 -0.80736,-2.04423 0,0 -0.74175,-2.1519 -0.74175,-2.1519 0,0 -0.11601,-0.38939 -0.11601,-0.38939 0,0 -2.84459,0.76345 -2.84459,0.76345 m 103.53205,4.42018 c 0,0 -0.0296,10e-4 -0.0296,10e-4 0,0 -0.0283,10e-4 -0.0283,10e-4 0,0 -1.66201,0.0829 -1.66201,0.0829 0,0 -0.0271,10e-4 -0.0271,10e-4 0,0 -0.0284,0.002 -0.0284,0.002 0,0 -0.32504,0.031 -0.32504,0.031 0,0 0.2727,2.71015 0.2727,2.71015 0,0 0.31205,-0.0303 0.31205,-0.0303 0,0 0.0142,-10e-4 0.0142,-10e-4 0,0 1.56641,-0.0798 1.56641,-0.0798 0,0 1.61639,-0.009 1.61639,-0.009 0,0 1.56736,0.0702 1.56736,0.0702 0,0 1.56595,0.14949 1.56595,0.14949 0,0 0.91505,0.14066 0.91505,0.14066 0,0 0.35335,-2.67949 0.35335,-2.67949 0,0 -0.94662,-0.14507 -0.94662,-0.14507 0,0 -0.0358,-0.006 -0.0358,-0.006 0,0 -0.0345,-0.003 -0.0345,-0.003 0,0 -1.63468,-0.16064 -1.63468,-0.16064 0,0 -0.0334,-0.003 -0.0334,-0.003 0,0 -0.0334,-0.002 -0.0334,-0.002 0,0 -1.64672,-0.0749 -1.64672,-0.0749 0,0 -0.0309,-0.002 -0.0309,-0.002 0,0 -0.0321,-3.5e-4 -0.0321,-3.5e-4 0,0 -1.65498,0.006 -1.65498,0.006 m -10.255,1.53828 c 0,0 -0.0195,0.005 -0.0195,0.005 0,0 -0.0182,0.005 -0.0182,0.005 0,0 -1.6369,0.45414 -1.6369,0.45414 0,0 -0.017,0.005 -0.017,0.005 0,0 -0.0182,0.007 -0.0182,0.007 0,0 -1.6217,0.50069 -1.6217,0.50069 0,0 -0.017,0.005 -0.017,0.005 0,0 -0.017,0.005 -0.017,0.005 0,0 -1.6038,0.5447 -1.6038,0.5447 0,0 -0.0157,0.005 -0.0157,0.005 0,0 -0.0157,0.005 -0.0157,0.005 0,0 -1.58318,0.58214 -1.58318,0.58214 0,0 -0.0144,0.005 -0.0144,0.005 0,0 -0.0144,0.005 -0.0144,0.005 0,0 -1.0343,0.40812 -1.0343,0.40812 0,0 0.99401,2.56163 0.99401,2.56163 0,0 1.003,-0.39762 1.003,-0.39762 0,0 0.004,-10e-4 0.004,-10e-4 0,0 0.0262,-0.0105 0.0262,-0.0105 0,0 1.55268,-0.5724 1.55268,-0.5724 0,0 1.5369,-0.52332 1.5369,-0.52332 0,0 1.58504,-0.49391 1.58504,-0.49391 0,0 0.0169,-0.005 0.0169,-0.005 0,0 0.0183,-0.005 0.0183,-0.005 0,0 1.56003,-0.43576 1.56003,-0.43576 0,0 0.0195,-0.005 0.0195,-0.005 0,0 0.0195,-0.005 0.0195,-0.005 0,0 0.10018,-0.0245 0.10018,-0.0245 0,0 -0.64977,-2.6579 -0.64977,-2.6579 0,0 -0.13953,0.0325 -0.13953,0.0325 m 23.0877,3.74284 c 0,0 0.95806,0.48138 0.95806,0.48138 0,0 1.38793,0.81674 1.38793,0.81674 0,0 1.39239,0.95476 1.39239,0.95476 0,0 1.33495,1.05663 1.33495,1.05663 0,0 1.08978,0.98415 1.08978,0.98415 0,0 1.67925,-2.0219 1.67925,-2.0219 0,0 -1.12164,-1.01613 -1.12164,-1.01613 0,0 -0.0328,-0.0304 -0.0328,-0.0304 0,0 -0.0353,-0.0265 -0.0353,-0.0265 0,0 -1.40819,-1.11561 -1.40819,-1.11561 0,0 -0.0354,-0.0278 -0.0354,-0.0278 0,0 -0.0366,-0.0252 -0.0366,-0.0252 0,0 -1.44436,-0.99298 -1.44436,-0.99298 0,0 -0.0367,-0.0253 -0.0367,-0.0253 0,0 -0.0379,-0.0227 -0.0379,-0.0227 0,0 -1.47821,-0.87402 -1.47821,-0.87402 0,0 -0.038,-0.0227 -0.038,-0.0227 0,0 -0.0392,-0.0187 -0.0392,-0.0187 0,0 -0.98844,-0.49848 -0.98844,-0.49848 0,0 -1.10963,2.4248 -1.10963,2.4248 m -40.0817,3.21063 c 0,0 -0.0173,0.009 -0.0173,0.009 0,0 -0.0186,0.0107 -0.0186,0.0107 0,0 -2.56848,1.44513 -2.56848,1.44513 0,0 -0.0159,0.009 -0.0159,0.009 0,0 -0.0159,0.009 -0.0159,0.009 0,0 -2.36117,1.41526 -2.36117,1.41526 0,0 -0.0147,0.009 -0.0147,0.009 0,0 -0.0147,0.008 -0.0147,0.008 0,0 -0.32982,0.2097 -0.32982,0.2097 0,0 1.46291,2.34836 1.46291,2.34836 0,0 0.30127,-0.19113 0.30127,-0.19113 0,0 0.008,-0.004 0.008,-0.004 0,0 0.02,-0.0134 0.02,-0.0134 0,0 2.29749,-1.38254 2.29749,-1.38254 0,0 0.0106,-0.007 0.0106,-0.007 0,0 0.0212,-0.0121 0.0212,-0.0121 0,0 2.49688,-1.40887 2.49688,-1.40887 0,0 0.004,-10e-4 0.004,-10e-4 0,0 1.84718,-0.97058 1.84718,-0.97058 0,0 -1.25916,-2.45252 -1.25916,-2.45252 0,0 -1.8539,0.9688 -1.8539,0.9688 m -67.85055,2.91736 c 0,0 1.03176,1.15982 1.03176,1.15982 0,0 0.0244,0.0295 0.0244,0.0295 0,0 0.0273,0.0267 0.0273,0.0267 0,0 1.2527,1.27104 1.2527,1.27104 0,0 0.0272,0.0267 0.0272,0.0267 0,0 0.0287,0.0253 0.0287,0.0253 0,0 1.29082,1.17839 1.29082,1.17839 0,0 0.0287,0.0266 0.0287,0.0266 0,0 0.0287,0.0238 0.0287,0.0238 0,0 1.32736,1.08862 1.32736,1.08862 0,0 0.0286,0.0238 0.0286,0.0238 0,0 0.03,0.0224 0.03,0.0224 0,0 1.35801,1.00318 1.35801,1.00318 0,0 0.03,0.0223 0.03,0.0223 0,0 0.0314,0.021 0.0314,0.021 0,0 0.18831,0.12582 0.18831,0.12582 0,0 1.63115,-2.36698 1.63115,-2.36698 0,0 -0.15805,-0.10495 -0.15805,-0.10495 0,0 -1.30261,-0.96467 -1.30261,-0.96467 0,0 -1.2532,-1.03157 -1.2532,-1.03157 0,0 -1.2465,-1.14063 -1.2465,-1.14063 0,0 -1.18105,-1.20066 -1.18105,-1.20066 0,0 -1.00773,-1.13691 -1.00773,-1.13691 0,0 -2.21591,1.87141 -2.21591,1.87141 m 118.9008,4.03351 c 0,0 0.26271,0.39439 0.26271,0.39439 0,0 1.11467,1.89162 1.11467,1.89162 0,0 1.05124,2.01866 1.05124,2.01866 0,0 1.01315,2.20837 1.01315,2.20837 0,0 0.11553,0.28585 0.11553,0.28585 0,0 2.34699,-1.03974 2.34699,-1.03974 0,0 -0.12774,-0.31812 -0.12774,-0.31812 0,0 -0.0113,-0.0287 -0.0113,-0.0287 0,0 -0.0138,-0.03 -0.0138,-0.03 0,0 -1.0317,-2.2503 -1.0317,-2.2503 0,0 -0.0138,-0.03 -0.0138,-0.03 0,0 -0.015,-0.03 -0.015,-0.03 0,0 -1.08855,-2.09373 -1.08855,-2.09373 0,0 -0.0163,-0.0314 -0.0163,-0.0314 0,0 -0.0175,-0.0314 -0.0175,-0.0314 0,0 -1.14065,-1.93971 -1.14065,-1.93971 0,0 -0.02,-0.0327 -0.02,-0.0327 0,0 -0.02,-0.0314 -0.02,-0.0314 0,0 -0.28964,-0.4347 -0.28964,-0.4347 0,0 -2.09828,1.52301 -2.09828,1.52301 m -63.96662,1.34716 c 0,0 -0.0161,0.0108 -0.0161,0.0108 0,0 -0.0148,0.0122 -0.0148,0.0122 0,0 -0.61989,0.48064 -0.61989,0.48064 0,0 -0.45345,0.17103 -0.45345,0.17103 0,0 -0.0216,0.007 -0.0216,0.007 0,0 -0.0203,0.008 -0.0203,0.008 0,0 -1.87592,0.63738 -1.87592,0.63738 0,0 -0.0203,0.007 -0.0203,0.007 0,0 -0.0176,0.006 -0.0176,0.006 0,0 -1.3298,0.40982 -1.3298,0.40982 0,0 -1.61837,0.45962 -1.61837,0.45962 0,0 -0.51615,0.13383 -0.51615,0.13383 0,0 0.69559,2.70523 0.69559,2.70523 0,0 0.51576,-0.13459 0.51576,-0.13459 0,0 0.0163,-0.004 0.0163,-0.004 0,0 0.0163,-0.004 0.0163,-0.004 0,0 1.64957,-0.47155 1.64957,-0.47155 0,0 0.0149,-0.004 0.0149,-0.004 0,0 0.0149,-0.004 0.0149,-0.004 0,0 1.39623,-0.43357 1.39623,-0.43357 0,0 0.019,-0.006 0.019,-0.006 0,0 0.0189,-0.007 0.0189,-0.007 0,0 1.95236,-0.66587 1.95236,-0.66587 0,0 0.0216,-0.008 0.0216,-0.008 0,0 0.0202,-0.007 0.0202,-0.007 0,0 0.68879,-0.26014 0.68879,-0.26014 0,0 0.19536,-0.0735 0.19536,-0.0735 0,0 0.1642,-0.12781 0.1642,-0.12781 0,0 0.75328,-0.58705 0.75328,-0.58705 0,0 0.65191,-0.47931 0.65191,-0.47931 0,0 -1.62767,-2.24955 -1.62767,-2.24955 0,0 -0.6531,0.47928 -0.6531,0.47928 m -40.19961,4.81752 c 0,0 0.7628,0.28083 0.7628,0.28083 0,0 0.0283,0.011 0.0283,0.011 0,0 0.0283,0.008 0.0283,0.008 0,0 1.49669,0.48181 1.49669,0.48181 0,0 0.0282,0.01 0.0282,0.01 0,0 0.0282,0.008 0.0282,0.008 0,0 1.50524,0.4185 1.50524,0.4185 0,0 0.0267,0.007 0.0267,0.007 0,0 0.0267,0.007 0.0267,0.007 0,0 1.50955,0.35954 1.50955,0.35954 0,0 0.0253,0.006 0.0253,0.006 0,0 0.0267,0.006 0.0267,0.006 0,0 1.51102,0.30211 1.51102,0.30211 0,0 0.0253,0.006 0.0253,0.006 0,0 0.0238,0.004 0.0238,0.004 0,0 1.51109,0.24759 1.51109,0.24759 0,0 0.0238,0.004 0.0238,0.004 0,0 0.0238,0.003 0.0238,0.003 0,0 0.0546,0.007 0.0546,0.007 0,0 0.37863,-2.80831 0.37863,-2.80831 0,0 -0.028,-0.004 -0.028,-0.004 0,0 -1.48225,-0.24578 -1.48225,-0.24578 0,0 -0.007,-10e-4 -0.007,-10e-4 0,0 -1.41044,-0.28369 -1.41044,-0.28369 0,0 -0.0154,-0.004 -0.0154,-0.004 0,0 -1.46479,-0.35066 -1.46479,-0.35066 0,0 -1.45181,-0.40677 -1.45181,-0.40677 0,0 -1.40913,-0.45469 -1.40913,-0.45469 0,0 -0.0155,-0.006 -0.0155,-0.006 0,0 -0.7464,-0.27624 -0.7464,-0.27624 0,0 -1.0137,2.6651 -1.0137,2.6651 m 23.07418,-0.48784 c 0,0 -0.0179,0.003 -0.0179,0.003 0,0 -2.63726,0.2335 -2.63726,0.2335 0,0 -2.77138,0.12567 -2.77138,0.12567 0,0 -0.28248,0.003 -0.28248,0.003 0,0 0.0284,2.8201 0.0284,2.8201 0,0 0.30602,-0.004 0.30602,-0.004 0,0 0.0263,-9e-5 0.0263,-9e-5 0,0 0.0249,-10e-4 0.0249,-10e-4 0,0 2.82637,-0.13303 2.82637,-0.13303 0,0 0.0317,-0.002 0.0317,-0.002 0,0 0.0304,-0.002 0.0304,-0.002 0,0 2.72335,-0.24758 2.72335,-0.24758 0,0 0.0275,-0.003 0.0275,-0.003 0,0 0.0275,-0.003 0.0275,-0.003 0,0 2.57606,-0.33546 2.57606,-0.33546 0,0 -0.36178,-2.78392 -0.36178,-2.78392 0,0 -2.55784,0.32881 -2.55784,0.32881 m 87.2301,8.48553 c 0,0 0.74624,2.78583 0.74624,2.78583 0,0 0.70552,3.06038 0.70552,3.06038 0,0 10e-4,0.004 10e-4,0.004 0,0 0.3553,1.82128 0.3553,1.82128 0,0 2.48508,-0.55515 2.48508,-0.55515 0,0 -0.35556,-1.82255 -0.35556,-1.82255 0,0 -0.005,-0.0234 -0.005,-0.0234 0,0 -0.005,-0.0221 -0.005,-0.0221 0,0 -0.71234,-3.10153 -0.71234,-3.10153 0,0 -0.006,-0.0234 -0.006,-0.0234 0,0 -0.006,-0.0234 -0.006,-0.0234 0,0 -0.75668,-2.8301 -0.75668,-2.8301 0,0 -2.44575,0.73011 -2.44575,0.73011 m 3.04401,15.47249 c 0,0 0.0937,0.69552 0.0937,0.69552 0,0 0.4129,3.87103 0.4129,3.87103 0,0 2.51563,-0.33453 2.51563,-0.33453 0,0 -0.4118,-3.86523 -0.4118,-3.86523 0,0 -10e-4,-0.0195 -10e-4,-0.0195 0,0 -0.003,-0.0181 -0.003,-0.0181 0,0 -0.0986,-0.73082 -0.0986,-0.73082 0,0 -2.50802,0.40167 -2.50802,0.40167 m -212.306,-155.02419 c -6.42484,-0.4396 -11.67053,4.05389 -11.67053,10.04143 0,0 0,206.64871 0,206.64871 0,6.02203 5.26185,10.6276 11.70635,10.2893 0,0 259.49905,-13.622 259.49905,-13.622 4.7555,-0.24963 8.57803,-4.60897 8.55868,-9.7381 0,0 -0.66447,-176.08333 -0.66447,-176.08333 -0.0193,-5.10409 -3.86474,-9.50266 -8.60983,-9.82732 0,0 -258.81925,-17.70869 -258.81925,-17.70869 0,0 0,0 0,0 m 3.5e-4,2.24681 c 0,0 258.82599,17.39937 258.82599,17.39937 3.79022,0.25479 6.81057,3.70724 6.82583,7.77845 0,0 0.66097,176.2779 0.66097,176.2779 0.0153,4.09109 -2.98702,7.51245 -6.7854,7.70726 0,0 -259.49227,13.30916 -259.49227,13.30916 -5.14078,0.26367 -9.2584,-3.35141 -9.25856,-8.14315 0,0 -0.007,-206.38139 -0.007,-206.38139 -1.6e-4,-4.76448 4.10484,-8.29215 9.23025,-7.9476 0,0 0,0 0,0"
           style="color:#000000;font-style:normal;font-variant:normal;font-weight:normal;font-stretch:normal;font-size:medium;line-height:normal;font-family:sans-serif;text-indent:0;text-align:start;text-decoration:none;text-decoration-line:none;text-decoration-style:solid;text-decoration-color:#000000;letter-spacing:normal;word-spacing:normal;text-transform:none;direction:ltr;block-progression:tb;writing-mode:lr-tb;baseline-shift:baseline;text-anchor:start;white-space:normal;clip-rule:nonzero;display:inline;overflow:visible;visibility:visible;opacity:1;isolation:auto;mix-blend-mode:normal;color-interpolation:sRGB;color-interpolation-filters:linearRGB;solid-color:#000000;solid-opacity:1;fill:#ffffff;fill-opacity:1;fill-rule:nonzero;stroke:none;stroke-width:4;stroke-linecap:butt;stroke-linejoin:miter;stroke-miterlimit:4;stroke-dasharray:12, 12;stroke-dashoffset:0;stroke-opacity:1;color-rendering:auto;image-rendering:auto;shape-rendering:auto;text-rendering:auto;enable-background:accumulate"
           id="path4416" />
      </g>
    </g>
  </g>
</svg>
