<?xml version="1.0" encoding="UTF-8" standalone="no"?>
<!-- Created with Inkscape (http://www.inkscape.org/) -->

<svg
   xmlns:dc="http://purl.org/dc/elements/1.1/"
   xmlns:cc="http://creativecommons.org/ns#"
   xmlns:rdf="http://www.w3.org/1999/02/22-rdf-syntax-ns#"
   xmlns:svg="http://www.w3.org/2000/svg"
   xmlns="http://www.w3.org/2000/svg"
   xmlns:sodipodi="http://sodipodi.sourceforge.net/DTD/sodipodi-0.dtd"
   xmlns:inkscape="http://www.inkscape.org/namespaces/inkscape"
   width="471.12894"
   height="353.54883"
   viewBox="0 0 471.12894 353.54882"
   id="svg2"
   version="1.1"
   inkscape:version="0.91 r13725"
   sodipodi:docname="Node-php-graphic-edit.svg">
  <defs
     id="defs4">
    <inkscape:path-effect
       effect="skeletal"
       id="path-effect5463"
       is_visible="true"
       pattern="m 0,152.36219 1,0"
       copytype="single_stretched"
       prop_scale="1"
       scale_y_rel="false"
       spacing="0"
       normal_offset="0"
       tang_offset="0"
       prop_units="false"
       vertical_pattern="false"
       fuse_tolerance="0" />
    <inkscape:path-effect
       effect="skeletal"
       id="path-effect5459"
       is_visible="true"
       pattern="m 0,157.36219 c 0,-2.76 2.24,-5 5,-5 2.76,0 5,2.24 5,5 0,2.76 -2.24,5 -5,5 -2.76,0 -5,-2.24 -5,-5 z"
       copytype="single_stretched"
       prop_scale="1"
       scale_y_rel="false"
       spacing="0"
       normal_offset="0"
       tang_offset="0"
       prop_units="false"
       vertical_pattern="false"
       fuse_tolerance="0" />
    <marker
       inkscape:stockid="Arrow1Lstart"
       orient="auto"
       refY="0"
       refX="0"
       id="marker5014"
       style="overflow:visible"
       inkscape:isstock="true">
      <path
         id="path5016"
         d="M 0,0 5,-5 -12.5,0 5,5 0,0 Z"
         style="fill:#000000;fill-opacity:1;fill-rule:evenodd;stroke:#000000;stroke-width:1pt;stroke-opacity:1"
         transform="matrix(0.8,0,0,0.8,10,0)"
         inkscape:connector-curvature="0" />
    </marker>
    <marker
       inkscape:stockid="Arrow1Lstart"
       orient="auto"
       refY="0"
       refX="0"
       id="marker4956"
       style="overflow:visible"
       inkscape:isstock="true">
      <path
         id="path4958"
         d="M 0,0 5,-5 -12.5,0 5,5 0,0 Z"
         style="fill:#000000;fill-opacity:1;fill-rule:evenodd;stroke:#000000;stroke-width:1pt;stroke-opacity:1"
         transform="matrix(0.8,0,0,0.8,10,0)"
         inkscape:connector-curvature="0" />
    </marker>
    <marker
       inkscape:stockid="Arrow1Lstart"
       orient="auto"
       refY="0"
       refX="0"
       id="marker4904"
       style="overflow:visible"
       inkscape:isstock="true">
      <path
         id="path4906"
         d="M 0,0 5,-5 -12.5,0 5,5 0,0 Z"
         style="fill:#000000;fill-opacity:1;fill-rule:evenodd;stroke:#000000;stroke-width:1pt;stroke-opacity:1"
         transform="matrix(0.8,0,0,0.8,10,0)"
         inkscape:connector-curvature="0" />
    </marker>
    <marker
       inkscape:stockid="Arrow1Lstart"
       orient="auto"
       refY="0"
       refX="0"
       id="marker4858"
       style="overflow:visible"
       inkscape:isstock="true">
      <path
         id="path4860"
         d="M 0,0 5,-5 -12.5,0 5,5 0,0 Z"
         style="fill:#000000;fill-opacity:1;fill-rule:evenodd;stroke:#000000;stroke-width:1pt;stroke-opacity:1"
         transform="matrix(0.8,0,0,0.8,10,0)"
         inkscape:connector-curvature="0" />
    </marker>
    <marker
       inkscape:stockid="Arrow1Lstart"
       orient="auto"
       refY="0"
       refX="0"
       id="marker4818"
       style="overflow:visible"
       inkscape:isstock="true">
      <path
         id="path4820"
         d="M 0,0 5,-5 -12.5,0 5,5 0,0 Z"
         style="fill:#000000;fill-opacity:1;fill-rule:evenodd;stroke:#000000;stroke-width:1pt;stroke-opacity:1"
         transform="matrix(0.8,0,0,0.8,10,0)"
         inkscape:connector-curvature="0" />
    </marker>
    <marker
       inkscape:stockid="Arrow1Lstart"
       orient="auto"
       refY="0"
       refX="0"
       id="marker4784"
       style="overflow:visible"
       inkscape:isstock="true">
      <path
         id="path4786"
         d="M 0,0 5,-5 -12.5,0 5,5 0,0 Z"
         style="fill:#000000;fill-opacity:1;fill-rule:evenodd;stroke:#000000;stroke-width:1pt;stroke-opacity:1"
         transform="matrix(0.8,0,0,0.8,10,0)"
         inkscape:connector-curvature="0" />
    </marker>
    <marker
       inkscape:stockid="Arrow1Lstart"
       orient="auto"
       refY="0"
       refX="0"
       id="marker4756"
       style="overflow:visible"
       inkscape:isstock="true">
      <path
         id="path4758"
         d="M 0,0 5,-5 -12.5,0 5,5 0,0 Z"
         style="fill:#000000;fill-opacity:1;fill-rule:evenodd;stroke:#000000;stroke-width:1pt;stroke-opacity:1"
         transform="matrix(0.8,0,0,0.8,10,0)"
         inkscape:connector-curvature="0" />
    </marker>
    <marker
       inkscape:stockid="Arrow1Lstart"
       orient="auto"
       refY="0"
       refX="0"
       id="marker4734"
       style="overflow:visible"
       inkscape:isstock="true">
      <path
         id="path4736"
         d="M 0,0 5,-5 -12.5,0 5,5 0,0 Z"
         style="fill:#000000;fill-opacity:1;fill-rule:evenodd;stroke:#000000;stroke-width:1pt;stroke-opacity:1"
         transform="matrix(0.8,0,0,0.8,10,0)"
         inkscape:connector-curvature="0" />
    </marker>
    <marker
       inkscape:stockid="Arrow1Lstart"
       orient="auto"
       refY="0"
       refX="0"
       id="Arrow1Lstart"
       style="overflow:visible"
       inkscape:isstock="true">
      <path
         id="path4464"
         d="M 0,0 5,-5 -12.5,0 5,5 0,0 Z"
         style="fill:#000000;fill-opacity:1;fill-rule:evenodd;stroke:#000000;stroke-width:1pt;stroke-opacity:1"
         transform="matrix(0.8,0,0,0.8,10,0)"
         inkscape:connector-curvature="0" />
    </marker>
  </defs>
  <sodipodi:namedview
     id="base"
     pagecolor="#ffffff"
     bordercolor="#666666"
     borderopacity="1.0"
     inkscape:pageopacity="0.0"
     inkscape:pageshadow="2"
     inkscape:zoom="0.96952196"
     inkscape:cx="-76.987255"
     inkscape:cy="143.68551"
     inkscape:document-units="px"
     inkscape:current-layer="layer1"
     showgrid="false"
     units="px"
     fit-margin-top="0"
     fit-margin-left="0"
     fit-margin-right="0"
     fit-margin-bottom="0"
     inkscape:window-width="1394"
     inkscape:window-height="855"
     inkscape:window-x="46"
     inkscape:window-y="1"
     inkscape:window-maximized="1" />
  <metadata
     id="metadata7">
    <rdf:RDF>
      <cc:Work
         rdf:about="">
        <dc:format>image/svg+xml</dc:format>
        <dc:type
           rdf:resource="http://purl.org/dc/dcmitype/StillImage" />
        <dc:title />
      </cc:Work>
    </rdf:RDF>
  </metadata>
  <g
     inkscape:label="Layer 1"
     inkscape:groupmode="layer"
     id="layer1"
     transform="translate(-840.15268,-254.46624)">
    <g
       id="g4554"
       transform="translate(873.1107,103.14362)">
      <path
         id="path4295"
         d="m 303.44822,302.84016 c -1.83709,0.44535 -6.34633,2.22678 -10.13186,4.06388 l -6.79169,3.22884 -11.07824,0.33401 c -15.30913,0.38969 -22.15648,2.11544 -24.60595,6.06799 -2.39379,3.8412 -6.402,20.59773 -8.29476,34.40379 -1.2804,9.74217 -1.50308,43.14391 -0.22268,47.43047 0.83504,3.00615 3.56285,5.95664 6.73602,7.40405 1.89276,0.83504 2.44946,0.89071 3.89687,0.27835 3.11749,-1.28041 3.56285,-3.00616 2.78348,-11.41227 -1.00206,-10.52154 -0.5567,-18.14827 1.22473,-22.04514 2.67214,-5.90098 7.18137,-9.40816 12.08029,-9.40816 6.73602,0 9.74218,7.51539 10.41021,25.88635 0.44536,10.85556 0.5567,11.13391 5.62262,13.41637 2.22679,1.00205 2.95049,1.61441 3.22884,2.89481 0.77938,3.72986 5.39995,6.34633 11.91329,6.68035 7.68239,0.44536 14.91944,-1.94844 16.31118,-5.34428 0.33402,-0.83504 0.7237,-6.12365 0.89071,-11.85762 l 0.22268,-10.35454 4.00821,0.83505 c 2.83915,0.5567 6.68035,0.66803 13.75038,0.50103 l 9.79785,-0.22268 0.38968,3.34017 c 0.16701,1.83709 0.33402,4.34223 0.33402,5.56695 0,4.34223 3.45151,8.18343 7.34838,8.18343 1.28041,0 2.33812,0.38969 3.00616,1.16906 2.39379,2.61647 5.17727,3.56285 10.7999,3.56285 4.78758,0 5.62262,-0.16701 8.62878,-1.67008 5.39995,-2.72781 5.39995,-2.50513 4.95459,-21.82247 l -0.38968,-16.25552 2.0041,-2.95048 c 4.39789,-6.402 7.18137,-19.48435 5.95664,-28.05746 -0.33402,-2.44946 -1.33607,-6.06798 -2.44946,-8.68446 l -1.94843,-4.39789 11.24525,0.22268 c 8.9628,0.16701 11.85762,0.38969 14.36274,1.16906 1.72576,0.61236 3.78554,0.89071 4.50924,0.7237 1.83709,-0.50102 3.22884,-3.17317 3.22884,-6.34633 0,-5.90097 -2.33813,-7.01437 -8.18343,-3.78553 l -3.67419,2.00411 -13.69472,-0.16701 -13.69471,-0.16701 -2.28245,-1.44741 c -6.68035,-4.34223 -15.69882,-8.01642 -24.77296,-10.07619 -5.06593,-1.11339 -7.23704,-1.2804 -17.2019,-1.2804 -6.79168,0 -12.74833,0.33402 -14.69676,0.7237 -3.17316,0.66804 -3.39584,0.61237 -4.73192,-0.66803 -1.55874,-1.39174 -4.5649,-2.5608 -6.402,-2.50513 -0.66803,0 -2.61646,0.38968 -4.39789,0.83504 z m 9.79784,3.67419 c 1.55876,1.89277 3.6742,7.6824 4.78759,13.24936 0.66803,3.34018 1.72575,14.0844 1.72575,17.3689 l 0,2.11544 -1.11338,-1.11339 c -0.66804,-0.66803 -1.78143,-1.39173 -2.56081,-1.67008 -2.17111,-0.83505 -19.98537,-0.72371 -20.6534,0.11134 -0.61237,0.77937 -5.73397,26.27604 -5.73397,28.50281 0,1.33608 0.16701,1.44742 2.67214,1.44742 3.1175,0 4.23089,-0.89072 4.84325,-3.89687 0.77937,-3.6742 0.77937,-3.6742 7.45972,-4.06389 6.62468,-0.38968 9.40816,-1.22472 11.91329,-3.61852 3.72986,-3.50718 4.39789,-6.402 5.17727,-21.87813 0.38969,-8.12776 -0.50102,-13.86173 -3.11749,-20.15239 -1.1134,-2.67213 -1.33608,-3.72986 -0.83505,-3.72986 0.38969,0 0.83505,-0.27835 0.94638,-0.5567 0.38969,-1.28039 9.07414,-2.44946 18.53796,-2.44946 8.0721,0 10.13187,0.16701 14.19575,1.28041 5.2886,1.39173 12.91534,4.89891 18.31528,8.4061 l 3.61852,2.33812 -1.55874,1.16906 c -0.89071,0.66804 -3.8412,3.1175 -6.68035,5.39995 -12.02463,9.90918 -15.97717,12.85967 -16.6452,12.46998 -0.50102,-0.33401 -0.50102,-0.22267 -0.0557,0.38969 1.2804,1.61441 1.2804,3.8412 -0.0557,10.74422 -1.55875,7.79375 -1.89277,8.74013 -3.72986,10.02053 -2.11545,1.50308 -6.84736,1.00205 -7.40406,-0.77938 -0.16701,-0.55669 0.22268,-3.2845 0.83505,-6.12365 0.61236,-2.83915 1.05772,-5.23293 0.94638,-5.34427 -0.11134,-0.11134 -1.39174,0.89071 -2.95049,2.1711 -1.50307,1.28041 -3.67419,2.95049 -4.78758,3.72986 -1.44741,0.94639 -2.11544,1.89277 -2.39379,3.22884 -0.50103,2.5608 -2.05978,4.00821 -4.45356,4.00821 -1.61442,0 -2.89482,0.72371 -6.84737,3.95254 -6.402,5.17727 -20.54206,16.70087 -21.98947,17.81426 -0.89072,0.7237 -0.94639,1.00206 -0.33402,1.22473 0.50103,0.16701 0.38969,0.33402 -0.38969,0.33402 -0.61236,0.0557 -1.39174,-0.22268 -1.78142,-0.61236 -0.50103,-0.50104 -0.66804,-0.50104 -0.66804,0 0,1.11339 -2.11544,0.7237 -2.50513,-0.44537 -0.16701,-0.61236 -0.27834,-2.89481 -0.22268,-5.12159 0.11134,-4.06388 -0.38968,-5.1216 -1.94843,-3.8412 -0.50103,0.44536 -1.2804,0.16701 -2.89482,-1.05773 -2.50513,-1.89276 -3.00615,-2.0041 -3.00615,-0.77937 0,0.44536 1.39174,2.11545 3.06182,3.67419 l 3.06182,2.78348 0,4.06388 c 0,3.61852 -0.11133,4.11955 -1.11338,4.45357 -0.61237,0.16701 -1.11339,0.61236 -1.11339,0.94638 0,0.38968 -0.22268,0.38968 -0.72371,0 -0.61236,-0.50103 -0.66803,0.61236 -0.50102,6.01231 0.22267,6.73602 0,7.6824 -1.61442,5.73397 -0.61237,-0.66804 -0.77937,-3.28451 -0.83504,-10.68856 -0.0557,-7.29271 -0.33402,-10.63289 -1.00206,-13.13802 -1.33607,-4.67624 -3.56285,-9.40816 -5.1216,-10.91123 -1.67008,-1.55875 -1.67008,-1.89277 0.11134,-3.95254 2.78348,-3.34017 4.28656,-7.1257 4.56491,-11.57927 0.16701,-2.89482 0.55669,-4.56491 1.2804,-5.51129 1.2804,-1.61442 1.39174,-3.39585 0.22268,-3.39585 -0.44536,0 -0.83505,0.44537 -0.83505,1.05773 0,1.67008 -1.44741,2.44946 -3.95254,2.11544 -1.89276,-0.22268 -2.22678,-0.16701 -2.05977,0.61237 0.11134,0.50103 0.66803,1.00205 1.2804,1.11339 2.22678,0.44535 2.67214,1.2804 2.28245,4.45356 -0.55669,4.56491 -2.28245,7.34839 -6.62468,10.68856 -0.55669,0.38969 -2.33812,0.94638 -3.95254,1.16906 -7.90508,1.05772 -13.69471,7.18137 -15.69881,16.58953 -0.83505,4.11955 -1.00206,15.08646 -0.22268,20.93176 0.55669,4.3979 0.16701,5.28861 -2.33812,5.28861 -2.50513,0 -3.78553,-0.94638 -5.06594,-3.78553 -0.94638,-2.22679 -1.22472,-4.45357 -1.72575,-14.58543 -0.89071,-19.31734 0.66803,-37.68829 4.28656,-50.6593 4.34222,-15.42048 4.89892,-16.6452 8.07208,-18.53797 3.34018,-1.94843 21.0431,-4.45356 24.82863,-3.50718 1.16906,0.27834 1.44741,0.61236 1.16906,1.44741 -0.66804,2.11544 1.2804,1.94843 4.06388,-0.38969 3.34017,-2.83915 7.6824,-5.28861 12.63699,-7.18138 7.57106,-2.83915 12.30297,-2.72781 14.91944,0.44536 z m 59.67778,28.8925 c 6.73601,1.89277 8.74012,10.18753 4.17522,17.36891 -1.94844,3.1175 -6.56901,5.95664 -9.46383,5.90097 l -1.94843,-0.11134 2.22678,-0.33401 c 6.45767,-1.11339 11.02257,-6.68035 11.07824,-13.41637 0,-3.67419 -1.22473,-6.29066 -3.72986,-7.79373 -1.61441,-1.00206 -2.83915,-1.1134 -11.57927,-1.1134 -7.23704,0 -9.96485,0.16701 -10.35454,0.66804 -0.55669,0.7237 -5.78963,27.11108 -5.73396,28.94817 0,0.83505 0.50103,1.00206 2.67213,1.00206 3.45152,0 4.28657,-0.72371 5.12161,-4.34224 0.77937,-3.34017 1.33606,-3.61852 6.17932,-3.2845 2.95049,0.16702 2.95049,0.16702 -0.7237,0.27835 -4.11956,0.11134 -4.50924,0.38969 -5.17728,4.17522 -0.50102,2.67214 -2.05977,3.72986 -5.45562,3.72986 -1.94843,0 -2.7278,-0.22268 -3.00615,-0.94638 -0.16701,-0.50103 0.83505,-7.29272 2.28245,-15.14213 2.17112,-11.63494 2.83915,-14.41841 3.78553,-15.25346 0.94639,-0.77937 2.33812,-0.94638 9.29682,-0.94638 4.45356,0 9.12981,0.27835 10.35454,0.61236 z m -62.0159,7.12571 c 1.28041,1.55875 1.33607,4.67625 0.16701,6.62468 -1.44741,2.50513 -3.56285,3.67419 -6.90303,3.89687 -4.45356,0.33402 -4.78758,-0.22268 -3.61852,-6.12365 0.5567,-2.5608 1.22474,-4.9546 1.55875,-5.39995 0.44536,-0.50103 1.61442,-0.66804 4.17522,-0.50103 2.95049,0.16701 3.78553,0.44536 4.62057,1.50308 z m 57.95202,-0.0557 c 2.61647,2.61647 0.94638,7.84941 -3.1175,9.79785 -2.50513,1.16906 -6.79168,1.16906 -7.45971,0 -0.5567,-1.00205 0.66803,-8.57311 1.67008,-10.41021 0.83505,-1.55875 7.18138,-1.16906 8.90713,0.61236 z m -76.2673,46.15009 c 0.0557,1.16905 0.11134,3.00615 0.16701,4.06387 0.0557,1.05772 0.27834,4.89892 0.50102,8.46177 0.38969,5.78964 0.38969,6.56901 -0.38968,6.56901 -0.50103,0 -1.28041,-0.55669 -1.72576,-1.22473 -0.72371,-1.00205 -0.89072,-3.06182 -0.89072,-10.57721 0,-8.96281 0.0557,-9.35249 1.11339,-9.35249 0.89072,0 1.1134,0.38968 1.22474,2.05978 z m 71.31271,3.89686 c 0.44536,0.89071 0.94638,4.00821 1.11339,6.9587 0.33402,5.90097 0.27835,6.01231 -2.61647,4.89892 -1.39173,-0.50103 -1.4474,-0.66804 -1.4474,-5.51129 0,-7.12571 1.22472,-9.74217 2.95048,-6.34633 z m -61.4592,7.73807 c 0.44536,0.89071 0.94638,3.56285 1.05772,5.90098 l 0.27835,4.34222 -1.44741,0 c -3.00616,0 -3.17316,-0.27835 -3.17316,-5.78964 0,-6.51334 1.39173,-8.4061 3.2845,-4.45356 z"
         inkscape:connector-curvature="0"
         style="fill:#000000;stroke:none" />
      <path
         id="path4297"
         d="m 263.19913,328.89352 c -1.55875,1.55875 -1.89277,2.33812 -1.89277,4.17522 0,2.56079 1.44741,4.50923 3.34018,4.50923 2.67214,0 6.12365,-2.89482 6.12365,-5.1216 0,-0.5567 -0.5567,-1.55875 -1.16906,-2.17111 -0.89072,-0.89072 -1.61442,-1.1134 -3.06183,-0.89072 -1.11339,0.22269 -1.78142,0.11134 -1.61442,-0.22268 0.22268,-0.27834 0.72371,-0.50102 1.16907,-0.50102 0.44535,0 0.77937,-0.38969 0.77937,-0.83504 0,-1.39174 -1.67009,-0.94638 -3.67419,1.05772 z"
         inkscape:connector-curvature="0"
         style="fill:#000000;stroke:none" />
      <path
         id="path4299"
         d="m 327.38613,327.66879 c -0.66803,0.50102 -1.78142,4.73191 -3.72986,14.30707 -1.55874,7.45973 -2.78348,14.08441 -2.67214,14.75244 0.16701,1.00205 0.61237,1.16906 3.06183,1.33607 3.50718,0.22268 3.39584,0.38968 5.45562,-8.23909 2.05977,-8.51745 2.28245,-8.90714 6.12365,-8.90714 3.28451,0 4.73191,0.89072 4.73191,2.95049 0,0.66804 -0.61236,3.8412 -1.33607,7.01437 -0.7237,3.22883 -1.22472,6.17932 -1.05771,6.569 0.167,0.50103 1.39173,0.72371 3.56285,0.72371 4.11954,0 4.45356,-0.50103 6.01231,-8.68445 1.50308,-8.01642 1.50308,-9.79784 -0.16701,-11.69061 -1.22473,-1.44741 -1.67009,-1.55875 -7.07004,-1.89277 -3.17316,-0.16701 -6.12365,-0.50103 -6.51334,-0.77937 -0.44535,-0.27835 -0.66803,-1.44741 -0.61236,-3.39585 0.11134,-1.78142 -0.16701,-3.34017 -0.61237,-3.84119 -0.83504,-1.05772 -3.89686,-1.16906 -5.17727,-0.22268 z"
         inkscape:connector-curvature="0"
         style="fill:#000000;stroke:none" />
      <path
         id="path4301"
         d="m 360.5652,342.14287 c -0.66804,0.83505 -1.8371,6.62468 -1.8371,8.90713 0,1.50309 0.11134,1.55876 2.67214,1.55876 6.29066,0 10.57722,-6.402 6.56901,-9.85352 -1.1134,-0.94638 -2.17112,-1.2804 -4.17522,-1.2804 -1.50308,0 -2.95048,0.33402 -3.22883,0.66803 z"
         inkscape:connector-curvature="0"
         style="fill:#000000;stroke:none" />
      <path
         sodipodi:nodetypes="ccccsc"
         inkscape:connector-curvature="0"
         id="path4318"
         d="m 267.64221,330.63617 c 0.31709,-0.63417 -6.86263,-1.56278 -3.96356,5.66224 0.61152,0 1.47218,-2.37814 1.92516,-2.51403 0.45298,-0.1359 0.9739,0.20383 1.54013,-0.11325 0,0 -0.34434,-0.70416 -1.2004,-1.01921 -0.85127,-0.31329 1.72132,-1.47218 1.69867,-2.01575 z"
         style="fill:#ffffff;fill-rule:evenodd;stroke:none;stroke-width:1px;stroke-linecap:butt;stroke-linejoin:miter;stroke-opacity:1" />
      <path
         sodipodi:nodetypes="csssc"
         inkscape:connector-curvature="0"
         id="path4320"
         d="m 257.99494,324.31078 c 0,0 5.0563,-2.29354 9.39878,-0.89505 4.34247,1.39851 -2.91024,0.6722 -5.17071,1.34347 -2.26046,0.67128 -1.93557,3.45114 -4.37449,2.22046 -2.43893,-1.23068 0.14642,-2.66888 0.14642,-2.66888 z"
         style="fill:#000000;fill-rule:evenodd;stroke:none;stroke-width:1px;stroke-linecap:butt;stroke-linejoin:miter;stroke-opacity:1" />
    </g>
    <g
       id="g4543"
       transform="translate(381.11566,27.848777)">
      <path
         id="path4255"
         d="m 604.98572,291.62728 c -0.54418,0.29776 -0.51338,-0.42097 -0.52364,14.71338 0,10.10326 -0.0308,14.15894 -0.11294,14.33349 -0.10268,0.23615 -0.47231,0.48257 -0.71873,0.48257 -0.0513,0 -1.19104,-0.62631 -2.53609,-1.40665 -1.33478,-0.77006 -2.63875,-1.45799 -2.88517,-1.54013 -0.51338,-0.15401 -1.00623,-0.0924 -1.5504,0.17455 -0.729,0.36963 -18.23516,10.50369 -18.54318,10.73984 -0.18482,0.13348 -0.42097,0.44151 -0.54418,0.68793 -0.21562,0.4415 -0.21562,0.47231 -0.21562,11.42777 0,10.46263 0.0103,10.99654 0.19509,11.38671 0.10267,0.22588 0.31829,0.53391 0.48257,0.67765 0.33883,0.3183 18.4405,10.79119 18.94361,10.96573 0.62632,0.21562 1.16023,0.14375 1.9611,-0.28749 0.4107,-0.21561 4.63066,-2.63875 9.37426,-5.36992 5.411,-3.12133 8.77875,-5.13377 9.03544,-5.38019 0.24642,-0.23615 0.47231,-0.57498 0.54418,-0.8214 0.0924,-0.32857 0.12321,-6.2324 0.12321,-26.85989 l 0,-26.42865 -0.26696,-0.54417 c -0.20535,-0.40044 -0.4107,-0.62632 -0.80087,-0.88302 -0.46203,-0.29775 -9.99031,-5.62661 -10.81171,-6.04758 -0.39017,-0.19508 -0.81114,-0.20535 -1.14997,-0.0205 z m -4.01461,43.76025 c 1.72495,0.99596 3.19321,1.85843 3.26508,1.90977 0.0924,0.0821 0.12321,0.99595 0.12321,3.93247 0,3.51149 -0.0103,3.82979 -0.17455,3.97353 -0.10267,0.0924 -1.612,0.97542 -3.34721,1.98164 -2.84411,1.64281 -3.19321,1.81735 -3.40883,1.71468 -0.51338,-0.23615 -6.36587,-3.65525 -6.43775,-3.75792 -0.0411,-0.0616 -0.0821,-1.83789 -0.0821,-3.93247 l 0,-3.82979 0.27723,-0.17455 c 1.06782,-0.71873 6.19132,-3.60391 6.39668,-3.61417 0.16428,-0.0103 1.43745,0.66738 3.38828,1.79681 z"
         inkscape:connector-curvature="0"
         style="fill:#000000;stroke:none" />
      <path
         id="path4257"
         d="m 497.88501,317.70683 c -0.55445,0.20535 -18.59451,10.61664 -18.93334,10.92466 -0.16428,0.15402 -0.3799,0.46204 -0.48258,0.68793 -0.18481,0.39017 -0.19508,1.01649 -0.19508,14.76472 0,12.8755 0.0205,14.39509 0.16428,14.70312 0.18482,0.40043 0.7598,0.71873 1.1397,0.62632 0.13348,-0.0411 2.7517,-1.49906 5.81143,-3.25481 3.68604,-2.10485 5.66768,-3.29588 5.8833,-3.53203 0.17454,-0.19509 0.36963,-0.53392 0.43123,-0.74954 0.0924,-0.28749 0.12321,-2.35126 0.12321,-7.33102 l 0,-6.92032 0.25669,-0.52364 c 0.16428,-0.30803 0.42097,-0.62633 0.64686,-0.78034 0.45177,-0.29776 4.29183,-2.51555 4.91815,-2.83384 0.50311,-0.24642 1.21157,-0.27722 1.70441,-0.0821 0.52364,0.22588 5.03109,2.84411 5.28778,3.09053 0.60579,0.54418 0.58525,0.19508 0.63659,8.01895 0.0513,7.1154 0.0513,7.18728 0.27722,7.59798 0.11295,0.22589 0.3491,0.53391 0.51338,0.67766 0.29776,0.28749 10.95547,6.41721 11.43804,6.58149 0.35937,0.12321 0.93435,-0.11294 1.19104,-0.49284 0.17454,-0.27723 0.18481,-0.91381 0.18481,-14.77499 l 0,-14.47724 -0.22588,-0.43123 c -0.13348,-0.23616 -0.37991,-0.54418 -0.56472,-0.67766 -0.50311,-0.3799 -18.48157,-10.69877 -18.87174,-10.83225 -0.43124,-0.15402 -0.88301,-0.14375 -1.33478,0.0205 z"
         inkscape:connector-curvature="0"
         style="fill:#000000;stroke:none" />
      <path
         id="path4259"
         d="m 646.49739,318.01486 c -0.46204,0.20535 -18.30703,10.51396 -18.68693,10.80145 -0.18481,0.13348 -0.4415,0.46204 -0.56471,0.729 l -0.24642,0.49284 -0.0308,10.6269 c -0.0205,7.30022 0.0103,10.79118 0.0821,11.16082 0.22588,1.08836 -0.16428,0.83167 9.91844,6.57122 5.07217,2.89545 9.38453,5.31859 9.56935,5.38019 0.18481,0.0616 0.58525,0.0924 0.88301,0.0719 0.48257,-0.0411 1.18077,-0.40044 6.2632,-3.22401 3.49096,-1.94057 5.78062,-3.26508 5.87303,-3.41909 0.23615,-0.3491 0.22589,-0.88301 -0.0205,-1.21157 -0.14375,-0.18482 -3.43963,-2.13565 -9.41533,-5.57528 -5.0619,-2.90571 -9.31266,-5.39046 -9.43587,-5.52393 -0.23616,-0.22589 -0.23616,-0.24642 -0.26696,-3.81953 -0.0205,-3.03919 0,-3.63471 0.12321,-3.8914 0.22589,-0.43123 6.09892,-3.80925 6.63283,-3.80925 0.27722,0 1.03702,0.39016 3.38829,1.73521 2.50528,1.44772 3.05973,1.80709 3.20347,2.08431 0.16428,0.29776 0.18482,0.67766 0.18482,3.18294 l 0,2.85438 0.28749,0.30802 c 0.17455,0.20535 0.4107,0.33883 0.65712,0.3799 0.35937,0.0513 0.73926,-0.15401 6.00651,-3.20347 3.09053,-1.79682 5.76009,-3.37802 5.91411,-3.53204 0.66738,-0.61605 0.68792,-0.70846 0.68792,-4.12755 0,-2.94678 -0.0103,-3.1316 -0.21562,-3.55257 -0.12321,-0.24642 -0.35936,-0.55444 -0.54418,-0.68792 -0.42097,-0.3183 -18.17355,-10.61664 -18.60478,-10.80145 -0.43124,-0.18482 -1.2321,-0.17455 -1.64281,0 z"
         inkscape:connector-curvature="0"
         style="fill:#000000;stroke:none" />
      <path
         id="path4261"
         d="m 547.28215,318.1278 c -0.99595,0.45177 -18.46104,10.61664 -18.76907,10.92466 -0.66739,0.68793 -0.64685,0.26696 -0.64685,11.88982 0,7.48503 0.0308,10.64743 0.11294,10.97599 0.23615,0.93435 0.27722,0.96515 10.20594,6.68417 l 9.24078,5.31859 0.71873,0 0.71873,0 9.23052,-5.33912 c 5.08243,-2.93652 9.37426,-5.45206 9.53854,-5.58554 0.17455,-0.14375 0.39017,-0.44151 0.49284,-0.67766 0.18482,-0.39017 0.19508,-0.95488 0.19508,-11.34563 0,-10.43182 -0.0103,-10.95547 -0.19508,-11.34564 -0.10267,-0.22588 -0.31829,-0.53391 -0.48257,-0.67765 -0.16428,-0.14375 -4.45612,-2.6593 -9.53855,-5.59581 -9.11757,-5.25698 -9.24078,-5.31859 -9.85684,-5.34939 -0.40043,-0.0205 -0.73926,0.0205 -0.96514,0.12321 z"
         inkscape:connector-curvature="0"
         style="fill:#669f64;fill-opacity:1;stroke:#669f64;stroke-width:0.34903541;stroke-opacity:1" />
      <path
         id="path4263"
         d="m 645.22421,337.51292 -1.79682,1.04729 0,2.31019 0,2.29993 1.79682,1.04729 c 0.98569,0.57498 1.8995,1.05756 2.01244,1.05756 0.12321,0.0103 1.04729,-0.46204 2.05351,-1.04729 l 1.83789,-1.05756 0,-2.29993 0,-2.29993 -1.79682,-1.04729 c -0.98569,-0.57498 -1.90977,-1.04729 -2.05351,-1.05755 -0.14375,0 -1.05756,0.47231 -2.05351,1.04729 z"
         inkscape:connector-curvature="0"
         style="fill:#669f64;fill-opacity:1;stroke:none" />
      <path
         id="path4265"
         d="m 571.14391,360.78943 c -0.22589,0.0513 -0.53391,0.13348 -0.67766,0.18482 -0.14374,0.0616 -4.24049,2.4026 -9.08677,5.19537 -9.63095,5.56501 -9.52828,5.49313 -10.02112,6.70471 l -0.23615,0.59551 0,10.57557 0,10.57556 0.23615,0.59552 c 0.43123,1.05756 1.00622,1.54013 3.66551,3.06999 3.38829,1.95084 4.63066,2.44368 6.16053,2.44368 2.62848,0 4.35343,-1.21157 5.05162,-3.55257 0.16428,-0.55444 0.18482,-1.43745 0.21562,-10.96573 0.0205,-9.24079 0.0103,-10.38049 -0.13347,-10.5961 -0.15402,-0.23616 -0.20536,-0.24642 -1.4888,-0.24642 -1.25264,0 -1.33478,0.0103 -1.47852,0.22588 -0.14375,0.20535 -0.16429,1.35532 -0.16429,10.27781 0,11.20189 0.0513,10.40102 -0.71872,11.09921 -0.63659,0.57498 -1.44772,0.70846 -2.47448,0.4107 -0.52364,-0.15401 -5.5034,-2.93652 -5.65741,-3.1624 -0.0411,-0.0616 -0.0821,-4.6512 -0.0821,-10.19567 l 0,-10.08272 0.28749,-0.19509 c 0.8214,-0.57498 17.09545,-9.87737 17.28027,-9.87737 0.19508,0 16.97224,9.60015 17.37267,9.93898 0.16428,0.14375 0.17455,0.73926 0.15402,10.30861 l -0.0308,10.1546 -8.62473,4.99002 c -4.74361,2.74143 -8.69661,5.00029 -8.78902,5.0311 -0.0924,0.0308 -1.11916,-0.52365 -2.35126,-1.25264 -1.21157,-0.71873 -2.29993,-1.35532 -2.42314,-1.40666 -0.19509,-0.0924 -0.39017,-0.0308 -1.1397,0.3491 -0.49284,0.25669 -1.19103,0.56472 -1.54013,0.69819 -0.67766,0.23615 -0.77006,0.36963 -0.46204,0.63659 0.26696,0.24642 5.9141,3.56284 6.45828,3.79899 0.66739,0.29776 1.60174,0.3491 2.32047,0.14374 0.87274,-0.25668 18.05033,-10.19566 18.67665,-10.81171 0.26696,-0.25669 0.60579,-0.74954 0.77007,-1.09863 l 0.28749,-0.62632 0,-10.6269 0,-10.62691 -0.24642,-0.60578 c -0.48258,-1.20131 -0.45178,-1.18077 -10.05192,-6.72524 -4.81548,-2.78251 -8.93276,-5.11324 -9.14838,-5.19538 -0.54418,-0.18481 -1.41692,-0.25668 -1.90976,-0.15401 z"
         inkscape:connector-curvature="0"
         style="fill:#669f64;fill-opacity:1;stroke:none" />
      <path
         id="path4267"
         d="m 597.41855,369.96861 c -1.00623,0.32856 -1.84816,1.22184 -2.16646,2.3102 -0.46204,1.59146 0.53392,3.42936 2.13565,3.96327 0.70846,0.23615 1.82763,0.17455 2.47448,-0.13348 0.65712,-0.3183 1.29371,-0.98568 1.612,-1.66334 0.3491,-0.7598 0.35937,-1.86869 0.0308,-2.61823 -0.29776,-0.64685 -0.94462,-1.32451 -1.61201,-1.66334 -0.61605,-0.32856 -1.80708,-0.42097 -2.47447,-0.19508 z m 2.08431,0.62632 c 0.97541,0.4107 1.6736,1.45799 1.6736,2.51555 0,0.71873 -0.45177,1.69414 -0.95488,2.08431 -0.65712,0.50311 -1.01648,0.62632 -1.76601,0.62632 -1.57094,0 -2.71064,-1.12943 -2.7209,-2.6901 0,-1.03702 0.4415,-1.84815 1.30397,-2.35126 0.78034,-0.45178 1.65308,-0.51338 2.46422,-0.18482 z"
         inkscape:connector-curvature="0"
         style="fill:#669f64;fill-opacity:1;stroke:none" />
      <path
         id="path4269"
         d="m 597.17212,373.11048 0,1.84816 0.41071,0 0.4107,0 0,-0.71873 0,-0.71873 0.40043,0 c 0.22589,0 0.43124,0.0411 0.46204,0.0924 0.0411,0.0513 0.0924,0.3799 0.12321,0.71873 l 0.0719,0.62632 0.40044,0 c 0.39017,0 0.40043,-0.0103 0.34909,-0.2875 -0.0308,-0.15401 -0.0821,-0.49284 -0.12321,-0.77006 -0.0411,-0.3183 -0.13347,-0.53391 -0.26695,-0.62632 -0.20535,-0.14375 -0.20535,-0.14375 0,-0.25669 0.51337,-0.27722 0.45177,-1.35532 -0.0821,-1.62227 -0.15402,-0.0719 -0.64686,-0.13348 -1.20131,-0.13348 l -0.95488,0 0,1.84816 z"
         inkscape:connector-curvature="0"
         style="fill:#669f64;fill-opacity:1;stroke:none" />
      <path
         id="path4271"
         d="m 574.2139,375.00997 c -3.00839,0.46204 -5.03109,2.02271 -5.49313,4.2405 -0.16428,0.83167 -0.0719,2.28966 0.21562,3.01865 0.28749,0.77007 1.04729,1.59147 1.84816,2.02271 1.32451,0.70846 2.89544,1.07809 5.93463,1.40665 3.09054,0.3183 4.84628,0.83167 5.26725,1.5196 0.23616,0.39017 0.25669,1.25264 0.0308,1.78655 -0.31829,0.78033 -0.95488,1.22184 -2.16645,1.52986 -0.99595,0.25669 -4.70253,0.25669 -5.70875,0 -1.67361,-0.42097 -2.43341,-1.13969 -2.7825,-2.63875 -0.22589,-0.93435 -0.19509,-0.92408 -1.70442,-0.92408 -1.65307,0 -1.70441,0.0411 -1.60173,1.13969 0.20535,2.08432 1.2629,3.65525 3.08026,4.55879 2.96732,1.49906 8.41938,1.54013 11.4175,0.10268 0.86248,-0.42097 1.96111,-1.37585 2.37181,-2.07405 1.13969,-1.95083 0.87274,-4.82574 -0.55445,-6.08865 -1.1397,-0.99595 -2.87491,-1.52986 -6.88952,-2.10484 -3.64498,-0.52365 -4.67173,-0.80087 -5.20564,-1.38612 -0.26696,-0.29776 -0.27723,-1.33478 -0.0205,-1.82762 0.23616,-0.43124 0.89328,-0.90355 1.5504,-1.1089 0.68793,-0.22588 3.62444,-0.31829 4.682,-0.15401 1.75575,0.27722 2.67983,1.04729 3.1316,2.60795 0.0924,0.33883 0.24642,0.62632 0.35936,0.68793 0.10268,0.0616 0.71873,0.10267 1.35532,0.10267 1.73521,0 1.83789,-0.13347 1.41692,-1.80708 -0.6982,-2.76197 -2.62849,-4.20969 -6.19133,-4.66146 -1.10889,-0.13348 -3.30615,-0.11295 -4.34317,0.0513 z"
         inkscape:connector-curvature="0"
         style="fill:#669f64;fill-opacity:1;stroke:none" />
    </g>
    <path
       style="color:#000000;font-style:normal;font-variant:normal;font-weight:normal;font-stretch:normal;font-size:medium;line-height:normal;font-family:sans-serif;text-indent:0;text-align:start;text-decoration:none;text-decoration-line:none;text-decoration-style:solid;text-decoration-color:#000000;letter-spacing:normal;word-spacing:normal;text-transform:none;direction:ltr;block-progression:tb;writing-mode:lr-tb;baseline-shift:baseline;text-anchor:start;white-space:normal;clip-rule:nonzero;display:inline;overflow:visible;visibility:visible;opacity:1;isolation:auto;mix-blend-mode:normal;color-interpolation:sRGB;color-interpolation-filters:linearRGB;solid-color:#000000;solid-opacity:1;fill:#000000;fill-opacity:1;fill-rule:nonzero;stroke:none;stroke-width:8;stroke-linecap:round;stroke-linejoin:miter;stroke-miterlimit:4;stroke-dasharray:none;stroke-dashoffset:0;stroke-opacity:1;color-rendering:auto;image-rendering:auto;shape-rendering:auto;text-rendering:auto;enable-background:accumulate;marker-end:"
       d="m 744.67969,17.128906 c -62.17811,5.6e-4 -112.66931,50.491547 -112.66992,112.669924 l 0,0.002 c 0.0317,51.67594 35.2709,96.46859 85.05468,109.06055 l -5.02343,29.24414 c -0.415,-0.0154 -0.82677,-0.0829 -1.24219,-0.0859 l -0.0156,0 -0.0137,0 c -22.90664,-10e-4 -41.56236,18.65391 -41.5625,41.56055 1.4e-4,22.90665 18.65586,41.56169 41.5625,41.56054 l 0.002,0 0.002,0 c 19.41354,-0.0233 35.91744,-13.57437 40.25781,-32.16406 l 81.68945,6.06641 c 3.5601,9.82302 12.89013,16.60397 23.54492,16.61719 13.8426,-2.2e-4 25.1501,-11.30772 25.1504,-25.15039 l 0,-0.002 c 0,-2.82243 -0.64086,-5.56159 -1.56446,-8.21093 l 25.53516,-18.09766 c 17.7533,20.48854 42.25459,33.86045 69.08789,37.71094 l -1.76953,25.66406 c -3.0501,1.48152 -5.20503,4.57721 -5.20703,8.15234 l 0,0.002 c -9e-5,4.42789 3.25979,8.17037 7.48242,8.94921 l 3.24609,0 c 4.2226,-0.77891 7.4826,-4.52138 7.48242,-8.94921 l 0,-0.004 0,-0.002 c -3e-4,-0.19602 -0.116,-0.3714 -0.1289,-0.56641 l 22.71873,-18.26758 c 0.494,0.0955 0.9822,0.22962 1.4903,0.23047 l 0.01,0 c 2.6856,-0.003 5.0492,-1.42981 6.5098,-3.53516 l 38.9043,-2.02148 c 1.5112,3.24641 4.7716,5.55712 8.5527,5.55664 5.1824,-0.001 9.4694,-4.28828 9.4688,-9.4707 0,-5.00098 -4.0221,-9.07851 -8.959,-9.36328 l -8.7734,-15.97071 c 29.7169,-21.05866 47.6117,-55.1477 47.6367,-91.72265 l 0,-0.004 0,-0.002 c -0.034,-28.78841 -11.1892,-56.34474 -30.8985,-77.19141 l 4.7012,-4.84375 c 1.8179,0.8502 3.7459,1.4352 5.7832,1.4375 7.6003,-2.5e-4 13.847,-6.2474 13.8457,-13.84766 -2e-4,-7.49567 -6.0847,-13.64719 -13.543,-13.81445 l -4.5703,-10.359373 c 9.5264,-7.84168 15.1774,-19.525856 15.1953,-31.978516 l 0,-0.0039 0,-0.002 c -2e-4,-22.90584 -18.6547,-41.560437 -41.5605,-41.560547 -22.9058,1.7e-4 -41.5605,18.654757 -41.5606,41.560547 l 0,0.002 0,0.002 c 0.014,15.05906 8.2382,28.754882 21.1836,36.064449 l -3.3769,8.63867 c -12.1491,-4.37223 -24.9333,-6.74071 -37.86525,-6.76953 l -0.0117,0 -0.0117,0 c -14.4836,0.0443 -28.76675,3.00859 -42.15625,8.46875 L 929.29102,75.453125 c 2.9091,-2.83961 4.62966,-6.756798 4.63476,-10.923828 l 0,-0.0039 0,-0.002 c 0,-8.405122 -6.89959,-15.304608 -15.30469,-15.304688 -8.4053,-2e-5 -15.30458,6.899505 -15.30468,15.304688 l 0,0.002 0,0.002 c 0,3.22548 1.06961,6.306113 2.91211,8.876953 l -13.1543,16.861328 c -0.4759,-0.0746 -0.94244,-0.201975 -1.42774,-0.203125 l -0.01,0 c -4.0608,-5e-4 -7.49001,2.662582 -8.82031,6.294922 l -29.19532,5.636715 C 840.97269,52.33133 796.26408,17.194056 744.68555,17.128906 l -0.004,0 -0.002,0 z m 0,3.839844 a 108.67099,108.67099 0 0 1 106.03515,85.50195 l 35.46485,-6.847653 a 5.4700179,5.4700179 0 0 1 -0.0117,-0.251953 5.4700179,5.4700179 0 0 1 5.4707,-5.46875 5.4700179,5.4700179 0 0 1 2.89844,0.83789 l 16.89648,-21.662109 a 11.304702,11.304702 0 0 1 -4.11328,-8.714844 11.304702,11.304702 0 0 1 11.30469,-11.304687 11.304702,11.304702 0 0 1 11.30469,11.304687 11.304702,11.304702 0 0 1 -5.70899,9.808594 L 946.38281,117.25 a 108.67099,108.67099 0 0 1 44.08008,-9.49023 108.67099,108.67099 0 0 1 40.20311,7.80664 l 6.0586,-15.50586 a 37.56078,37.56078 0 0 1 -22.1914,-34.238284 37.56078,37.56078 0 0 1 37.5586,-37.560547 37.56078,37.56078 0 0 1 37.5625,37.560547 37.56078,37.56078 0 0 1 -16.1035,30.773437 l 6.9707,15.802737 a 9.8460312,9.8460312 0 0 1 2.2051,-0.26367 9.8460312,9.8460312 0 0 1 9.8457,9.8457 9.8460312,9.8460312 0 0 1 -9.8457,9.84765 9.8460312,9.8460312 0 0 1 -6.4961,-2.45507 l -9.4883,9.7832 a 108.67099,108.67099 0 0 1 32.3926,77.27344 108.67099,108.67099 0 0 1 -48.8067,90.62109 l 11.6817,21.26367 a 5.4700179,5.4700179 0 0 1 1.7519,-0.29492 5.4700179,5.4700179 0 0 1 5.4688,5.46875 5.4700179,5.4700179 0 0 1 -5.4688,5.4707 5.4700179,5.4700179 0 0 1 -5.4707,-5.4707 5.4700179,5.4700179 0 0 1 0.014,-0.25195 l -44.5508,2.31445 a 4.0113468,4.0113468 0 0 1 -3.9609,3.4082 4.0113468,4.0113468 0 0 1 -2.293,-0.7246 l -26.28516,21.14257 a 5.1053486,5.1053486 0 0 1 0.49805,2.19141 5.1053486,5.1053486 0 0 1 -5.10547,5.10547 5.1053486,5.1053486 0 0 1 -5.10547,-5.10547 5.1053486,5.1053486 0 0 1 5.00586,-5.10156 l 2.21289,-32.08789 a 108.67099,108.67099 0 0 1 -72.73632,-39.66602 l -30.9336,21.92578 a 21.150732,21.150732 0 0 1 2.36719,9.71094 A 21.150732,21.150732 0 0 1 856.26758,337.5 21.150732,21.150732 0 0 1 835.68164,321.0918 l -87.75586,-6.51563 a 37.56078,37.56078 0 0 1 -37.16016,32.4043 37.56078,37.56078 0 0 1 -37.5625,-37.56055 37.56078,37.56078 0 0 1 37.5625,-37.56054 37.56078,37.56078 0 0 1 4.60157,0.3164 l 6.25586,-36.40625 A 108.67099,108.67099 0 0 1 636.00781,129.63867 108.67099,108.67099 0 0 1 744.67969,20.96875 Z m -0.01,4.160156 c -57.8494,0.0062 -104.65815,46.817262 -104.66015,104.667974 0.0302,49.25033 34.33548,91.77648 82.46484,102.2246 l 1.28711,0.2793 1.55859,0.29883 c 6.38164,1.22354 12.86352,1.84949 19.36133,1.87109 18.19739,-0.0477 36.06679,-4.8386 51.84766,-13.90039 l 1.67382,-0.96093 0,-0.002 c 21.24041,-12.66958 37.30602,-32.44783 45.35352,-55.83398 l 1.07422,-3.1211 0.43359,-1.46484 c 2.8165,-9.5396 4.25851,-19.43232 4.28321,-29.37891 -0.04,-7.13968 -0.81764,-14.25374 -2.30664,-21.23632 l -0.23633,-1.08789 C 836.31929,59.43487 793.85732,25.193706 744.67773,25.128906 l -0.002,0 -0.006,0 z m -0.0176,3.830078 A 100.73679,100.73679 0 0 1 845.38867,129.69531 100.73679,100.73679 0 0 1 744.65234,230.43164 100.73679,100.73679 0 0 1 643.91406,129.69531 100.73679,100.73679 0 0 1 744.65234,28.958984 Z m 307.44341,3.462891 c -18.581,1.4e-4 -33.5606,14.976171 -33.5606,33.556641 l 0,0.002 0,0.002 c 0.014,13.22014 7.7669,25.178949 19.8301,30.58789 l 1.0175,0.457032 1.4883,0.535156 c 3.6032,1.29612 7.4013,1.965769 11.2305,1.980469 6.2401,-0.0101 12.3533,-1.760025 17.6543,-5.052735 l 0.4804,-0.298828 1.0332,-0.71875 c 9.0031,-6.26711 14.3707,-16.526533 14.3867,-27.496094 0,-18.579588 -14.9801,-33.554597 -33.5605,-33.554687 z M 918.62695,57.21875 c -4.081,-1e-5 -7.30468,3.222024 -7.30468,7.302734 l 0,0.002 c 0,2.181069 0.9749,4.241706 2.6582,5.628906 l 0.30469,0.251953 0.20898,0.142578 c 1.2152,0.83351 2.65355,1.28025 4.12695,1.28125 0.8301,-0.003 1.6521,-0.147804 2.4336,-0.427734 l 0.63086,-0.226563 0.55664,-0.316406 c 2.2824,-1.30025 3.68945,-3.709388 3.68945,-6.335938 -10e-4,-4.08067 -3.22379,-7.302694 -7.30469,-7.302734 z m -6.39648,16.466797 -16.89453,21.662109 a 5.4700179,5.4700179 0 0 1 1.77344,4.023438 5.4700179,5.4700179 0 0 1 -1.94336,4.175786 l 25.35937,29.85546 a 108.67099,108.67099 0 0 1 24.0293,-15.33398 L 922.40234,75.005859 a 11.304702,11.304702 0 0 1 -3.77734,0.66211 11.304702,11.304702 0 0 1 -6.39453,-1.982422 z m 1.20117,5.134765 c 1.6676,0.60677 3.40141,1.007803 5.19531,1.007813 l 0.01,0 0.01,0 c 0.5205,-0.002 1.01135,-0.213228 1.52735,-0.267578 l 19.05664,37.042973 c -6.3771,3.26666 -12.41199,7.11915 -18.05469,11.53515 L 900.2407,103.49023 c 0.5661,-1.22707 0.87751,-2.57342 0.87891,-3.955074 l 0,-0.0059 0,-0.0039 c 0,-1.3407 -0.29768,-2.646257 -0.83398,-3.845703 l 13.14648,-16.859376 z m 158.43356,18.908204 a 37.56078,37.56078 0 0 1 -19.7714,5.654294 37.56078,37.56078 0 0 1 -12.5782,-2.21679 l -6.0547,15.49804 a 108.67099,108.67099 0 0 1 31.8184,21.12891 l 9.5918,-9.89063 a 9.8460312,9.8460312 0 0 1 -1.9902,-5.92187 9.8460312,9.8460312 0 0 1 5.7421,-8.93555 l -6.7578,-15.316404 z m -180.22848,0.335937 c -0.855,0.002 -1.46488,0.607961 -1.46484,1.462891 1.8e-4,0.003 -2e-4,0.0068 0,0.0098 l 0.0137,0.183594 0.0312,0.144531 c 0.1592,0.683141 0.72353,1.129771 1.42382,1.134761 0.25141,-0.002 0.4985,-0.0665 0.7168,-0.19141 l 0.13281,-0.0762 0.0996,-0.084 c 0.3316,-0.27962 0.51948,-0.683675 0.51954,-1.117185 0,-0.41079 -0.17161,-0.796429 -0.47461,-1.074219 l -0.10352,-0.0957 -0.11914,-0.07422 c -0.2317,-0.14555 -0.49994,-0.220656 -0.77344,-0.222656 l -0.002,0 z m -5.31641,2.548827 -35.38672,6.83203 a 108.67099,108.67099 0 0 1 2.41602,22.19336 108.67099,108.67099 0 0 1 -4.44727,30.52149 l 41.25586,14.53906 A 108.67099,108.67099 0 0 1 919.77539,134.0625 L 894.3418,104.11914 a 5.4700179,5.4700179 0 0 1 -2.70118,0.72266 5.4700179,5.4700179 0 0 1 -5.32031,-4.22852 z m 183.61519,2.81055 3.6719,8.32031 c -2.9458,2.58517 -4.7186,6.35368 -4.7246,10.39063 l 0,0.006 0,0.006 c 0,1.80236 0.4607,3.52787 1.1348,5.17579 l -4.9668,5.12109 c -7.9681,-7.09484 -16.8861,-13.01177 -26.5215,-17.59375 l 3.4199,-8.75391 c 3.3177,0.85021 6.698,1.43489 10.1328,1.44727 l 0.01,0 0.01,0 c 6.2007,-0.008 12.273,-1.46264 17.8339,-4.11914 z M 884.23633,105.25 c 1.7532,2.25735 4.41459,3.74815 7.40039,3.75195 l 0.01,0 0.01,0 c 0.4423,-10e-4 0.86969,-0.11137 1.30469,-0.17383 l 21.33984,25.125 c -11.0329,10.13593 -19.91255,22.3325 -26.16016,35.95118 l -34.45117,-12.14063 c 2.3635,-9.13179 3.64237,-18.51238 3.66407,-27.95508 l 0,-0.0156 0,-0.0156 c -0.035,-6.3723 -0.74657,-12.70832 -1.85547,-18.97851 L 884.23633,105.25 Z m 106.23047,6.66992 c -14.6334,0.0462 -29.09372,3.15983 -42.44922,9.14063 l -1.77149,0.79297 0,0.002 c -8.2741,3.85979 -16.00039,8.79426 -22.99609,14.66015 l -0.87305,0.7461 c -12.4384,10.63737 -22.20914,24.04466 -28.52734,39.14258 l -0.29883,0.71289 0.0449,0.0156 -1.39453,3.80274 c -4.1899,11.42056 -6.35733,23.48374 -6.40429,35.64843 0.041,7.19666 0.82333,14.3702 2.33593,21.40625 l 0.0957,0.44336 0.33203,1.45899 c 3.3195,14.57913 9.72295,28.27775 18.78125,40.17383 l 1.56836,2.05859 0.1875,0.23242 c 17.3923,21.48766 42.57394,35.22001 70.05664,38.20508 l 1.60742,0.17578 c 3.2271,0.31527 6.46638,0.50894 9.70898,0.52344 5.5522,-0.0194 11.09523,-0.48046 16.57423,-1.37891 l 2.1074,-0.3457 c 13.1967,-2.39374 25.8006,-7.30082 37.1446,-14.45508 l 1.832,-1.20898 c 29.3314,-19.3604 46.9838,-52.13483 47.0098,-87.2793 -0.033,-27.862 -11.1857,-54.5394 -30.9551,-74.1582 l -1.666,-1.5918 c -8.8612,-8.47014 -19.1461,-15.30393 -30.375,-20.2168 l -2.961,-1.1875 c -12.3109,-4.93655 -25.4492,-7.48853 -38.71288,-7.51953 l -0.002,0 z m 0.18164,3.67969 A 100.73679,100.73679 0 0 1 1091.3867,216.33594 100.73679,100.73679 0 0 1 990.64844,317.07227 100.73679,100.73679 0 0 1 889.91211,216.33594 100.73679,100.73679 0 0 1 990.64844,115.59961 Z m 92.08986,0.69727 c -0.4352,0.004 -0.8694,0.0542 -1.293,0.15429 l -0.6211,0.14649 -0.5312,0.24414 c -2.0822,0.95474 -3.3982,3.01045 -3.4082,5.30078 0,1.26694 0.4158,2.49684 1.1797,3.50781 l 0.373,0.49414 0.4395,0.38672 c 1.0664,0.93861 2.4348,1.45503 3.8554,1.45703 3.2745,-0.002 5.8424,-2.5726 5.8418,-5.84766 -10e-5,-3.2724 -2.565,-5.83778 -5.8359,-5.84374 z m -235.3965,48.61718 a 108.67099,108.67099 0 0 1 -47.08789,57.96875 l 9.04101,15.40625 a 13.857377,13.857377 0 0 1 6.12891,-1.4375 13.857377,13.857377 0 0 1 13.69531,11.81641 l 55.10156,-9.99805 a 108.67099,108.67099 0 0 1 -2.42578,-22.24023 108.67099,108.67099 0 0 1 6.64844,-37.03125 L 847.3418,164.91406 Z m 2.30273,5.21485 0.002,0 33.81446,11.91601 c -3.6412,11.15167 -5.62108,22.78367 -5.66406,34.53125 l 0,0.0176 0,0.0176 c 0.035,6.37403 0.74802,12.71061 1.85742,18.98242 l -47.7168,8.6582 c -2.6657,-6.62468 -9.11261,-11.23439 -16.50781,-11.24023 l -0.0117,0 c -1.4715,0.002 -2.9222,0.21629 -4.33985,0.57422 l -5.45312,-9.29297 c 20.0525,-12.94355 35.44923,-31.88983 44.01953,-54.16406 z m -51.125,53.75 a 108.67099,108.67099 0 0 1 -53.83984,14.43164 108.67099,108.67099 0 0 1 -20.11524,-1.94336 l -6.23437,36.26953 a 37.56078,37.56078 0 0 1 24.9375,18.05273 l 59.72265,-33.88476 a 13.857377,13.857377 0 0 1 -1.42382,-6.09571 13.857377,13.857377 0 0 1 6.00781,-11.40039 l -9.05469,-15.42968 z m -1.57226,5.3789 5.52734,9.42188 c -3.0837,3.27352 -4.89985,7.59647 -4.90625,12.18359 l 0,0.006 0,0.006 c 0,1.44202 0.20423,2.86703 0.54883,4.25781 l -53.73242,30.48438 c -5.29364,-7.43294 -12.80463,-12.85813 -21.52735,-15.54492 l 4.99219,-29.03711 c 5.5686,0.85987 11.17997,1.41752 16.81836,1.43554 l 0.0117,0 0.0117,0 c 18.26164,-0.0462 36.14277,-4.70324 52.25586,-13.21289 z m 87.70898,11.36328 -55.37695,10.04883 a 13.857377,13.857377 0 0 1 0,0.0391 13.857377,13.857377 0 0 1 -6.06446,11.44141 l 22.72461,35.76953 a 21.150732,21.150732 0 0 1 10.32617,-2.7207 21.150732,21.150732 0 0 1 17.19922,8.88476 l 30.69141,-21.7539 a 108.67099,108.67099 0 0 1 -19.5,-41.70899 z m -69.23047,0.39063 c -1.5105,0.003 -3.00157,0.35345 -4.35547,1.02344 l -0.59179,0.29296 -0.63672,0.4375 c -2.6732,1.83747 -4.26744,4.85999 -4.27344,8.10352 0,1.50181 0.35057,2.98253 1.01367,4.33008 l 0.25781,0.52344 0.26172,0.41406 c 1.8085,2.85992 4.94247,4.58784 8.32617,4.58984 1.4928,-0.004 2.96359,-0.34626 4.30469,-1.00195 l 0.62891,-0.30664 0.60742,-0.41406 c 2.691,-1.83015 4.29735,-4.86019 4.31055,-8.11329 l -0.0547,-1.05273 -0.0606,-0.41992 c -0.7229,-4.85463 -4.83048,-8.40025 -9.73828,-8.40625 z m 66.37891,4.35156 0.006,0 c 3.4206,12.96136 9.11754,25.17349 16.83984,36.12891 l -24.62891,17.45703 c -4.6766,-4.73137 -10.98649,-7.57975 -17.74609,-7.58984 l -0.0117,0 -0.01,0 c -3.008,0.007 -5.91384,0.73731 -8.71094,1.7871 L 828.41016,263.0332 c 2.7687,-2.95458 4.39787,-6.77893 4.70507,-10.86523 l 0.23047,-0.041 0.10157,2.01172 48.35742,-8.77539 z m -78.08594,12.75195 -59.70313,33.875 a 37.56078,37.56078 0 0 1 4.31055,17.42969 37.56078,37.56078 0 0 1 -0.1582,3.16797 l 87.14844,6.47266 a 21.150732,21.150732 0 0 1 -0.19922,-2.71094 21.150732,21.150732 0 0 1 9.125,-17.37305 L 821.48828,263.1582 a 13.857377,13.857377 0 0 1 -6.06445,1.40821 13.857377,13.857377 0 0 1 -11.70508,-6.45118 z m -0.92383,5.2793 0.008,0 c 3.3142,3.33911 7.8158,5.32956 12.6211,5.33203 1.4852,-0.002 2.9489,-0.22864 4.3789,-0.59375 l 19.24805,30.30078 c -4.5517,4.3323 -7.32814,10.15531 -7.74414,16.47852 l -79.01953,-5.86719 c -0.073,-5.2361 -1.15474,-10.38618 -3.13867,-15.21094 l 53.64648,-30.43945 z m -92.03711,12.62695 c -18.5774,0.006 -33.55066,14.97963 -33.55078,33.5586 1.2e-4,18.58301 14.97949,33.56149 33.5625,33.56054 16.76787,-0.022 30.89527,-12.34359 33.19727,-28.95312 l 0.16015,-1.16211 0.0606,-0.64453 c 0.0862,-0.93267 0.13067,-1.87003 0.13867,-2.80664 -0.008,-5.41876 -1.327,-10.75297 -3.8457,-15.55078 l -0.67774,-1.17969 c -4.78252,-8.3153 -12.89024,-14.18427 -22.2832,-16.13086 l -0.80664,-0.16601 -1.86133,-0.24415 c -1.35758,-0.17761 -2.72466,-0.27065 -4.09375,-0.28125 z m 145.51367,23.33985 c -2.9313,0.008 -5.81093,0.76684 -8.36523,2.20508 l -0.76563,0.42968 -0.62304,0.43164 c -4.6265,3.19767 -7.38429,8.44894 -7.39649,14.07227 0.01,0.72629 0.0601,1.4524 0.16016,2.17188 l 0.12891,0.92773 0.17382,0.75586 c 1.7948,7.80071 8.68886,13.29469 16.69336,13.30469 9.5158,-0.003 17.14454,-7.63211 17.14454,-17.14844 0,-2.74059 -0.66003,-5.44113 -1.91993,-7.875 l -0.49023,-0.94727 -0.80078,-1.125 c -3.2133,-4.51391 -8.39906,-7.19222 -13.93946,-7.20312 z m 192.82622,8.55859 a 108.67099,108.67099 0 0 1 -39.9239,15.54688 l 1.1016,7.5 a 4.0113468,4.0113468 0 0 1 3.5039,3.58008 l 44.668,-2.32032 a 5.4700179,5.4700179 0 0 1 2.2226,-3.24218 l -11.5722,-21.06446 z m -1.5469,5.65039 8.2148,14.95117 -39.5156,2.05274 c -0.6318,-0.89513 -1.4036,-1.65522 -2.3398,-2.23047 l -0.2403,-1.63867 c 11.9408,-2.51533 23.3647,-6.94767 33.8809,-13.13477 z m -39.8613,10.09961 a 108.67099,108.67099 0 0 1 -17.22466,1.43164 108.67099,108.67099 0 0 1 -10.75195,-0.58008 l -2.20898,32.0254 a 5.1053486,5.1053486 0 0 1 3.18945,1.96679 l 26.05464,-20.95703 a 4.0113468,4.0113468 0 0 1 -0.9668,-2.60937 4.0113468,4.0113468 0 0 1 2.9942,-3.87696 l -1.0859,-7.40039 z m -3.3887,4.60547 0.1504,1.01758 c -1.6068,1.48337 -2.6661,3.52679 -2.668,5.81055 l 0,0.004 0,0.002 c 3e-4,0.4411 0.1588,0.85274 0.2305,1.2832 l -20.21878,16.26367 1.63867,-23.77344 c 2.3374,0.15616 4.67243,0.36875 7.01563,0.37891 l 0.0156,0 0.0156,0 c 4.6256,-0.0153 9.23393,-0.40348 13.82028,-0.98633 z m 59.4687,3.90625 c -0.1568,0.002 -0.3125,0.0273 -0.4609,0.0781 l -0.2129,0.0723 -0.1582,0.10938 c -0.3011,0.20701 -0.5127,0.5156 -0.5977,0.87109 l -0.025,0.10547 -0.016,0.23828 c 0,0.85424 0.6107,1.463 1.4668,1.46289 0.8592,-1.9e-4 1.4689,-0.61152 1.4688,-1.4707 -2e-4,-0.85727 -0.6085,-1.4638 -1.4649,-1.4668 z m -53.9785,2.91797 c -0.024,0.005 -0.012,0.002 -0.012,0.01 l 0.012,0.008 c 0.01,0.005 0.01,0.0162 0.01,-0.008 l 0,-0.002 c 0,-0.0222 5e-4,-0.0106 -0.01,-0.008 z m -33.09764,25.52539 -0.10547,0.002 c -0.6455,0.0126 -1.08398,0.45638 -1.08398,1.10157 l 0,0.002 c 9e-4,0.65673 0.44826,1.10353 1.10547,1.10351 0.65709,0 1.10456,-0.44679 1.10546,-1.10351 -8e-4,-0.16296 -0.037,-0.3236 -0.10742,-0.4707 l -0.0488,-0.0977 -0.0664,-0.0918 c -0.1686,-0.22533 -0.41236,-0.37628 -0.68946,-0.42578 l -0.10937,-0.0195 z"
       transform="translate(208.14291,237.33733)"
       id="path4304"
       inkscape:connector-curvature="0" />
  </g>
</svg>
