<?xml version="1.0" encoding="UTF-8" standalone="no"?>
<svg
   xmlns:dc="http://purl.org/dc/elements/1.1/"
   xmlns:cc="http://creativecommons.org/ns#"
   xmlns:rdf="http://www.w3.org/1999/02/22-rdf-syntax-ns#"
   xmlns:svg="http://www.w3.org/2000/svg"
   xmlns="http://www.w3.org/2000/svg"
   xmlns:xlink="http://www.w3.org/1999/xlink"
   xmlns:sodipodi="http://sodipodi.sourceforge.net/DTD/sodipodi-0.dtd"
   xmlns:inkscape="http://www.inkscape.org/namespaces/inkscape"
   version="1.0"
   width="781.90381"
   height="925.85858"
   viewBox="0 0 625.52305 740.68687"
   preserveAspectRatio="xMidYMid meet"
   id="svg2"
   inkscape:version="0.91 r13725"
   sodipodi:docname="Wordpress.svg">
  <defs
     id="defs20">
    <linearGradient
       inkscape:collect="always"
       id="linearGradient4157">
      <stop
         style="stop-color:#21759b;stop-opacity:1"
         offset="0"
         id="stop4159" />
      <stop
         style="stop-color:#21759b;stop-opacity:0"
         offset="1"
         id="stop4161" />
    </linearGradient>
    <linearGradient
       inkscape:collect="always"
       xlink:href="#linearGradient4157"
       id="linearGradient4163"
       x1="-513.57318"
       y1="343.95837"
       x2="-682.04694"
       y2="-28.314238"
       gradientUnits="userSpaceOnUse"
       gradientTransform="matrix(0.9787868,0,0,0.9787868,1188.9043,160.96181)" />
  </defs>
  <sodipodi:namedview
     pagecolor="#ffffff"
     bordercolor="#666666"
     borderopacity="1"
     objecttolerance="10"
     gridtolerance="10"
     guidetolerance="10"
     inkscape:pageopacity="0"
     inkscape:pageshadow="2"
     inkscape:window-width="1383"
     inkscape:window-height="861"
     id="namedview18"
     showgrid="false"
     units="px"
     inkscape:zoom="0.41635564"
     inkscape:cx="647.11427"
     inkscape:cy="495.37587"
     inkscape:window-x="62"
     inkscape:window-y="0"
     inkscape:window-maximized="0"
     inkscape:current-layer="svg2"
     fit-margin-top="0"
     fit-margin-left="0"
     fit-margin-right="0"
     fit-margin-bottom="0" />
  <metadata
     id="metadata4">
Created by potrace 1.13, written by Peter Selinger 2001-2015
<rdf:RDF>
  <cc:Work
     rdf:about="">
    <dc:format>image/svg+xml</dc:format>
    <dc:type
       rdf:resource="http://purl.org/dc/dcmitype/StillImage" />
    <dc:title />
  </cc:Work>
</rdf:RDF>
</metadata>
  <g
     id="g4165"
     transform="matrix(0.9931912,0,0,0.9931912,-275.8276,94.234235)">
    <circle
       r="199.47565"
       cy="319.42542"
       cx="598.45636"
       id="path4147"
       style="opacity:1;fill:url(#linearGradient4163);fill-opacity:1;stroke:none;stroke-width:1.60000002;stroke-linecap:round;stroke-linejoin:miter;stroke-miterlimit:4;stroke-dasharray:none;stroke-dashoffset:0;stroke-opacity:1" />
    <g
       transform="matrix(1.1245236,0,0,1.1245236,-557.64002,-40.24556)"
       id="g4572">
      <path
         style="fill:#000000;stroke:none"
         inkscape:connector-curvature="0"
         id="path10"
         d="m 1009.1534,142.92766 c -61.24071,7.00848 -112.88651,43.1355 -140.58667,98.28554 -2.33616,4.67231 -4.25515,8.67716 -4.25515,8.92746 0,0.2503 18.7727,0.41717 41.71712,0.41717 l 41.71712,0 0,3.25394 0,3.1705 -5.59009,0.58404 c -10.92989,1.16808 -16.10281,5.33979 -16.10281,13.01574 0,4.08828 1.50181,9.5115 5.84039,21.27573 2.83677,7.84282 51.47893,128.48873 52.48014,130.40772 0.33374,0.58404 8.92746,-19.02301 20.44135,-46.89005 l 19.8574,-47.97468 -3.9214,-10.26242 c -19.2733,-50.64458 -24.27938,-57.73649 -42.13431,-59.65548 l -6.25757,-0.66747 -0.2503,-3.1705 -0.25031,-3.08707 61.74139,0 61.8247,0 0,3.33737 0,3.33737 -4.3386,0 c -2.4195,0.0834 -7.0084,0.58404 -10.1789,1.16808 -5.0895,1.00121 -6.2576,1.58525 -9.0109,4.50545 -4.422,4.83918 -4.3386,7.67595 1.3349,23.69532 3.254,9.34464 40.7994,107.37987 49.0593,128.32186 0.8344,2.00243 0.8344,2.00243 2.9202,-2.00242 3.3374,-6.50787 17.3544,-43.30237 20.6083,-54.06539 6.341,-20.85856 8.4269,-36.62763 7.7594,-56.56841 -0.6675,-17.10402 -2.1693,-24.8634 -9.0109,-45.47166 -5.1729,-15.68564 -5.2564,-15.93594 -5.2564,-25.44744 -0.083,-9.76181 0.6675,-12.59857 4.6724,-17.60463 2.4195,-2.9202 8.5102,-6.50787 13.5997,-7.84282 l 5.3398,-1.50181 -4.7557,-5.3398 c -11.1802,-12.84887 -30.7873,-27.70016 -48.7256,-36.87793 -17.3543,-9.0109 -34.8755,-14.85129 -54.0654,-18.0218 -9.4281,-1.58525 -36.7945,-2.33615 -46.2226,-1.25151 z" />
      <path
         style="fill:#000000;stroke:none"
         inkscape:connector-curvature="0"
         id="path12"
         d="m 1195.9627,265.99317 c -0.3338,0.91777 -3.7546,9.5115 -7.5925,19.18987 -10.9299,27.70017 -71.2529,186.80926 -71.086,187.47674 0.3337,0.83434 12.0145,-6.59131 19.023,-12.09797 15.3519,-11.93109 29.0351,-26.69895 39.6313,-42.71833 23.1947,-34.95894 33.2902,-76.84293 28.3676,-118.05945 -1.1681,-10.01211 -4.0048,-23.86219 -6.5079,-31.70501 -1.0012,-3.08707 -1.3349,-3.50424 -1.8355,-2.08585 z" />
      <path
         style="fill:#000000;stroke:none"
         inkscape:connector-curvature="0"
         id="path14"
         d="m 855.21725,277.84083 c -3.58767,15.76907 -4.50545,24.19593 -4.58889,41.55025 0,12.01453 0.41718,19.35674 1.41839,26.28178 8.09312,51.97954 37.37854,96.95059 81.26495,124.48389 4.33858,2.75333 8.00968,4.83919 8.17655,4.67232 0.33374,-0.2503 -67.08113,-168.03656 -73.8393,-183.80563 -3.58767,-8.42686 -9.84524,-21.27573 -10.26241,-21.27573 -0.16687,0 -1.16808,3.58767 -2.16929,8.09312 z" />
      <path
         style="fill:#000000;stroke:none"
         inkscape:connector-curvature="0"
         id="path16"
         d="m 1002.5621,416.84227 c -16.3531,38.71349 -29.78601,70.75224 -29.78601,71.25284 0,0.91778 12.68201,4.50545 23.27815,6.50787 25.53086,4.67232 55.56716,3.1705 81.34836,-4.25514 4.1717,-1.16808 7.9263,-2.4196 8.26,-2.75333 0.5006,-0.50061 -52.0629,-139.66892 -53.1476,-140.837 -0.1669,-0.16687 -13.5998,31.37127 -29.9529,70.08476 z" />
    </g>
  </g>
  <g
     id="g4173">
    <path
       sodipodi:nodetypes="ccccccccccccccccccccccccccccccccccccccccccccccccccccccccccccccccccccccccccccccccccccccccccccccccccccccccccccccccccccccccccccccccccccccsccccccccccccccsccccccccccccccccccccccccccccccccccccccccccccccccccccccccccccccccccccccccccccccccccccccccccccccccccccccccccccccccccccccccccccccccccccccccccccccccccccccccccccccccccc"
       inkscape:connector-curvature="0"
       id="path4648"
       d="M 314.10053,2.701429e-4 C 275.80823,-0.06072986 244.16873,30.499623 243.13023,68.997143 l 0,0.003 0,0.003 c -0.3118,12.12183 2.6312,24.04101 8.2547,34.743747 l -132.9313,89.15625 c -12.2915,-14.46297 -30.119417,-23.15869 -49.192138,-23.68749 -36.9988,-0.99908 -67.8783229,28.2554 -68.87656286,65.25468 l 0,0.002 0,0.003 c -0.91712,35.22334 25.63288286,64.91658 60.32968286,68.41094 l -0.96408,177.60938 c -25.328,2.99558 -44.9768,24.15164 -45.68752,49.96406 l 0,0.002 c -0.77104,28.55976 21.82472,52.41144 50.3844,53.18281 15.293921,0.38989 29.868161,-6.06602 39.967198,-17.42031 l 162.70932,102.16566 c -3.0611,6.3764 -4.8401,13.29936 -5.0421,20.39376 l 0,0.008 c -0.7515,27.85648 21.292,51.12464 49.1484,51.87656 27.8565,0.75152 51.123,-21.292 51.875,-49.1484 l 0,-0.008 0,-0.008 c 0.097,-4.21072 -0.4794,-8.38528 -1.4234,-12.48128 l 102.3046,-36.67658 c 7.0306,12.9873 20.4223,21.42618 35.3423,21.84378 22.934,0.61888 42.1028,-17.54262 42.7218,-40.4766 l 0,-0.002 0,-0.003 c 0.394,-15.1687 -7.5711,-29.17734 -20.4797,-36.81094 l 56.1875,-111.95624 c 4.1516,1.91108 8.6425,3.00536 13.236,3.13437 18.7152,0.50561 34.3732,-14.32998 34.878,-33.04531 0.506,-18.71532 -14.3298,-34.37013 -33.0452,-34.875 -1.9714,-0.0506 -3.9315,0.13438 -5.8781,0.425 l -47.9547,-132.36875 c 7.6889,-4.24484 12.7008,-12.27237 12.9515,-21.21094 l 0,-0.003 0,-0.002 c 0.3721,-13.79227 -10.5781,-25.34988 -24.3703,-25.72188 -7.479,-0.19174 -14.4579,3.11772 -19.325,8.65782 l -88.7766,-50.10617 c 0.3361,-1.27984 0.5607,-2.586 0.5984,-3.91562 l 0,-0.003 0,-0.003 c 0.2581,-9.57242 -7.3635,-17.61792 -16.9359,-17.87656 -9.5732,-0.25895 -17.6178,7.36285 -17.8765,16.93593 l 0,0.003 0,0.003 c -0.1446,5.64746 2.5713,10.82862 6.964,14.17657 l -5.9124,13.69375 c -12.096,-4.07875 -24.7715,-7.13014 -38.0485,-9.15625 -4.8585,-0.7288 -17.1627,-1.39532 -27.8656,-1.68125 l -0.5266,-60.52187 c 35.8028,-2.9583 64.0439,-32.39472 65.0313,-68.656257 1.025,-37.98998 -28.1481,-69.7809429 -65.6641,-72.54062286 l 0,-0.16719 -3.3093,-0.0891 c -0.6111,-0.0165 -1.2203,-0.0255 -1.8282,-0.0265999970967 z m -0.014,3.4015599571 c 0.5788,8e-4 1.1587,0.009 1.7406,0.025 37.2712,1.00541 66.6713,32.0334629 65.6656,69.3046929 -0.9696,35.617437 -29.453,64.350117 -65.0608,65.629687 0.3622,21.36632 0.1989,46.70889 0.4843,67.71249 l 4.0109,0.19219 c 10.5596,0.31112 22.5884,0.98832 26.7079,1.60625 15.2062,3.07755 26.9753,4.87903 40.2812,10.20156 2.7253,-6.63566 5.6407,-13.44143 8.5188,-20.10781 -4.8829,-2.42374 -7.9178,-7.45978 -7.7782,-12.90937 0.2091,-7.73568 6.6503,-13.83737 14.3859,-13.62813 7.7352,0.20902 13.8367,6.64926 13.6282,14.38438 -0.055,1.93302 -0.5104,3.83406 -1.3359,5.58281 l 93.6234,52.84687 c 4.1327,-6.14779 11.1214,-9.75704 18.5266,-9.56718 11.9549,0.32246 21.3849,10.27638 21.0625,22.23125 -0.2442,8.70552 -5.6802,16.41669 -13.7969,19.57344 l 49.9703,137.93281 c 2.6233,-0.63896 5.3195,-0.92868 8.0187,-0.85938 16.8779,0.45538 30.192,14.50802 29.736,31.38594 -0.4553,16.87791 -14.5081,30.19036 -31.386,29.73437 -5.2333,-0.147 -10.3413,-1.63598 -14.8343,-4.32343 l -59.1578,117.87812 c 13.5118,6.53906 21.9428,20.38322 21.5531,35.38906 -0.5696,21.0966 -18.1332,37.73794 -39.2297,37.16874 -14.6912,-0.4112 -27.8453,-9.21175 -33.8313,-22.63436 l -107.8546,38.66724 c 1.4171,4.73352 2.0808,9.66168 1.9672,14.60152 -0.7024,26.01896 -22.3639,46.54264 -48.3829,45.84064 -26.0192,-0.7024 -46.5426,-22.36728 -45.8406,-48.38432 0.2172,-7.63336 2.2848,-15.09664 6.0266,-21.75328 L 103.78645,561.81121 c -9.446397,11.98955 -23.995677,18.8218 -39.254638,18.4328 -26.7224,-0.72176 -47.79976,-22.96978 -47.07816,-49.69218 0.69248,-25.15627 20.54712,-45.58542 45.67344,-46.99531 l 0.99688,-183.73594 C 29.644852,298.02064 2.8785291,269.0756 3.7770891,234.56121 4.7257321,199.39936 33.999812,171.66527 69.161492,172.61433 c 19.127361,0.53032 37.002958,9.6326 48.682838,24.78906 l 137.8968,-92.48594 c -6.3483,-10.850897 -9.5404,-23.259237 -9.2172,-35.826557 0.9897,-36.68836 31.0721,-65.7483629 67.5625,-65.6890629 z M 257.55533,107.79401 119.81473,200.1737 c 7.6748,11.09359 11.6285,24.33805 11.2921,37.82344 -0.4106,14.25853 -5.5957,27.96608 -14.7249,38.92656 l 29.4765,24.79688 c 3.428,-4.77109 8.5714,-12.37757 12.1187,-17.0375 7.2096,-9.42783 23.3776,-25.93587 32.7297,-33.38594 l 0.01,-0.006 c 30.0128,-24.04304 66.182,-39.41399 102.9829,-43.82031 3.9796,-0.42454 8.5676,-1.01511 9.9531,-1.16094 0.018,-0.002 0.037,-0.002 0.054,-0.005 -0.054,0.005 9.8938,-0.21565 9.8938,-0.21562 0,0 -0.4155,-49.92531 -0.5703,-67.69844 -0.2816,0.004 -0.5622,0.006 -0.8438,0.006 -22.1264,-0.628 -42.5392,-12.06242 -54.6312,-30.60313 z m -0.7844,4.625 c 12.4004,17.12627 31.7585,27.82611 52.8953,29.15782 l 0.525,60.29062 c -3.0664,0.01 -5.6397,0.0704 -6.9844,0.22969 -1.5853,0.16685 -6.0926,0.75003 -10.0141,1.16719 -37.6288,4.50546 -74.5063,20.19066 -105.1265,44.72032 -9.8454,7.84282 -25.8635,24.19632 -33.4563,34.125 -3.6175,4.73762 -6.9796,9.46528 -10.1031,14.21562 l -23.4469,-19.92031 c 8.3056,-11.06555 13.0534,-24.42581 13.4532,-38.31095 l 0,-0.006 0,-0.008 c 0.3254,-13.04568 -3.326,-25.7938 -10.1594,-36.85312 z m 156.7438,81.85313 c -2.7395,3.37023 -6.8864,5.27907 -11.2282,5.16875 -0.8893,-0.0257 -1.7738,-0.1362 -2.6422,-0.32968 -0.9218,3.75351 -8.3078,20.22968 -8.3078,20.22968 25.8194,10.11956 51.6707,26.17234 72.0734,46.575 6.9741,6.97401 13.3301,14.23648 19.0797,21.81407 l 1.9219,2.50312 c 0,0 17.121,-13.53258 25.6469,-20.34063 -3.2305,-3.99828 -4.9325,-9.01604 -4.8031,-14.15468 0.082,-2.95636 0.7691,-5.86476 2.0187,-8.54532 z m 0.5249,4.20313 0,0 89.1015,50.29218 c -0.7116,2.23244 -1.2264,4.52228 -1.2921,6.875 l 0,0.005 0,0.005 c -0.1207,4.79199 1.1944,9.46044 3.6437,13.52656 l -19.7952,15.81095 c -5.8288,-7.67097 -12.2587,-15.02102 -19.3064,-22.06875 -20.7509,-20.75092 -44.1881,-36.23329 -70.4952,-46.57344 l 5.8531,-13.56094 c 0.1427,0.008 0.2819,0.0487 0.425,0.0531 l 0.011,0 0.011,0 c 4.3972,0.1117 8.5813,-1.51565 11.8422,-4.36406 z m -97.8374,10.70781 0,0.002 c -0.4044,3e-4 -0.7803,0.0102 -1.1375,0.0313 -0.4835,0.0256 -0.9285,0.0621 -1.4063,0.0891 l -3.3906,0.2125 c -18.3283,1.20358 -32.5966,3.54425 -47.0187,7.69844 l -0.014,0.005 c -70.9008,20.6226 -124.6078,78.34372 -140.5376,150.75156 l 0,0.011 c -8.3795,38.56291 -4.3949,82.74562 10.9953,119.34375 0.9744,2.28988 2.028,4.6125 3.0531,6.92354 26.3442,56.85688 77.4825,98.28393 138.8453,111.96562 39.4651,8.79848 83.5312,4.8939 120.6172,-10.65782 60.4099,-25.30568 104.6579,-78.07538 118.8891,-141.90312 l 0,-0.002 c 8.6276,-38.78093 5.0687,-82.24052 -9.8078,-118.66249 l 0,-0.003 c -5.8262,-14.23947 -13.1727,-27.6046 -21.8203,-39.91875 0,0 -1.4399,-2.02596 -1.9063,-2.67032 -22.5169,-30.98578 -53.4071,-55.03194 -89.1828,-69.08593 l -8.4391,-3.09687 c -5.1956,-1.77587 -10.4824,-3.35039 -15.8546,-4.70313 -12.0228,-3.06968 -23.2098,-4.69914 -37.6516,-5.62812 l -0.013,0 c -3.3953,-0.20959 -6.7699,-0.39977 -9.4938,-0.52657 -0.1783,-0.008 -0.2973,-0.0138 -0.4672,-0.0218 l -3.4062,-0.13125 c -0.2774,-0.006 -0.5992,-0.0219 -0.8515,-0.0219 z m -0.861,4.31093 c 0.3415,-0.006 0.7136,0.0178 3.6079,0.0266 2.8974,0.11373 6.9582,0.32986 11.2077,0.59219 14.2675,0.91777 25.1125,2.50105 36.8766,5.50469 60.6567,15.26844 110.4674,58.65447 134.3297,116.975 14.5175,35.54299 18.0208,78.26148 9.5937,116.14062 -13.9335,62.49225 -57.2357,114.13878 -116.3906,138.91875 -36.2106,15.18503 -79.5114,19.02342 -118.0578,10.42969 -62.4924,-13.93352 -114.1389,-57.23578 -138.9188,-116.39062 -15.0181,-35.70988 -18.9405,-79.18054 -10.764,-116.80938 15.6021,-70.9191 68.1671,-127.40422 137.5843,-147.59531 14.4799,-4.17079 28.7229,-6.47006 47.5094,-7.62969 2.7699,-0.11752 3.0805,-0.15572 3.4219,-0.1625 z m 197.0469,58.89064 c -8.7245,6.82457 -17.1782,13.99831 -26.0531,20.62812 17.2437,25.21692 30.1017,56.50944 35.2046,89.42188 2.7783,21.314 1.6197,43.56119 0.2595,53.95468 0,0 28.5682,2.82312 39.7828,3.9875 1.4065,-11.40041 9.0848,-21.05023 19.878,-24.98125 l -49.9703,-137.93437 c -1.6977,0.37628 -3.435,0.54541 -5.1734,0.50624 -5.1594,-0.142 -10.0996,-2.12126 -13.9281,-5.5828 z m 0.08,4.29687 c 4.0275,2.8578 8.7828,4.54731 13.7625,4.68437 l 0.011,0.003 0.011,0 c 0.989,0.0223 1.959,-0.19461 2.9421,-0.28905 l 48.0048,132.50625 c -9.3174,4.49768 -16.0632,12.98836 -18.3392,23.0828 -11.6704,-0.68423 -32.5296,-3.09843 -32.5296,-3.09843 1.3221,-13.27193 1.0327,-40.61511 -0.6032,-51.75469 -5.1879,-33.48562 -16.4244,-62.75951 -34.0452,-88.5375 z m -398.3016,2.81406 c -12.0272,12.99831 -28.922157,20.40093 -46.631198,20.43281 l -0.99688,183.55 c 0.20504,-0.003 0.41064,-0.005 0.6156,-0.005 15.808481,0.44923 30.399441,8.59228 39.081278,21.81094 l 25.3836,-14.26596 -1.2981,-3.0045 c -6.7633,-16.4841 -11.5061,-34.0781 -14.0485,-52.54687 l 0,-0.008 c -1.5239,-10.89571 -1.28,-42.05339 0.3297,-53.02344 3e-4,-8e-4 -1e-4,-0.006 0,-0.006 6.6432,-36.94116 15.0786,-56.82362 27.5141,-77.77813 z m 0.1626,4.57671 24.5765,21.22813 c -13.7264,23.25536 -22.4972,53.76787 -26.51566,76.51563 -1.752,11.93108 -2.00312,42.2986 -0.33432,54.22968 2.60918,18.95572 7.50358,37.028 14.49378,53.95781 l -19.38442,10.85782 C 98.274613,488.99145 84.747733,481.51617 69.950932,480.31448 l 0.96408,-177.16719 c 16.323921,-0.85524 31.740718,-7.62832 43.414118,-19.075 z m 406.978,155.11876 c -6.9152,45.03735 -26.4291,83.79858 -57.8937,115.34375 l 0,0.002 c -4.0528,4.05259 -7.6429,7.94655 -11.8906,11.57969 8.0835,9.55291 16.4081,19.47598 23.6969,27.81718 7.2347,-6.38187 16.6165,-9.79221 26.2609,-9.54374 4.2711,0.13014 8.4898,0.97568 12.4813,2.50156 l 59.4546,-118.47032 c -7.6878,-5.84862 -12.159,-14.98641 -12.0594,-24.64531 -13.3292,-1.66829 -26.7411,-2.82864 -40.05,-4.58437 z m 3.7251,4.16718 33.0859,3.49219 c 0.7034,8.61027 4.665,16.61531 11.0797,22.41094 l -57.0015,113.58593 c -3.4527,-1.03092 -6.9913,-1.74936 -10.6016,-1.85937 l -0.01,0 -0.011,0 c -9.3473,-0.24051 -18.3724,2.82769 -25.8204,8.37188 l -19.5046,-22.69532 c 3.7685,-3.2884 6.5411,-5.52555 10.1531,-9.1375 31.4502,-31.5298 51.2277,-69.43503 58.6297,-114.16875 z m -392.0984,51.16241 -24.9289,13.66889 c 4.29104,7.6105 6.4418,16.2408 6.225,24.97499 -0.2676,9.26239 -3.18892,18.25324 -8.41564,25.90469 l 167.48754,105.16558 c 8.9536,-13.59678 24.2903,-21.61136 40.5656,-21.19526 0.3315,0.0222 0.6627,0.0474 0.9937,0.0766 1.0819,-9.97437 2.1766,-28.53751 2.1766,-28.53751 -9.9923,-0.0603 -19.9253,-1.0517 -25.7078,-1.91874 -32.7064,-5.09779 -59.0185,-15.01687 -84.6407,-32.04375 l -0.013,-0.003 c -31.9349,-21.1334 -56.5025,-49.67036 -72.2875,-83.30938 z m -2.2407,4.85323 c 16.123,34.21248 41.1616,63.27679 73.6406,84.77031 26.1151,17.35432 53.1479,27.53177 86.3547,32.70469 5.6934,0.85402 13.4017,1.3401 22.5766,1.46562 0,0 -0.983,14.27684 -1.5453,21.40782 -15.4842,0.29344 -29.9143,7.6623 -39.2454,19.97184 L 110.40525,557.93152 c 4.40208,-7.49825 6.97288,-15.94119 7.22498,-24.67031 l 0,-0.008 0,-0.008 c 0.2037,-8.20349 -1.6524,-16.27558 -5.18754,-23.64532 z m 317.8234,69.07188 c -28.6262,23.58318 -62.3069,38.11734 -101.7094,44.21406 -5.8619,0.87928 -16.2705,1.86055 -26.4093,1.90937 0,0 -1.3041,18.09363 -2.1531,28.80782 17.4404,2.11962 32.2542,13.76291 38.4328,30.20939 l 107.65,-38.59377 c -1.49,-4.31783 -2.194,-8.86819 -2.0781,-13.43437 0.2701,-9.42909 4.0186,-18.42483 10.5234,-25.25625 z m 0.4282,4.90469 19.4312,23.06562 c -5.7944,7.09149 -9.2485,15.83155 -9.5125,25.04375 l 0,0.005 0,0.003 c -0.097,3.84276 0.4984,7.64 1.45,11.35313 l -101.8359,36.50785 c -6.8025,-14.97432 -20.4309,-25.66838 -36.5953,-28.71098 l 2.0718,-22.14375 c 9.7411,-0.0889 17.4534,-0.72244 23.4703,-1.625 39.6211,-6.12768 72.5122,-19.90625 101.5204,-43.49843 z"
       style="fill:#000000;stroke:none" />
    <path
       inkscape:connector-curvature="0"
       id="path4638"
       d="m 315.75367,5.5422995 c -17.11426,-0.461929 -34.31398,6.1253755 -46.74219,17.9003895 -12.42774,11.774567 -19.93219,28.591486 -20.39453,45.705078 -0.31124,12.095418 2.81803,24.259584 8.92773,34.703123 a 2.1147098,2.1147098 0 0 1 0.14453,1.83789 2.1147098,2.1147098 0 0 1 1.61914,0.95313 c 5.74265,8.80517 13.64312,16.19045 22.81446,21.32812 9.16393,5.13352 19.5806,8.01224 30.08008,8.31445 0.26072,-3.2e-4 0.5225,-0.002 0.7832,-0.006 a 2.1147098,2.1147098 0 0 1 1.7168,0.84961 2.1147098,2.1147098 0 0 1 1.63671,-0.87696 c 16.42137,-0.59052 32.52537,-7.64467 44.09377,-19.31445 11.5684,-11.66978 18.4805,-27.831891 18.9277,-44.257813 0.4619,-17.114261 -6.1254,-34.313979 -17.9004,-46.742187 -11.775,-12.428209 -28.5927,-19.9327025 -45.707,-20.3945305 z M 402.96657,173.5462 c -3.1139,-0.0846 -6.2445,1.11357 -8.5059,3.25586 -2.2609,2.14186 -3.6265,5.20121 -3.7109,8.31446 -0.115,4.50193 2.5697,8.95677 6.6035,10.95898 a 2.1147098,2.1147098 0 0 1 1.0859,1.29102 2.1147098,2.1147098 0 0 1 1.6465,-0.31641 c 0.7355,0.16405 1.487,0.25909 2.2403,0.28125 0,4e-5 0,-4e-5 0,0 3.6181,0.0885 7.2402,-1.58039 9.5234,-4.38867 a 2.1147098,2.1147098 0 0 1 1.4941,-0.77344 2.1147098,2.1147098 0 0 1 0.055,-1.67187 c 0.6983,-1.47874 1.0877,-3.10363 1.1348,-4.73829 l 0,-0.002 c 0.083,-3.11244 -1.1144,-6.23979 -3.2559,-8.5 -2.1418,-2.26067 -5.2013,-3.62661 -8.3144,-3.71094 z m -333.882815,1.1836 c -16.11406,-0.43467 -32.30798,5.76658 -44.00977,16.85351 -11.70179,11.08694 -18.7682697,26.92306 -19.2031297,43.03711 -0.41217,15.84614 5.5835797,31.7681 16.3457097,43.40625 10.76212,11.63815 26.16616,18.85894 41.99609,19.68555 a 2.1147098,2.1147098 0 0 1 1.63281,0.91602 2.1147098,2.1147098 0 0 1 1.65625,-0.81055 c 16.87888,-0.0312 33.619045,-7.36645 45.082035,-19.75586 a 2.1147098,2.1147098 0 0 1 1.71679,-0.67188 2.1147098,2.1147098 0 0 1 0.43555,-1.8164 c 8.74303,-10.49613 13.84264,-23.97025 14.23828,-37.625 l 0,-0.006 c 0.32134,-12.92817 -3.56022,-25.92743 -10.91797,-36.5625 a 2.1147098,2.1147098 0 0 1 -0.26953,-1.86119 2.1147098,2.1147098 0 0 1 -1.63867,-0.82227 C 105.04234,184.28461 87.273325,175.23491 69.085705,174.7298 l -0.002,0 z m 458.324215,62.06445 c -6.5398,-0.16716 -13.0646,3.202 -16.7149,8.63086 a 2.1147098,2.1147098 0 0 1 -1.5078,0.91797 2.1147098,2.1147098 0 0 1 -0.016,1.74805 c -1.1229,2.40859 -1.7473,5.04866 -1.8223,7.70507 0,0.001 10e-5,0.003 0,0.004 0,6.5e-4 10e-5,0.001 0,0.002 -0.1135,4.58643 1.4525,9.19719 4.336,12.76563 a 2.1147098,2.1147098 0 0 1 0.4297,1.72461 2.1147098,2.1147098 0 0 1 1.6738,0.52734 c 3.4168,3.08944 7.9559,4.91061 12.5605,5.03906 1.5652,0.0347 3.1357,-0.12014 4.6641,-0.45898 a 2.1147098,2.1147098 0 0 1 1.7266,0.37891 2.1147098,2.1147098 0 0 1 1.2265,-1.26368 c 7.1134,-2.76644 12.2351,-10.03281 12.4493,-17.66211 l 0,-0.002 c 0.137,-5.11274 -1.8318,-10.25027 -5.3497,-13.96289 -3.5178,-3.71262 -8.5415,-5.95534 -13.6543,-6.09375 l 0,0 z m 65.2559,178.87695 c -2.5084,-0.0639 -5.0251,0.20665 -7.4629,0.80078 a 2.1147098,2.1147098 0 0 1 -1.7696,-0.36523 2.1147098,2.1147098 0 0 1 -1.2695,1.2793 c -4.8964,1.78322 -9.2826,4.94206 -12.5273,9.01953 -3.2448,4.07747 -5.3384,9.06264 -5.9766,14.23437 a 2.1147098,2.1147098 0 0 1 -0.959,1.51953 2.1147098,2.1147098 0 0 1 0.7559,1.64063 c -0.091,8.82797 4.198,17.59446 11.2246,22.93945 a 2.1147098,2.1147098 0 0 1 0.834,1.63086 2.1147098,2.1147098 0 0 1 1.8086,0.16992 c 4.1594,2.48768 8.9619,3.88753 13.8066,4.02344 7.4465,0.20062 14.9303,-2.6658 20.3379,-7.78906 5.4081,-5.12371 8.674,-12.44155 8.875,-19.88867 0.2011,-7.44712 -2.6654,-14.93174 -7.7891,-20.33985 -5.1232,-5.40763 -12.4402,-8.67346 -19.8867,-8.875 l 0,0 z M 64.835705,484.77081 a 2.1147098,2.1147098 0 0 1 -1.61133,0.89844 c -11.4555,0.6431 -22.6053,5.72697 -30.60156,13.95508 -7.99582,8.22765 -12.76019,19.51779 -13.07617,30.98633 -0.32694,12.11369 4.33557,24.287 12.66992,33.08398 8.33435,8.79699 20.23788,14.11017 32.35156,14.4375 14.32806,0.36519 28.66629,-6.36731 37.537105,-17.625 a 2.1147098,2.1147098 0 0 1 1.66602,-0.80664 2.1147098,2.1147098 0 0 1 0.27148,-1.82226 c 4.9633,-7.26514 7.79286,-15.96874 8.04883,-24.76368 l 0,-0.006 c 0.20502,-8.30091 -1.87651,-16.64616 -5.95508,-23.8789 a 2.1147098,2.1147098 0 0 1 -0.11719,-1.83594 2.1147098,2.1147098 0 0 1 -1.58203,-0.94531 c -8.137275,-12.39008 -22.532785,-20.42739 -37.349605,-20.85742 -0.18179,7.4e-4 -0.36315,0.001 -0.54492,0.004 a 2.1147098,2.1147098 0 0 1 -1.70703,-0.82422 z M 501.39817,586.50714 c -9.0003,-0.22924 -18.0445,3.05843 -24.7968,9.01367 a 2.1147098,2.1147098 0 0 1 -1.754,0.49805 2.1147098,2.1147098 0 0 1 -0.5625,1.74414 c -6.074,6.37985 -9.6859,15.04636 -9.9394,23.85156 0,10e-4 0,0.003 0,0.004 0,6.5e-4 0,10e-4 0,0.002 -0.1091,4.30048 0.5582,8.61881 1.9609,12.68555 a 2.1147098,2.1147098 0 0 1 -0.2031,1.80469 2.1147098,2.1147098 0 0 1 1.3984,1.18359 c 2.7526,6.17245 7.2775,11.54257 12.8946,15.30078 5.617,3.75822 12.3068,5.89278 19.0625,6.08203 9.4465,0.25452 18.9407,-3.38149 25.8008,-9.88086 6.86,-6.49936 11.0022,-15.78201 11.2578,-25.22851 l 0,-0.002 c 0.1786,-6.89195 -1.6698,-13.82471 -5.2559,-19.7129 -3.5864,-5.88874 -8.8992,-10.71305 -15.1055,-13.71679 a 2.1147098,2.1147098 0 0 1 -1.1367,-1.42188 2.1147098,2.1147098 0 0 1 -1.8301,0.15625 c -3.7607,-1.4378 -7.7627,-2.24021 -11.7871,-2.36328 l 0,0 z m -184.96286,57.99219 a 2.1147098,2.1147098 0 0 1 -1.78321,0.72656 c -0.29609,-0.0258 -0.59212,-0.0503 -0.88867,-0.0703 -7.59764,-0.19011 -15.23469,1.58405 -21.9707,5.10351 -6.74294,3.52308 -12.56803,8.78657 -16.75195,15.14063 a 2.1147098,2.1147098 0 0 1 -1.59375,0.94336 2.1147098,2.1147098 0 0 1 -0.11719,1.82226 c -3.55572,6.32522 -5.55073,13.52027 -5.75781,20.77344 -2e-5,6.5e-4 1e-5,10e-4 0,0.002 -2e-5,6.4e-4 1e-5,10e-4 0,0.002 -0.3166,11.77901 4.21805,23.61613 12.32226,32.16992 8.10511,8.55474 19.68066,13.72089 31.46094,14.03906 11.78029,0.31769 23.61914,-4.21716 32.17384,-12.32226 8.5528,-8.10333 13.7188,-19.67553 14.039,-31.45313 l 0,-0.006 c 0.108,-4.70692 -0.5287,-9.43097 -1.8789,-13.9414 a 2.1147098,2.1147098 0 0 1 0.3047,-1.83399 2.1147098,2.1147098 0 0 1 -1.3125,-1.25976 c -2.8771,-7.65865 -7.8884,-14.50253 -14.3203,-19.5586 -6.4318,-5.05606 -14.2672,-8.3096 -22.38865,-9.29687 a 2.1147098,2.1147098 0 0 1 -1.53711,-0.98047 z"
       style="opacity:1;fill:#000000;fill-opacity:1;stroke:none;stroke-width:8;stroke-linecap:round;stroke-linejoin:miter;stroke-miterlimit:4;stroke-dasharray:none;stroke-dashoffset:0;stroke-opacity:1" />
  </g>
</svg>
